<svg xmlns="http://www.w3.org/2000/svg" width="209" height="218" fill="none" xmlns:v="https://vecta.io/nano"><g clip-path="url(#A)"><g fill="#fff"><path d="M98.4 166c-1.3 0-2.6-.1-3.9-.2-12.3-1-23.4-6.7-31.4-16.2-8-9.4-11.8-21.3-10.8-33.6S59 92.6 68.5 84.6c9.4-8 21.3-11.8 33.6-10.8s23.4 6.7 31.4 16.2c8 9.4 11.8 21.3 10.8 33.6s-6.7 23.4-16.2 31.4c-8.4 7.2-18.8 11-29.7 11zm-.1-88.7c-10.1 0-19.7 3.5-27.5 10.1-8.7 7.4-14 17.6-14.9 29-.9 11.3 2.6 22.3 10 31s17.6 14 29 14.9c11.3.9 22.3-2.6 31-10s14-17.6 14.9-29c.9-11.3-2.6-22.3-10-31s-17.6-14-29-14.9c-1.1-.1-2.3-.1-3.5-.1z"/><path d="M90.6 76.1l.4-.1c-.1 0-.3 0-.4.1z"/><path d="M91.2 76h-.4-.1c.1 0 .3 0 .4-.1l.1.1zm51.8 43.3v-.9-.4-.1l-.3-3.7c0 .3.1.6.1.9v-.3l-.1-.6-.8-4.5-.6-2.4-2.5-6.5c.2.4.3.7.4 1l-.4-1-3.5-6-4.1-5.1-.2-.2-5.1-4.6-5.8-3.8-2.5-1.3h.1l-.6-.3c-.1-.1-.1-.1-.5-.2h-.1-.1c.2.1.5.2.7.3h.1c.1 0 .2.1.3.1h.1c.1 0 .1.1.2.1l.1.1-1.1-.6h-.1c-.1 0-.2-.1-.2-.1-.1 0-.1-.1-.2-.1-.1-.1-.1-.1-.6-.3h-.1c-.1-.1-.3-.1-.4-.2h-.1c-.3-.1-.5-.2-.7-.3l-.9-.3h-.1-.1c.1 0 .1.1.2.1-.1 0-.2 0-.2-.1.1 0 .2.1.4.1h-.1c-.1 0-.1 0-.2-.1s-.3-.1-.4-.2c-.1 0-.2 0-.6-.2-.1 0-.2-.1-.3-.1h-.1l1.5.6h-.1c.1 0 .2.1.2.1h.1c.1 0 .1 0 .2.1.1 0 .1.1.2.1-.1 0-.1 0-.4-.1h-.1-.1c.1.1.3.1.5.2.1.1.2.1.3.2h-.1c.2.2.2.2 1.4.8.1 0 .1.1.2.1l.1.1h-.1v.1h-.2-.1l.1.1.1.1h-.1l1.3.7c.1 0 .2 0 .5.2.1 0 .1.1.1.1l.1.1c-.1 0-.1 0-.9-.3h-.2c-.1 0-.2-.1-.3-.1h-.1v.1l.1.1c.2 0 .3 0 .5.2l-.3-.1c.2.2.4.3.5.4h.1c.4.1.8.4.8.4-.4-.2-.9-.2-1.3-.5-.1-.1-.2-.1-.2-.2l-1-.6h-.1c.6.4.6.4.7.4s.1.1.1.1h-.1l.4.4h.1l1.2.8.9.6h.2s-.1-.1-.1-.2v-.1c.5.2.9.5 1.3.8-.2-.2-.6-.4-.8-.4l-.1.1c.1.2 1.2 1.3 1.2 1.3h-.1v.2c0 .1.1.1.1.1l.1.1c-.1 0-.1 0-.4-.1h-.4-.1c0-.1-.1-.1-.1-.2h.4c0-.1.1-.2-.3-.6 0-.1 0-.1-1.7-1.4l-.1-.1c-.6-.5-.6-.5-1.4-1-.2-.2-.4-.3-.6-.4h.1l-.6-.4c-.1 0-.3-.1-.4-.1h-.1-.1v.1h-.1c.2.2.9.8.9.8l-.1.1.1.1.1.1.1.1h.1c.1 0 .5.3.6.4.1.2.4.4 1.2.7a2.65 2.65 0 0 1 .6.5h-.1c-.1 0-.2 0-2.1-.9h-.3c-.1 0-.2-.1-.3-.1h-.3c-.2-.1-.5-.2-.7-.3-.1 0-.2-.1-.3-.1h-.1v.1c.5.5 1.3.4 1.8 1.1l-.1.1c0 .1.1.2.1.3h-.1c-.4-.4-.4-.4-.4-.5h-.1v.1l.1.1h-.1-.1-.1c1.9 2 3.6 4.4 5.1 7.1-1.5-2.7-3.3-5.1-5.2-7.1v.1h-.1-.1-.1c0 .1.1.2.1.2h-.2c-.2-.1-.2-.1-.6-.6v.1h-.1v.1c-.1.1-.1.1-.2.1h-.1v.1h-.2c-.2.1-.2.1-.2.3h-.2l-.1.1c.3.2.3.2.3.3-.1.1-.1.1-.4.3h-.1l-.7-.6h.4c-.1-.1-.1-.2-.2-.3-.1 0-.2-.1-.2-.1-.1-.1-.1-.1-.3-.2h-.1c-.1-.1-.2-.1-.4-.1h-.1c-.1.1 0 .1 0 .2h.1c.2.2.3.4.4.5 0 .1 0 .2.2.3.1 0 .1 0 .4.2v.1c0 .2.1.3.2.4-.3 0-.3 0-.4-.1l-.1-.1h-.6c0 .1 0 .2-.1.2-.3.1-.3.1-.4.3h-.1c.1.3.5.4.6.7-.4 0-.4 0-.5-.1h-.1c-.7-.1-.8-.4-.9-.4 0 .1-.1.1-.2.2 0 .1 0 .3.3.3l.1.1.1.1c.2 0 .3 0 .5.2v.1h-.4l-.1.1-1.1-.9h-.3l-.1-.3c-.2-.7-1.1-.6-1.3-1.2l1.3.5h.7c.2 0 .4.2.6.2h.2.1c1.5-.5 0-1.3 0-1.3l-1.2-.4c-.1-.1-.2-.1-.3-.1-.1-.1-.2-.1-.5-.1h-.2c-.1-.1-.2-.1-.4-.2h-.3l.1.1c-.1.1-.1.1-.2.1l-.1-.1v-.1-.1c-.1-.1-.2-.1-.3-.3h-.2l-.1.1c-.2 0-.4-.1-.6-.2-.1 0-.1-.1-.1-.1h.1s0-.1.1-.1c-.1-.1-.3-.3-.8-.3 0 .1 0 .1.1.2h-.1c-.1-.1-.1-.1-.1-.2v-.1-.1h-.5c0 .1.1.2.1.2v.1l-.1.1c0-.2 0-.2-.2-.3h-.2l-.1-.2h-.1c-.1.1-.2.1-.3.2 0 .1 0 .2-.1.2h-.1v-.1c0-.1-.1-.1-.2-.1-.2 0-.2.1-.4.1 0 .2 0 .2.4.3 0 .1 0 .1.1.2h-.1c-.1 0-.1 0-.4-.1h-.2v.4c0-.1-.1-.2-.1-.2-.2 0-.4-.3-.6-.3v.1c.2.4-.1.5-.2.5 0-.1-.1-.2-.1-.2l-.1.1h-.1l-.1.1c.1 0 .1.1.2.1v.1l-.1.1-.3-.1v-.3h-.1v.2c-.3 0-.3 0-.4.1l.1.1-.1.1c-.2 0-.2 0-.4.2h-.1l-.9.2h-.1l-.1.1h.1c.3-.2.3-.2.5-.2.3-.3.6-.2.8-.2v.1c-.1 0-.1 0-.5.1 0 .2-.2.3-.2.5-.1 0-.2.1-.2.1-.1.3-.5.4-.5.4-.1.2-.2.5-.3.7v-.1c-.1.1-.2.1-.7.3v.1h.1.2c-.1.5-.7.5-1 .9-.1 0-.2 0-.3-.1h-.2v.2.1c-.1 0-.2.1-.2.1h-.1l-.6.3c-.1.4-.5.3-.7.5v.3l-.2.5h-.1c-.1.2-.1.2-.1.3h.3.1l.1.1c0 .1-.1.1-.2.2.1.5.1.5-.1.6v.1c.1.1.1.1.4.1 0 .2 0 .2-.2.3.6 0 1.2 0 1.8.1.2-.2.2-.2.5-.3v-.2c.2 0 .2.2.3.3v.1l3.2.2c.1-.1.2-.1.3-.2 0-.2 0-.2.3-.4V89v-.1h-.5c0-.3 0-.3-.1-.4-.1 0-.2-.1-.2-.1v-.9l.4-.7c.6-.1 1-.7 1-.7.1-.1.1-.1.4-.1l.1-.1c-.1-.4.1-.8.2-1.1h.4l.3.3.1-.1c.2.1.2.1.3.2.1.2.1.3.1.4h-.3c.1.4.1.4-1.2 1.4 0 .3 0 .7.1 1v.1.3c.2.2 1.2.7 1.2.7h.1c.3-.2.7-.1 1-.2v-.1h.9c.1 0 .2-.1.2-.1 0 .1.1.1.1.2.3.1.4.1.6.1l.1.1-.1.1c-.6 0-.7 0-.9.5-.5.2-1.1-.3-1.6 0-.2-.1-.2-.1-.4 0 0 .1-.1.2-.1.2 3.9.2 7.8.3 11.5.3-3.6 0-7.6-.1-11.5-.2h-.1-.1s-.1 0-.1-.1v-.1h-.2-.1v.1l.1.1h.1c-.1.1-.3.1-.4.2v.2c.2.1.2.1.6.1l.3-.3c.3.1.4.4.7.5v.2c-.1 0-.3.2-.3.3-.1.1-.1.1-.2.1h-.2c0-.1-.1-.1-.1-.2-.1-.2-.2-.2-.2-.2v-.2h-.2l-.3.3-.3 1.5.1.1-.1.1c-.8-.2-.8-.2-1 0 0 .1.2.3.3.4v.1h-.1c-.3-.2-.5-.4-.7-.5-1.7.8-2.2 1-2.2.2h-.2c-.1.1-.3.1-.4.1H98h-.2v.2c-.1.1-.2.1-.3.1s-.1 0-.2-.1c0-.1-.1-.2-.2-.3h-.2v-.2-.2h.4c.2.1.4.2.7.2.1-.1.3-.3.3-1-.1-.1-.1-.1-.2-.1-.4.1-.4.1-.6.3 0 .1-.1.1-.1.1 0-.1-.1-.1-.1-.2s.1-.1.1-.2v-.3h-.2c-.1-.9-.1-.9-.2-.9-.4.6-.4.6-.5.6 0 .1-.1.1-.1.2v.2c-.1.1-.2.2-.4.2-.1.4.3.7.2 1v.1l-.2.2a.76.76 0 0 0 .2.4v.3H96h-.2-.4c-.5-.1-.5-.1-1.5.6-.2-.1-.2-.1-.3-.1h-.1-.2v.2l.2.1c0 .1 0 .3-.1.4-.4 0-.5 0-1 .5-.1.1-.2.1-.2.1H92c-.2.2-.2.5-.3.7-.4 0-.4 0-.7.1 0 .1-.1.2-.1.4h-.4l-.1-.1h-.2c-.1-.1-.1-.1-.1-.2-.1 0-.1-.1-.2-.1a.76.76 0 0 0-.2.4c.1 0 .2.1.2.1 0 .1-.1.2-.2.2v.1.2c-.3 0-.6-.1-.9-.1 0-.1-.1-.1-.1-.2-.6.1-.6.1-.8.3l.1.2.3.3h.3l.5.5c.1.4.1.6 0 .8.1.2.3.3.5.4l-.6 1.8c-.1.1-.3.2-.5.2h-.2c-.3-.2-.7-.1-1-.4-.5-.1-.9-.1-1.2-.1-.5-.1-.5-.1-.6-.2h-.1s-.1.1-.1.2c-.3.2-.5.1-.7.1l-.1.1c.3.5-.2 1 0 1.5 0 .3-.1.5-.1.8-.5.9-.5.9-.4 1.2.1.2 0 .3 0 .3v.1c-.2.2-.2.2-.2.6.1 0 .2.1.4.1.3-.1.4-.1.6.2.1 0 .3 0 .4-.1l.5.3c.1.1.1.3.2.4h.2-.1c1.2-.4 2.2-1.4 3.5-1.4.2-.2.2-.3.2-.5-.1-.1-.2-.3-.3-.4 0-.1 0-.1.4-.8.2-.4 1.9-.8 1.9-.8.2-.1.2-.3.2-.4v-.1c0-.6 0-1.1.8-.8h.1c.4.2.4.2.7.3h.2.2c.1-.3.1-.3.3-.6h.3c.2 0 .4 0 .8-.4.8.1.7 1 1.3 1.3l.3.3c1.9 1.3 2.9 2.3 2.8 2.8-.3.1-1.7.3-2.2.3 0 0-.1.1-.1.2.4.2.6.6 1 .7h.9v-.5c.6-.2.9-.8 1.4-1.2v-.4h-.4c-.1-.1-.1-.1-.1-.2.2-.2.4-.2.6-.2.3.1.3.1.5.3v-.6c-.4-.3-1-.4-1.2-.9-.2 0-.5 0-1.1-.6.1-.2.1-.2-.6-.7-.1-.1-.1-.1-.2-.1 0-.1-.1-.3-.1-.4h-.5v-.3l.1-.1c.1-.1.1-.1.1-.2-.1-.1-.1-.3-.1-.4.5-.2.5 0 .6.4 1 .1 1.2 1.3 2.2 1.5v.1c.4.5 1.1.5 1.4 1.1-.3.8-.3.8 0 1 0 .3 0 .7.6.8.2.2.2.4.2.6h-.3c0-.1-.1-.1-.1-.2 0 0-.1.1-.1.2.3.5.3.5.7.6 0-.1.1-.1.1-.2.2.1.3.2.5.4v.5c.2.1.3.1.4.1h.2a1.38 1.38 0 0 0 .3-.4v-.2c0-.1 0-.1-.1-.2.1 0 .1-.1.2-.1a.76.76 0 0 1 .4.2h.2s.1-.1.2-.1v-.4h.4c-.2-.2-.2-.3-.5-.4 0 .1-.1.3-.1.4-.3-.1-.4-.2-.6-.9-.4-.1-.4-.1-.6-.3v-.3l.2-.1a.76.76 0 0 0 .4.2h.3.1v-.4c.3-.2.3-.2 1.4.2v.2l.1.1.1.2c-.1 0-.1.1-.2.1 0 .4.6.6.5 1v.2.2c.1.1.1.3.2.4l.1.1h.1l.1.1.1.1.1.1c0 .1 0 .1.1.2l-.1.1v.1.1c0 .1 0 .3.1.4l.1.1.1.1.1-.2v-.2-.3c0-.2.1-.2.1-.2h.1l.1.1.1.1.1.1c.1.1.2.1.2.2l.1.1.1.1h.1.1c.1 0 .2 0 .3.1h.2.1l.1-.1v-.1-.1-.4-.1l.1-.1c.1 0 .3 0 .4.1l.2.2.3.2.1.1.1.1h.1.1.9v-.2-.1-.2c.1 0 .1 0 .2-.1h.1.1a.76.76 0 0 1 .4.2h.2.1v-.1l.1-.1h.1l.1.2v.1.5c-.1.2-.1.5 0 .8v.1c0 .1.1.1.1.2s0 .2-.1.2h-.1v.1.3.1c-.2.4-.2.4-.4.5h-.1l-.1.1v.1l8 .2c-2.6 0-5.3-.1-8-.1 0 0-.1.7-.3.8l-.1.1-.3-.1h-.1c-.1 0-.1 0-.4.1h-.1-.1-.1l-.1.1c-.1 0-.2 0-.2-.1l-.1-.1h-.1s-.3 0-.6-.1h-.1-.1-.1c.2.1.3.2.7.2.1.1.1.1.1.2v.1c0 .1.1.1.1.2v.2.1.1c0 .4.3.7.5 1 .2.4.3.4.4.5h.2c.3 0 .3-.3.4-.4l.1.1c.2.3.6.6.8.9l.6 1.4v.1c-.1.2-.1.5.1.7.1.2.4.1.6.3.1.1.7 1.3.7 1.3.2.5-.3 1.1.3 1.4 0 0 .7.5.9 1.1.1.3.2.3.3.4.3.2.3.2 1.2 2.4 0 .5 0 .9-.1 1.4.1.7 1.1.9 1.4.5.5-.6.5-.6.7-.6h.8.1l.1.1h.1c.1-.1.1-.2.2-.3.5-.8 1.5-.4 2-1.1.1-.2.1-.2.6-.2l.1-.1c0-.4 0-.4.1-.5.1 0 .1 0 .4-.2.2-.1.2-.1 1.2-.1 0 0 0-.5.2-.8h.6c.1-.4.2-.7.2-.7v-1.5 1.4h.1.1.1c0-.1 0-.2.1-.3 0-.1 0-.1.1-.2 0-.2.2-.5.3-.5h.1c.1.1.1.2.2.2.1-.4 0-.8.1-1.3 0-.1 0-.1.2-.1.1 0 .1 0 .2-.1 0-.2 0-.3-.1-.4s-.1 0-.2-.1l-.2-.1c-.1-.1 0-.3-.1-.4-.1-.3-.4-.3-.5-.3-.3 0 0-.5-.1-.7l-.2-.2h-.2v.5l-.1.1c-.1-.1-.1-.3-.1-.5-.1 0-.1 0-.2-.2 0-.3 0-.5-.1-.8l-.2-.2c-.4.1-.4.1-.5 1.3h-.4-.2c-.1 0-.2-.1-.3-.1h-.1l-.5.5s-.5-.1-.6-.7c0 0 .1 0 .1-.1.1-.1.2-.1.3-.1h.1c.7.4.7-.1.7-.1l-.1-.1h-.2-.2-.2c-.3-.1-.7-.1-1.1-.2h-.2c0-.2 0-.5-.1-.7s-.1-.2-.9-.5c-.2-.6-.6-1.2-.5-1.9.1-.5.7-.2.8-.2l.5.5c.3.3.3.3.5.8.2.3.5.4.7.6.4.4.5.5 1.4.6h.1.1c.1-.1.3 0 .4-.1h.2c.2 0 .2 0 .5.2.1.2.1.6.4.7h.6c.4-.1.5.3.7.4h.6c.1 0 .2.1.2.1h.9l.6-.2h.6s.9.8 1 1.5h.1c0 .1 0 .1.2.3h.2c.1 0 .2 0 .6.3-.9 0-.4.5-.4.5.3.2.3.9.9.9.3-.3.3-.3.3-.4s.1-.2.1-.3c0 0 .1 0 .1-.1.4.3.4 1.7.4 1.7v.4c-.2 1.7.8 3.2.6 4.8v.2c-.2.9.2 1.8.3 2.7 0 .1.1.2.1.2h.1c.6-.5.6-.5 1.3-3.8 0-.3 0-.6.1-.9 0-.8 0-.8.2-1 .8 0 1.4-2.7 1.4-2.7l.3-.5h.1c.1-.1.1-.1.2-1 .1-.1.2-.1.3-.1l.1.1h.1c.1-.2.3-.4.3-.6h.3v-.5h.1c.2.4.3 1 .4 1.9.2.4.2.4.2.6v.2.4.1h.1c.3.7-.2 1.3.1 2h.1c.1-.2.1-.2.2-.3v-.2-.2-.1c.4.4.2 2.1-.2 5.2v.2c-.2.7 0 1.5-.1 2.2v.2c-.1.4-.1.8-.2 1.2s-.1.6-.2.9-.2 1.1-.1 1.7c.1-.3.1-.6.1-.6.1-.4.4-2 .4-2 0-.1 0-.2.1-.2v-.1-.2-.1c0-.1.1-.2.1-.3-.1-.1-.1-1.6 0-2.1v-.2-.3c0-.3.1-.5.1-.8.1-.3.4-1.9.4-1.9.1.2 0 .5.1.8l.1-.1c.1.5.1.5-.2 3.2.7-2.5.7-2.5.8-3.7 0-.2 0-.4.1-.5.1-1.1.1-1.1 0-2.3-.1-.8-.1-2.6 0-3.6.1 0 .1.1.1.1v.1a.87.87 0 0 1 .4.8c0 .5-.1.9-.1 1.2 0 .1.1.1.1.1v-1.3zm-23.1-35.7s-.1-.1-.2-.1c.1.1.3.2.5.2.1.1.3.1.4.2l-.1.1c-.5-.3-.5-.3-.6-.4z"/><path d="M137.1 97.9l.1.1 1.5 2.8-1.6-2.9zM89.5 76.3h.3.1.1c.1 0 .2 0 .4-.1l.4-.1h.3.3-.2l1.3-.2c.3 0 .6-.1.8-.1H93h-.4c-.2 0-.5.1-.7.1l-.7.1H91l-.5.1h-.2l-.3.1c-.2 0-.4.1-.5.1h-.3l-.3.1-.5.1h-.2.1c.1 0 .2-.1.3-.1l.3-.1c.1 0 .2 0 .3-.1h.1l.2.1zm1-.2l.5-.1h.2c-.1 0-.3 0-.4.1l-.4.1.1-.1zm-1.4.3h-.2-.1l-.3.1h-.2l.3-.1h.1.4z"/><path d="M88.9 76.4h.2c.2 0 .3-.1.5-.1l.3-.1h-.1c-.1 0-.3.1-.4.1s-.2 0-.3.1h.1-.3-.1.1zm-.7.1l-.1.1h-.3l-.1.1.2-.1h.1.1-.1l.2-.1zM100.6 90c.1-.1.2-.2.3-.2-1 0-2.1-.1-3.2-.1 0 .2.2.2.2.4v.1c0 .1-.1 0-.1.1 0 0 0 .2.1.3h.1l.1.2v.1.1c0 .2.1.3.3.4.1.1.1.1.1.2s-.1.2-.1.3v.1.2h.8c0-.3.1-.5.3-.5h.1l.1.1c.1.1.2 0 .2-.1s.1-.1.3 0v-.3h.4v-.3h-.2-.2V91h-.1c.2-.3.2-.3.2-.6l.3-.4zm13.4-9.8c0-.1 0-.1 0 0-.2-.2-.4-.2-.5-.2v.1l.2.2h.1l.2-.1zm-29.3-2.7l-.6.2H84l1.2-.4-.5.2zm54.2 60.9c0 .1 0 .2-.1.3 0 .1 0 .1-.1.2v.1l.1-.1s0-.1.1-.1c0 .1-.1.2-.1.2 0 .1-.1.2-.1.3 0-.1.1-.2.1-.2l.4-.8.1-.2c-.1.1-.2.1-.3.2-.1 0-.1.1-.1.1zm-30.8-61.7c.1 0 .2 0 .2.1.1 0 .2.1.3.1h.1c.2 0 .2 0 .7.2h.1c.1 0 .3.1.4.1h.1c-.1 0-.1 0-.2-.1-.1 0-.2-.1-.3-.1-.3 0-.5-.1-.8-.2l-.6-.1c.1 0 .2 0 .3.1-.1-.1-.1-.1-.3-.1-.2-.1-.2-.1-.3-.1.1 0 .2 0 .3.1z"/><path d="M109.8 77.1l1.6.5c-.2-.1-.3-.1-.5-.2h.1c-.1 0-.1 0-.2-.1h-.1s-.1 0-.3-.1c-.1 0-.1 0-.2-.1h-.2l-.7-.2c.3.1.4.1.5.2-.3-.1-.6-.2-.8-.2.3 0 .6.1.8.2zm2.1 5.7v-.1c0-.1-.1-.1-.2-.1h-.1l-.1-.1h-.4l.1.1.1.1c.1.1.2.3.3.4h.2c.1 0 .1 0 0-.1v-.1l.1-.1zm-4-6.1l.5.1c.1 0 .1 0 .2.1h.1s-.1 0-.2-.1h-.1-.1-.1c-.1-.1-.2-.1-.3-.1zm-1.4-.4c.2 0 .4.1.6.1l.4.1c.1 0 .2 0 .3.1h.2c-.1 0-.1 0-.2-.1h-.2l-.3-.1c-.1 0-.2 0-.3-.1h-.2-.1c-.4-.1-.5-.1-.6-.1.1.1.3.1.4.1z"/><path d="M111.4 80.7c0-.1 0-.1-.2-.3l-.1-.1c0-.1-.1-.1-.1-.1l-.1-.1-.1-.1c0-.1 0-.1-.2-.2 0 0 0-.1-.1-.1-.1-.2-.3-.2-.4-.4h.1v-.1l-.1-.1h.1l-.3-.3h.2c0-.1-.1-.1-.1-.1h.2s-.1 0-.1-.1h.1l-.1-.1h.2c-.1-.1-.1-.1-.3-.2h.1s-.1 0-.1-.1c-.2-.1-.2-.1-.5-.2h-.1c.1.1.2.1.3.2h-.1s.1 0 .1.1h-.1-.2-.1l.2.2h-.3l.1.1h-.1l.3.2h-.2a1.38 1.38 0 0 0 .4.3l.1.1c.1 0 .1.1.2.1h-.2s-.1.1 0 .1c0 0 .2.2.2.1.1 0 .1 0 .2.1l.1.1h-.2c.1.1.2.1.3.2-.1 0-.2 0-.2.1s.2.1.2.2l.1.2h-.2l.1.1.4.4h.2l-.1-.1h.1c.1.1.1.1.2.1 0-.1 0-.1-.1-.1.3.1.4.2.5.3l.1.2.1.1h.3c.2 0 .4.1.6.1h.1.1l-.2-.2-1-.6c0 .2-.1.1-.3 0zm-5.5-4.4c.1 0 .2 0 .3.1.1 0 .2 0 .3.1-.1 0-.1 0-.2-.1l-.4-.1zm37.1 41.1c0-.2 0-.4-.1-.7v.5l.1.2zm-31.9-40c.1 0 .1 0 .2.1h.1-.1c-.3-.1-.4-.1-.4-.1h.2zm1.4.6c-.1 0-.5-.2-.5-.2.1 0 .2 0 .2.1.1.1.2.1.3.1zm-22.3-1.9l-.3.1h.1c.1 0 .2-.1.2-.1zm13.3.4c0-.1.1 0 .1 0l.2.1h-.1c.1 0 .1 0 .2.1 0 0 .1.1.2.1l.2.1s-.1-.1-.3-.2h-.1.1l-.1-.1c-.1 0-.1 0-.2-.1h-.1c-.1 0-.2-.1-.2-.1h-.1c.1 0 .1 0 .2.1h-.1-.2.3c-.1-.1-.2-.1-.3-.1.1.1.3.2.3.1zm-3.3.1h.1.1c.1 0 .1 0 .1.1h-.2v.1s.1.1.2.1h.2.1.1.2s0-.1.1-.1h.2v-.1h.1l-.1-.1h-.1-.1c-.1-.2-.2-.1-.2-.1 0 .1 0 .1-.1.1v-.1h-.1c.1.1.1.1.1.2 0-.1-.1-.1-.2-.1h-.3c-.3-.1-.4 0-.2 0zm-13.3.3c.1 0 .2 0 .3-.1l.3-.1c-.1 0-.2.1-.4.1l-.2.1c.2 0 .3-.1.3-.1h-.1l-.5.1h-.2.5z"/><path d="M99.1 77.3v-.1h.1v.1c0 .1.1.1.1.1.1 0 .1-.1.1-.1h.1v-.1h.1v.1h.1l.1-.1v.1h-.1s-.4 0-.4.1v.1h.1.1.2c.1 0 .1-.1.1-.1l.1.1-.2.1c-.4-.1-.4.1-.3.1 0 .1 0 .1.2 0 .1 0 .1 0 .3.3 0-.1.2-.1.2-.2v-.2h.1v-.2c.1 0 .1 0 .1-.1-.1-.1 0-.1-.1-.2h.3c0 .1 0 .2.1.2.2 0 .2.1.2.2-.1.1-.1.1 0 .2h.1c.1 0 .1-.1.2-.1l.1.2h.1v-.1h.2.1v-.1c-.1-.1-.1-.1-.3-.1l-.1-.1h-.2c0-.1-.1-.2-.1-.2-.1 0-.1 0-.1-.1h-.1l-.1-.1h-.1-.1v-.1h-.1v-.1c-.1 0-.2 0-.3-.1v.1s.1.1 0 .1c0 .1-.1.1-.1.1v-.1-.1h-.1c-.1 0-.1.1-.1.1h-.1v-.1l.1-.1s-.1 0-.1.1h-.2c-.3.1-.1.2-.1.2h.1s0 .1-.1.1c-.2 0-.2 0-.2.2-.1-.1-.1-.3-.2-.3v.2c.2.2.2.1.2.1zm6.1-.6l.2.1c0-.1-.1-.1-.2-.1zm-.6-.4s.1 0 .1.1l-.1-.1c.1 0 .5.2.6.2 0 0-.1 0-.2-.1h-.1-.1c-.1-.1-.1-.1-.2-.1z"/><path d="M103.6 76.2c.1.1.2.1.4.1h-.1c.1 0 .1 0 .2.1h.1s.1 0 .2.1h-.1.1.1.1c-.1 0-.1 0-.2-.1h-.1.2l-.4-.1h.1c.2.1.2.1.3.1h-.1-.1-.1l-.4-.1c-.1-.1-.1-.1-.2-.1zm1.4.4l-.1-.1h-.2.1c.1 0 .1 0 .2.1h.1c-.1.1-.1.1-.1 0 .2.1.2.1.3.1-.1 0-.2 0-.3-.1z"/><path d="M104.5 76.4h.1c.1 0 .1 0 .2.1h.2-.1-.1c-.1-.1-.2-.1-.3-.1l-.2-.1h-.1.1c.1.1.1.1.2.1zm-38.4 18c.2-.2.2-.3.3-.5h-.1s-.2 0-.2.1c-.2.2-.3.4-.4.6l-1.3 1.2c-.2.2-.2.2-.5.7.3 0 .5 0 .8.1.1 0 .1.1.1.3v.5l.1-.1s.1-.1.4-.6l.4-.6.1-.1c0-.1.1-.2.1-.2-.2 0-.1-.4-.1-.4 0-.1.1-.2-.2-.2v-.1l.4-.5c-.1-.2 0-.2.1-.2zm4.1-9.1l.2-.2-.7.5c.1 0 .4-.2.5-.3zM55.3 118l-.2-.2c-.1.1 0 .2-.1.2h-.1v-.1c0-.1 0-.1-.1-.2l-.1-.2v-.1h-.1c-.1 0-.1-.1-.1-.1l-.1.1c0 .3 0 .6-.1.9l.1.6h.1c.1 0 .1 0 .1-.2 0-.1.1-.1.1-.1.1 0 .1 0 .1.1h.1c.1 0 .3-.1.3-.1h.1c0 .1.2.1.2.1h.1c.1 0 .1-.1.1-.1 0-.1-.1-.1-.1-.2v-.4h-.3z"/><path d="M54.2 112.6l.1-.5.1-.6.2-1 .2-.9.3-1.2c.1-.2.1-.4.2-.7l.3-.8.1-.2.3-.6.2-.4.2-.2.2-.4.2-.3.2-.8.1-.4.2-.4.1-.4.2-.2-.2.6.3-.5.2-.5.2-.3.5-1h.2l.3-.3h.2l.2-.4.4-.8.4-.6h.1l.2-.3.2.1.4-.3.4-.5c.1 0 .4.1.4.2-.1.1-.1.2-.2.2h-.3c-.4.4-.4.4-.6.8v.2l.3-.3.2-.2.3-.1.4-.3.3-.1.5-.5.4-.4.3-.4-.3.1-.5.6h-.3v-.3l.1-.5.4-.8.4-.4.4-.6h-.7l-.4.2-.6.5-.8.8-.4.5.3-.4.4-.5.2-.2v-.2h.2l.3-.4.4-.4h.2l.4-.5.3-.2h.2.5l.2.1h.2l.5-.4.6-.5.4-.1.3-.2.3-.2v-.2l.2-.2.4-.5-.2-.1.2-.3h-.3l-.4.4-.3.2v-.1l.3-.3.4-.2.4-.1.4-.3h-.2V91l-.1-.2.1-.3.1-.3.2-.3h.1l.2-.2.3-.5.3-.6.7-.9.4-.4-.7.5-.5.5-.3.2-.4.3H68l.3-.3.1-.2-.2.1.6-.5.7-.7.4-.4h-.1l.2-.3.4-.4.3-.4-.3.2h-.1l.1-.1h-.1l-.3-.2-.4.4-.6.5-.4.3-.5.5-.5.4-.3.2-.2.2-.3.3-.6.6c-.2.2-.4.4-.6.7l-.5.5-.4.4-.1.1-.5.6c-.2.3-.4.5-.6.8l-.3.5-.2.3-.4.5-.1.1.5-.7.4-.6c.1-.2.3-.3.4-.5l.6-.7.5-.5.1-.1.2-.2.2-.2c-.8.8-1.7 2-2.4 2.8-1.4 1.8-1.4 1.8-3.8 5.7v.1c-1.1 2-1.2 2.1-2.7 5.8l-.2.5L55 109l-.1.4.1-.3v-.1l-.1.5-.1.6c-.1.2-.1.4-.1.6l-.1.4-.1.4v.3l-.1.4v.2l-.1.5v.1l-.1-.4zm-.4 6.2l.1-.3v-.4-.1-.2h-.1v.4.2.4zm-.1-3.7v.7.3.2.5c.1 0 .2.1.3.1 0-.2 0-.9-.1-1h-.1v-1-.3-.2s-.2 1-.1 1.1v-.4z"/><path d="M69.6 85.9l.2-.2c.1-.1.3-.2.4-.3v-.1l-.2.2-.6.5.2-.1zm-13 17.6l.7-1.6v-.1l.1-.1c-.6 1.2-.7 1.7-1.3 3.1.1-.2.1-.3.2-.5l.3-.8zm83.1 30.5l.1-.2c.1-.2.1-.3.1-.3v-.3-.1c-.1.2-.1.2-.1.5 0 .2 0 .2-.1.4zM59 98.3c0-.1.1-.1.1-.2l1.3-2.2-1.4 2.4c0 .1 0 .1 0 0zm4.5-2.9c0 .1.1.1.4-.4v-.1h-.1v-.2-.1h-.1c-.1 0-.1.1-.2.1v.1c0 .1-.1.1-.1.2l.1.4zm18.2 66.2l-1.2-.5s-.1 0-.2-.1l-.9-.4s-.1 0-.3-.1c-.1-.1-.3-.1-.5-.3-.1 0-.1-.1-.2-.1 0 0 .1 0-.1-.1-.6-.3-1.4-.9-1.5-.9s-.2-.1-.2-.1c-.1 0-.1 0-.2-.1-.3-.2-.6-.3-.9-.5 0 0-.1 0-.2-.1l-.3-.3h.1c-.2-.1-.4-.3-.7-.5-.3-.3-.6-.6-.9-.8 0 0-.1-.1-.3-.2l.1.1c-.1-.1-.1-.1-.7-.5l-.3-.3.2.1c.1 0 .1.1.2.1h.1c-.1 0-.1-.1-.2-.1l-.2-.2c-.1-.2-.1-.2-.6-.5-.1-.1-.2-.1-.2-.2h.2l.1-.1h.3c-.2-.2-.4-.5-.6-.8l-.1-.2-.3-.3h-.1l-.3-.3-.9-.6h.2c.7.3.7.3.9.1-1.1-1.6-1.1-1.8-1.1-2 .1.1.2.3.4.4-.4-1.4-1.8-2.4-1.6-4.1h.4c0-.1.1-.3.1-.4.3 0 .6 0 .9.1-.1-.1-.1-.3-.1-.4h.1l-.1-.8c0-.1.1-.1.1-.2l-.3-.8.1-.1c-.1-.4-.2-.7-.4-1 0 0 0-.1-.1-.2 0-.4-.1-.7-.2-.8 0-.1 0-.1-.1-.3 0-.1-.1-.1-.1-.2s-.1-.2-.2-.4l-.3-.8.4-1.1c.1 0 .1 0 .2-.1 0-.1 0-.1.1-.2l.3-1.3c.1-.4.1-.4 0-.7-.1-.1-.5-1.5-1-1.8H68c-.7-.3-.9-1.8-1.9-1.3-.2 0-.4 0-.7-.1-.3-.3-.3-.3-.7-.3 0 .1.1.3.1.4-.5-.1-.5-.2-.5-.5 0 0 .1-.1.2-.1-.8-.8-1-.8-1.2-.8 0 0-.1 0-.2-.1-.3-.2-.3-.2-.6-.2.1.2.1.5.2.7h-.3c0-.1 0-.2-.1-.3 0-.1 0-.3.1-.4 0 0 0-.1.1-.1-.1-.2-.1-.2-.6-.5h-.1-.2c.1.4.1.4 0 .6h-.2c0-.1 0-.2-.1-.4.1-.1.2-.2.2-.3-.1-1-.1-1-.3-1.2H61c0-.3-.1-.5-.2-.9-.2-.7-.7-1.1-1.1-1.7-.1 0-.3-.1-.3-.2l-.1-.1c-.1 0-.3.1-.4.1h-.1l-1.4-2c0-.1 0-.1-.2-.3-.1-.2-.1-.2-.1-.6H57s-.1.1-.2.1c-.2-.1-.2-.1-.2-.6 0-.1.1-.1.1-.2l-.3-.3-.1.2-.1-.1c-.1 0-.1-.1-.2-.1v.4s-.1.1-.2.1c-.1-.4-.1-.4-.3-.5-.1 0-.2 0-.2-.1l-.1-.1c0-.2 0-.3-.2-.6 0-.1-.1-.2-.2-.3 0 0 0 1.6-.1 2-.3-1.4-.2-2-.1-2.4v-.2h-.1c-.1.2-.1.2 0 .6-.1 0-.1 0-.2.1a.76.76 0 0 1-.2.4c0 .3 0 .6.1 1-.1.2-.1.3-.1.5v-.1l-.1-.5h-.1l-.1-.1-.1-.1-.1-.4-.1-.7v-.4.2.1.1.3.1.1.4-.1.2-.1.2l.1.9.1.6.1.3-.1-.6v-.4l.1.1v.2c-.1 1.4.8 2.6.6 4 .1.5.1.5.1.7l.2 1.1v.1l.4 1.2c0 .1.1.2.1.3 0 0 .1.5.5 1.6 0 0 0 .1.1.3.3.9.8 1.8 1.2 2.7 0 .1.1.2.2.4.6 1.3 2.1 4.2 3.4 5.3.3.4.5.9.8 1.3a.76.76 0 0 1 .2.4v.1l.2.2c0 .1.1.1.1.2l.1.1c.2.4.2.4.3.5 0 0 .1.1.2.3 0 .1.1.1.1.2v.1l.1.1c.1.2.2.3.4.5l.1.1s.1.1.1.2c.3.4.5.8.8 1.2l1.3 1.6.1.1 2.4 2.5.3.3c.1 0 .1.1.2.2l3 2.5 1.5 1.1-1-.7h.1a1.38 1.38 0 0 0 .4.3s.1.1.2.1c.2.1.4.3.7.5.2.2.2.2 1.2.8a.76.76 0 0 0-.4-.2s-.1-.1-.2-.1-.1-.1-.2-.1c.1.1.2.2.4.2.3.2.6.4.9.5-.2-.1-.3-.2-.5-.3.1.1.2.1.4.3.6.4 1.2.7 1.8 1l.2.1c.2.1.4.2.5.3l.1.1 1.2.6.1.1.1.1.6.3h.1l2 .8s.1 0 .1.1c.2.1.2.1.6.2l.2.1h.1l-.8-.3c.2.2.1.2-.1.1zm36.9-19.3c-.1.5-.1.5-.2.5-.1.1-.1.1-.8.6-.1 0-.2.4-.2.4 0 .1 0 .1-.1.2s-.2 0-.2 0c-.1.1-.1.3-.3.4-.4.3-.8 0-1.2.1-.1 0-.3 0-.3.1-.1.1-.1.3-.2.5s-.3.2-.4.4c0 0-.3.8-.2.9s.1.1.1.2l-.1.4c0 .1-.1.1-.2 0l-.4.3c-.2.2-.1.5-.4.7-.1 0-.1.1-.1.1v.1c-.1.2 0 .4 0 .6 0 .1-.1.1-.1.2-.1.4-.1.4-.2.6h.7v.2c.2.1.9.2 1.5-.3.3-.3.3-.8.6-1.1.2-.2.4-.3.6-.5.2-.3.2-.7.4-1 .1-.2.4-.2.6-.3.1-.1.2 0 .3-.2s0-.5.2-.8c.1-.2.3-.3.4-.4 0-.1.1-.2.1-.2v-.2-.1c.1-.2.3-.2.4-.4v-.1l.3-1.4c0-.2-.1-.4-.6-.5zm20.4-4.8s0-.1.1-.1c0 0-.1 0-.1.1 0 0 0 .1-.1.1v.1s.1-.1.1-.2zm-2.2-9.9h-.1l-.1.1-.1.2c0 .1-.1.3 0 .4v.1.1.2c-.1.3-.1.3-.1.4-.1.4-.1.5-.1.7s.2.3.2.3h.3c0-.2.1-.4.1-.6v-.3-.1-.2s0-.3-.2-.7c.1-.2.1-.3.1-.6z"/><path d="M120.2 126.7h-.5c-.7.1-.9.1-1.3-.1-.3-.7-.3-.7-.3-.9-.1 0-.2-.1-.2-.1-.1-.2-.1-.5-.1-.7-2.1-1.7-3.8-3.2-3.4-4.7v-.5c0-.2-.1-.4-.2-.5 0-.1-3.4-6.4-3.5-7.5-.3-.3-.8-.3-1.1-.6h-.3c-.1.1-.4.2-.5.2h-.1c-2-.4-3.9-1.6-6-1.5 0 1.6 0 1.6-.2 1.8h-.3-.4c-.5-.1-.6-.6-1.1-.7-.5 0-.9 0-1.5-.3-.2-.9-1.7-1-1.7-1-.7 0-.7 0-1.5-2.7.1-.1.1-.1.7-.3 0-.1 0-.2-.1-.3l-.8-.3c-1.9.1-1.9.1-2.8.6-.5-.4-1.4-1.2-2.3-.1h-1.3c-.1.1-.1.1-1.6.9h-.2c-.5-.1-1.2.1-1.6-.4h-.3c-.2.3-.3 1-.3 1-.3.2-.3.2-1 .1-.1.4-.1.8-.2 1.2-.3 0-.7 0-1 .2-.2.6-.4 1.2-.5 1.9 0 .2 0 .3-.1.5h-.8c-.1.8-1 1.3-1.4 1.3-.5.9-1.3 1.7-1.6 2.8h-.2-.2-.3c-.1 1.7-.2 1.7-.8 1.9 0 .1-.1.2-.1.2 0 .2 0 .4.1.6 1 .2 1 .2 1.1.4-.3.6-.3.6-.3 2.5v.5c0 .1 0 .1-.5.5 0 .4.2.7.2 1.1v.3c0 1.3 2.2 2.6 2.2 2.6 0 .8 0 1.4 1.7 1.8.1.3.1.3.1.8 1.5 1.4 2.4 1.2 2.4 1.2.1-.2.2-.4.2-.5.3 0 .7.1 1 0h.4.8c.2.5.7.4 1.8.2.3-.7.6-.7 1.8-.5h.1c.7-.6 1.4-.4 1.6-.3.2 1.2.5 1.3 1 1.4l2.4.1c0 .3 0 .6-.1 1l-.5 2.7h-.3c0 .1-.1.2-.1.2 1.9 1.1 1.9 3.2 3 4.8 0 .1-.1.2-.1.2v.3c0 .5.1.5.4.7 0 1.4-1.3 2.5-1.3 3.9 0 .8.1.8.5 1.1.1.7.1 1 .7 1.3.2 1.1.2 1.1.4 1.2v1.1s.7 2.2 1.5 3.1c-.1.3-.1.4.2.7 0 0 0 .1-.1.2s-.3.2-.3.4c.1 0 .1.1.2.1h.2c0 .3 0 .4.3.6h1c.5-.2.5-.2.8-.2.4 0 .8 0 1.4-.1 0-.1.1-.2.1-.2 1.1-.2 1.1-.2 1.3-.5 0 0 3.3-1.6 2.9-3.3l2-1.1c.1-.5.1-.5 0-2.2 1.4-1.2 3.4-1.7 4.3-3.4 0-.1.1-.2.1-.5v-.5c.1-.5.2-1 .2-1.6-.5-.8.2-1.7-.1-2.6v-.1c1.5-4.9 7.9-5.9 8.9-11.2 0-.2 0-.4-.2-.6-.9-.2-1.5.8-2.4.4zm-66.8-3.9v.1.2c0-.5 0-1.1-.1-1.6v.2-.1.2.3.3c0 .4 0 .8.1 1.1v-.2a.45.45 0 0 0 0-.5zm85.8 13.6c.1-.2.2-.4.2-.6v-.1-.1s0-.1.1-.4l.2-.7c-.3.7-.4 1.4-.4 1.4v.2c0 .1-.1.3-.1.3z"/><path d="M140.1 135.3l.2-.6c0-.1 0-.3.1-.4.1-.2.1-.5.2-.7 0-.3.2-.6.2-.9v.1h-.1v-.3-.1-1.2s-.1-.1 0-.5c-.1.1-.1.2-.2.1 0 0 0-.2-.1-.4-.1.1-.1.1-.1.4v.9c0 .3-.1.6-.1 1v.1h.1c0 .1-.1.5-.2.8v.1c-.1.4-.1.8-.1 1.1 0 .4-.2.7-.3 1.1l-.5 2.1c.1-.1.2-.2.3-.4 0 0 0-.1.1-.1l.3-.8c0-.1 0-.1.1-.1.1-.2.1-.2.1-.3v.1c0-.1 0-.1.1-.2 0 0 .3-.8.2-.9-.2-.3-.2-.3-.3 0zM82.6 78.2h.1c.3 0 .5-.2.8-.2l.6-.2.2-.1.2-.1-.3.1H84l-.9.3h.1-.1l-.2.1-.3.1zm58.6 54.5c.1-.2.1-.5.2-.7 0 0 0-.1.1-.5l-.3 1.2z"/><path d="M81.6 79.9c-.1 0-.2.1-.3.2l-.1.1h.2c.2-.1.2-.1.4-.1-.3.2-.3.2-.4.3-.1.2-.1.2-.3.3H81h-.1-.1l-.1-.1.1-.1-1.2.5c0 .1 0 .1-.2.3.3-.2.3-.2.5-.2.1-.1.3-.2.3-.3v-.1l.1-.1h.1v.1s.1 0 .1.1l-.1.1-.1.1c-.1.1-.2.1-.3.2l-.1.1c0 .1-.1.1-.2.2s-.2.1-.3.2h-.2c-.1 0-.2.1-.2.1h-.1c-.2.1-.3.2-.6.3-.2.1-.4.1-.5.3l-.2.1c-1 .9-1 .9-1.1 1.1.1 0 .2-.1.3-.1v.1c-.1 0-.1.1-.2.2h-.1c-.7.5-.7.5-.8.7.2 0 .3-.2.6-.2-.1.1-.3.2-.4.4-.7.4-1.1.7-1.8 2.2l.1.1v.2h.2.1l.1.1c0 .1-.1.1-.1.2s.1.1.2.2c0 .1-.1.2-.1.2.1 0 .4 0 .7-.3 0 0 .1-.1.1-.2 1.4-1.6 1.6-1.6 1.7-1.6h.1c.4 0 .6-.3.9-.5l.5-.5c.3-.1.3-.1 1.3-.9h.4l.3-.3h.2c-.2.2-.2.2-.2.3.3.1.5-.2.8-.3h.1c.2 0 .2 0 .3-.1.2-.2.5-.3.7-.4.1 0 .1 0 .4-.3l.2-.1s.1 0 .1-.1l.6-.4h.1s.1 0 .2.1v.1c1 0 1.7-.7 2.6-.9h.4c.3-.1.3-.1.5-.3-.1 0-.2.1-.2.1l-.4.3-.1-.1v-.1h-.2-.1v-.1l.1-.1c.1 0 .1-.1.3-.2.2 0 .4-.1.6-.1l-.3.3.1.1h.1c.3-.2 1-.2.9-.7.3-.4.3-.4.3-.5h.1v.1h.1c.1-.1.1-.1.3-.2 0 0 .1 0 .1-.1.1 0 .1-.1.2-.2-.1 0-.1 0-.4.1h-.2l.3-.2v-.1h.1.2l-.2.2h.3c.1 0 .2-.1.2-.1l.1.1c.4-.1.4-.2.4-.4H90l.5-.1c.1 0 .1 0 .2-.1h.1c.1 0 .2 0 .2-.1l-.1-.1c.1-.1.1-.1.4-.3h.2c.1-.1.1-.1.3-.2l.2-.2h-.1v-.1l.1-.1h.1c.1 0 .2-.1.4-.1 0 0 .1 0 .1.1-.3.1-.3.1-.4.3h.1c.2-.1.4-.3.6-.4h.1l.1-.1H93h-.1c.1 0 .2-.1.3-.1h.1c.1 0 .2-.1.2-.1H93c.2-.1.2-.1.3-.2l.6-.3h.1c.2-.1.2-.1.4-.1h.1s.4-.2 1.3-.4h.1-.2.3.1c.2 0 .3-.1.5-.1h.1c.2 0 .2 0 .4-.1l.1-.1h-.1-.1-.1l-.8.1H96c-.2 0-.4.1-.6.1.2-.1.5-.1.7-.2.1 0 .1 0 .2-.1.3 0 .3-.1.5-.1-.3 0-.6.1-.9.1.2 0 .2 0 .4-.1h.1-.2-.2-.1-.1c.1 0 .4-.1.6-.1h.3.1.3.4.2-.1.1.1-.1-.1-.1.1.1.3.2-.1-.3c-.2 0-.4 0-.6.1h.1.1-.2-.1-.3-.1-.1-.1-.1-.2-.1-.2-.1-.2-.1-.2-.1-.1-.1-.2.1.1.1.1.1.1-.3-.2-.1-.2-.1-.2.1.1.1.2.1.1.1.1-.2c-.1 0-.3 0-.4.1h-.1-.1-.1-.4.1.1.2.1.1.1.1.1.1.1.2-.1-.1-.1-.1-.1-.1-.1-.1-.1-.3-.1-.1-.1c-.2 0-.4 0-.6.1h.1-.2-.4-.2-.1-.1L92 76h-.1-.1-.1-.3-.1-.2-.1.1.1c-.1 0-.3 0-.4.1h-.1-.1-.1c-.1 0-.2 0-.4.1h-.2-.1-.1-.1-.1-.1-.1-.1-.1-.1-.1-.1-.1-.1-.1l-.9.3h-.1.1c-.1 0-.2.1-.3.1h-.1-.2-.1c-.1 0-.1 0-.2.1-.1 0-.2 0-.3.1h-.1c-.1 0-.1 0-.3.1h-.1-.1-.1-.1-.1-.1-.1-.1c.1 0 .2-.1.3-.1h.1.1l-.1.1-.2.1v1c-.1.1-.3.1-.4.2h-.1-.1s-.1.1-.2.1h-.1l-.1.1h-.1-.1-.1c-.1 0-.2.1-.2.1-.1 0-.2.1-.2.1l-.1.1-.1.1c-.2.2-.2.2-.5.4-.1 0-.2.1-.4.2-.1 0-.2.1-.2.1h.1c-.1 0-.2.1-.3.1h-.1c-.2.1-.3.2-.5.3z"/><path d="M86.4 77c-.3.1-.4.1-.6.2-.1 0-.2.1-.3.1h-.1-.1l-.2.1c.1 0 .2 0 .2-.1-.1 0-.1 0-.2.1.1 0 .2-.1.3-.1-.1 0-.1 0-.2.1h.1c-.3 0-.3 0-.3.1h.1l.8-.2.4-.1H86l.4-.2h.2l.5-.1.5-.1c.3-.1.6-.2.9-.2 0 0 .6-.1.7-.2h-.3-.2l.4-.1c.2 0 .4-.1.6-.1l-.3.1h-.1c.2 0 .3-.1.5-.1l.4-.1h.1l-.3.1h.1.3l.5-.1h.2l.3-.1h.2c.4-.1.8-.1 1.2-.2h.1.2.3-.3.3.2.5.6.4-.2.4.3-.2-.2.3.3.2-.6.3.1-.8.4-.3.1-.3-.4.3-.1c-.2 0-.4 0-.6.1H94h-.3-.3-.3-.1-.1-.4l-.8.1.4-.1h.3.1-.3l-.4.1h-.4c.2 0 .3 0 .5-.1h-.1.4.3c.2 0 .4 0 .5-.1h-.1c-.2 0-.5.1-.7.1h-.3-.2-.3-.1c-.1 0-.2 0-.4.1h-.1-.2l-.4.1h-.1-.1c.1-.1.3-.1.4-.1h-.1l-.3.2c-.1 0-.3.1-.4.1h-.2l-.2.1c-.2.1-.3.1-.5.1-.1 0-.3.1-.4.1l.6-.1h-.3c-.1 0-.3.1-.4.1l-.3.1-.3.1-.4.1c.2 0 .4-.1.6-.1l-.5.1-.4.1c.2-.1.4-.1.7-.2l-1.1.3h-.1V77zm7.8-1.4h.5c-.3 0-.6.1-.9.1.1 0 .2 0 .4-.1zm-2.3 19.1c.1 0 .1 0 .2-.2h.2v-.2c-.2-.1-.1-.3-.1-.3 0-.1-.1-.1-.2-.2h-.1c0 .1 0 .2-.2.3-.1.1-.1.1-.1-.7h-.3c.1-.4.2-.6-.1-.6v-.1h-.1c0-.2 0-.2-.1-.3v-.1c0-.1-.1-.4-.2-.4-.4 0-.4 0-.5-.2.2-.3.2-.3.5-.3v-.1c0-.2.3-.2.3-.3s.1-.3.1-.4h-1l.2-.3c0-.2.3-.2.4-.3 0-.1 0-.1-.1-.1h-.1-.2c-.2 0-.3-.1-.5 0 0 .2-.2.3-.2.4-.1.1-.1.3-.1.4h-.3c-.1 0 0-.1-.1-.1h-.1c-.2 0-.2.4-.2.4 0 .1.2.1.3.2l-.1.1v.1c-.1.1 0 .3-.2.3-.3 0-.3.1-.3.2v.1h.2c.1 0 .1-.1.2 0 0 .2 0 .2.1.2h.2c0-.1 0-.1.1-.2l.1.1c-.1.1 0 .3 0 .4-.1.1-.2 0-.3.2v.2h.5l.1-.1c.3.2-.1.6.2.7h.1c0 .1-.1.2-.1.3s0 .2-.1.3c-.2.1-.4-.1-.6-.1h-.1c-.1 0-.1 0-.2.1l-.1.1h-.2l-.1.1c.2.1.4 0 .5.1 0 .1 0 .1-.1.2h-.1c-.3.2-.3.2-.4.2-.1.2-.1.2 0 .4.2 0 .4-.2.6 0 .2.1.4 0 .6.1 0 .1 0 .2-.1.2 0 0-.2.1-.5 0-.1 0-.2.2-.3.2h-.3c-.1.4-.1.4-.5.5.1.1.1.1.5 0l.2-.2.2.1h.3l.1-.3c.2 0 .5 0 .7.1.2 0 .2-.2.4-.2s.2.2.4.2h.1c.2-.1.4.1.5-.1l.2-.1c.1 0 .1 0 .3-.1l.1-.1c-.1-.1-.1-.2-.1-.3v-.1c-.2-.3-.2-.4 0-.4zm3.1-5v.1.1h.3v.1l.1.2h.2c.1 0 .1.1.2.1h.1s.2 0 .2-.1c0 0 0-.1.1-.1h.2l.1-.1v-.1l.1-.1c-.6 0-1.2 0-1.8-.1h.2zm46.3 42.9c-.3.7-.4 1.5-.7 2.3v.1.1c-.2.4-.2.4-.3.8l-.1.3.7-2 .4-1.4c-.1-.1-.1-.2 0-.2z"/><path d="M85.8 77.2l.4-.1H86l-.3.1h.1zm-4.5 1.7l.5-.2v-.1l-.6.2-.5.2v.1l.4-.1.2-.1zm-7.9 4l-.5.3-.2.1.1-.1c.1 0 .1-.1.2-.1l.4-.2zm66.5 49.2c0 .1 0 .1-.1.2v.2.2s0-.1.1-.1v-.1-.4z"/><path d="M72.4 83.6l.1-.1.1-.1-.9.7.2-.2.1-.1.4-.2zm3.4-2.2l-.4.2-.7.4-.2.1.5-.3.6-.3c.3-.2.6-.3.8-.5l-.6.4z"/><path d="M71.2 84.4l-.2.3.4-.3.1-.1.5-.4v-.1l.4-.3.1-.1c.1-.1.2-.2.3-.2l-.1.1.2-.2.3-.2.4-.3.4-.2.3-.2.4-.2.6-.4h.1l.5-.3.5-.3.2-.1.4-.2.3-.1-.3.2h.1l.2-.1.5-.3h.1l-.5.3-.5.3-.4.2-.1.1-.4.4-.1.1-.4.3-.5.3-.6.4-.6.4-.5.4-.2.1.1-.1h-.1l-.5.3c-.2.1-.3.2-.5.3v.1h.1l.3-.2.2-.1v.1l-.1.2-.5.5-.3.3-.3.3h.1l-.4.5.2.1h-.5l.3-.3.4-.6.2-.3.3-.3-.1.4-.3.5-.1.3c.2-.1.3-.3.5-.4l.5-.3.1-.2.7-.5.1-.2.7-.7.3-.2.3-.2-.6.6-.4.4v.1l.6-.5.4-.1.3-.2h.1l.3-.2.4-.3h-.2c.1-.1.2-.1.2-.2l.3-.3.1-.2h-.1l.3-.2.3-.2h-.1c.2-.1.3-.2.5-.3h.1l.3-.1.1-.1.2-.1h.1l.3-.2.1-.1.4-.2.2-.1h-.1l.3-.1.3-.1.1-.1-.3.1.5-.3.3-.1.4-.2.2-.1h-.1l-.3.1h-.1l.1-.1-.4.2h-.1l.5-.2.4-.2.6-.3.5-.2-.4.2-.3.1-.6-.2-.5.3-.4.2-.7.3h-.1l.6-.3.8-.4.5-.2.6-.2.5-.2h-.1l-.7.3-.8.3-1.4.6h-.1l-.3.3-.2.1-.3.2.1-.1-.3.2-.3.2-.2.1-.4.2-.3.2-.8.5-2.5 1.6-.6.4c-.3.2-.5.4-.8.6l-.2.1-.4.3-.3.3.1-.1.2-.4zm12.9 1.1h.2.5.2c.2 0 .2 0 .1.2 0 0 0 .2.3.2h.4c.1-.1.1-.1.4-.3l.3-.2c.1 0 .2 0 .3-.1s.2-.1.4-.2h.7c.1-.1.1-.2.2-.4v-.2c-.1-.1-.1-.1-.3-.1.3-.4.3-.4.4-.6h-.4-.1c-.2.1-.4.2-.7.3-.1 0-.2-.1-.2-.1h-.3c-.2 0-.5.2-.7.2h-.3c0-.1.1-.1.1-.2s.1-.1.1-.2v-.2h-.2c0 .1-.1.1-.1.2 0 0-.7-.4-1.1.4.1 0 .2-.1.3-.1h.2l.1.2c0 .1-.1.1-.2.2-.3-.1-.6-.1-.7 0 0 .1-.1.2-.2.3h.2.3c-.1.1-.2.2-.3.4l.1.3zm4 8.1c0-.2.1-.3.1-.5 0-.1 0-.1.1-.2.2 0 .3-.1.3-.2 0 0 .1-.2 0-.3s.1-.2 0-.3l-.1-.1h-.1-.1c-.1 0-.3.1-.3.1s0 .1-.1.1c0 0-.1 0-.1.1l-.1-.1s0-.1-.1-.1h-.3c-.1.2-.2.4-.2.6-.1 0-.1.1-.2 0-.1 0-.2 0-.2.1l-.1-.1h-.1l-.3.8h.4c0 .1-.1.2-.1.4-.3 0-.3 0-.4.2-.1.1 0 .2-.1.2 0 .1-.1 0-.1.1v.1s-.1.1 0 .2.2.1.3.1c.1-.1.3 0 .4 0s.3-.1.3-.1l.1-.1c0-.1.1-.1.1-.1h.9v-.2c0-.1-.1-.2 0-.2 0-.1.1 0 .1-.1-.1-.1-.1-.1 0-.4zm.6-3.4l.2-.2h.2v-.1l.1-.1c0-.1.1-.1.1-.2l-.2.1c-.1 0-.1.1-.2.1h-.1l-.1.1c-.1.1-.2.1-.2.2 0 0 0 .1-.1.1l.1.1c.1-.1.1-.1.2-.1z"/><path d="M75.7 81.8c-.1 0-.1 0-.7.3l-.4.3v.1l.2-.1.5-.3.4-.3z"/></g><path d="M98.4 170.8c-1.4 0-2.8-.1-4.3-.2-13.6-1.1-25.9-7.5-34.7-17.9s-13.1-23.6-11.9-37.1S55 89.8 65.4 81 89 67.9 102.5 69.1c13.6 1.1 25.9 7.5 34.7 17.9s13.1 23.6 11.9 37.1c-1.1 13.5-7.5 25.9-17.9 34.7-9.2 7.8-20.7 12-32.8 12zm-.1-100.1c-11.6 0-22.7 4.1-31.7 11.7-10 8.5-16.2 20.4-17.2 33.5s3 25.8 11.5 35.8 20.4 16.2 33.5 17.2c13.1 1.1 25.8-3 35.8-11.5s16.2-20.4 17.2-33.5c1.1-13.1-3-25.8-11.5-35.8S115.5 72 102.4 70.9c-1.4-.2-2.7-.2-4.1-.2z" fill="#dfde46"/><g fill="#fff"><path d="M173.1 69.1c.7 0 1.2 1.7 1.4 5 .5 2.7.7 6.6.7 11.6V91c0 4.8.2 8.1.7 9.9l.4 3.9c0 1.6-.3 2.8-.8 3.6l-.4.2-2.9-.1h-2c-1 .3-2.2.5-3.5.5h-.2c-1.9 0-3-.2-3.3-.7-.1-.4-.2-.8-.2-1.1l.9-10.6.4-2.4-.9.1-3.7-.1H157c-.9 0-1.4-.6-1.6-1.9 0-.8.2-2.5.7-5 .2-1.3.5-3.3 1.1-6v-1c0-.8.3-1.3.9-1.4.1 0 .2.1.5.3 1.6-1 4.3-3 8.1-6 2.7-1.8 4.7-3.1 5.9-4.1.1.1.3 0 .5 0zm-9.2 21h-3.5-2.6v.1c2 .4 3.4.6 4.1.6.2.2.8.4 1.7.5v-.5c.1-.2.2-.4.3-.7zm-4.1-8l.2 2.3v1.3l6.2-2.6c1.1-.4 1.8-.6 2-.6.5 0 .8 1.2.9 3.7l.1 5.8v1.7c0 4.9-.3 8.5-1 10.8l2-.3h3.1l1.3.1c-.7-4.8-1-7.7-1-8.7l-.1-2.9v-6.8c0-4.9-.3-9-.8-12.3l-.1-.9c-.8.7-2.8 2-5.9 4.1-2.8 2.3-5.2 4.1-6.9 5.3zm5.1 4.9c.2.1.6-.1 1.3-.3l.3.1v-.5l-1.6.7zm.4 15.7l-.1.9.2-.2-.1-.7zm1-7.6c-.4 2.1-.6 4-.6 5.6v.1c0-.8.5-1.4 1.6-1.7-.8 0-1.2-.5-1.2-1.5 0-.9.6-1.6 1.7-2.2h-.1c-.3-.1-.7-.2-1.4-.3zm.3-5.6l-.1 1.8c0 .5.3.8.8.9l-.1-.1v-.7c0-.2 0-.4.1-.5-.2 0-.5-.5-.7-1.4zM190 72.8h.4c2.1 0 5.4.4 9.8 1.3 3 1 5 2.3 6 4.1 1.6 2.8 2.4 5.8 2.4 8.9 0 4.1-1.1 8.1-3.4 12.1s-4.5 6.2-6.9 6.8c-1.8.7-3.8 1.1-6 1.1h-.7c-5.8 0-9.7-2.1-11.6-6.3-.9-1.5-1.3-3.7-1.3-6.5V94c0-8.1 1.5-14 4.5-17.6 1.1-1.2 2.1-1.9 2.9-2.2.1-.7 1.4-1.2 3.9-1.4zm-9.2 22c0 3.5 2 5.9 5.9 7.1 1.8.4 3.7.6 5.7.6 4.6 0 7.9-1.4 9.9-4.1 3.1-4.2 4.6-7.9 4.6-11.2 0-3.1-1.1-5.7-3.2-7.7-1.7-1.2-4-2-7-2.3-2.9-.5-4.9-.7-6-.7h-.6c-1.4 0-2.1.2-2.1.6 0 .2-.6.6-1.8 1-3.6 1.9-5.4 7.5-5.4 16.7zm11.8-14.1c.9 0 1.6.4 2.2 1.3l.3-.1c1.4 0 2.6.7 3.7 2.2.7 1.3 1 2.5 1 3.8 0 1-.3 2.6-1 4.8-.6 1.2-1.7 2.1-3.2 2.7-1.2.5-2.2.7-2.9.7-1.6-.2-2.8-.4-3.5-.7-1.8-1.1-2.7-2.8-2.7-5.1v-.2c0-2.1.8-4.5 2.5-7.1 1.1-1.5 2.3-2.2 3.6-2.3zm-3 9.6c0 .4.1.8.4 1 .8 0 2-.7 3.5-2.1.4-.7.6-1.5.6-2.6l-.1-.8c-1.1.3-2.5 1.6-4.3 4.1l-.1.4zm5.2 3.8c.1-.6.3-1.1.4-1.3-.8.8-1.4 1.1-1.9.8-.6-.4-.7-.9-.3-1.6-.6.8-1.1.8-1.5-.1l-.1.5c.5 1.6 1.7 2.3 3.4 1.7zm-2.8-9.7l1.6.1h.1v-.1h-.1c0-.1-.5-.2-1.5-.5l-.1.5zm.4-2.1l.4.1.9-.3-.8-.1c-.2.1-.4.2-.5.3zm3.7 21.1l1.7.3 3.2-.2c-1 0-2.3-.1-3.8-.3l-1.1.2zm4.8-1.7l1.7.1.3-.6c-.8.3-1.5.4-2 .5z"/></g><path fill-rule="evenodd" d="M144.7 36v30.6l-1.4 1.1V35.4" fill="#dfde46"/><path d="M105.1 0h-11v13.1h11V0z" fill="#fff"/><path fill-rule="evenodd" d="M51.5 13.1l9.1 25 33.9 3.4-5.2.5-29.8-2.8-8.7-24.3" fill="#dfde46"/><g fill="#fff"><path d="M105.3 37h-11v5.8h11V37zm0 26h-11v6.2h11V63z"/><g fill-rule="evenodd"><path d="M104.3 40.8l-41.7-4.5-9.2-25.2L67.8 0l60.7 21.6-.1 14.1-20 3.3M74.5 8.8c-.1-.7-.3-1-.7-1.2l-1-.3c-.4-.1-.6 0-.8.7l-4.7 21.2c-.2.7 0 1.2.4 1.2l.9.2c.8.1 1 0 1.2-.8l.9-4.3 5 1 .8 4.4c.1.8.4 1 1.1 1.2l.9.2c.4.1.5-.3.4-1L74.5 8.8zm.6 14.2l-3.7-.9 1.4-6.8c.3-1.4.4-2.7.4-4h.1v.6l.4 3.6 1.4 7.5zm12.2-10.9c-.4-.1-.5.1-.5.9v9.5l.3 6.3H87s-.6-3.3-1.3-5.5l-3.8-12.4c-.1-.4-.3-.6-.5-.7l-.9-.3c-.4-.1-.6.1-.6.9v20.7c0 .8.2 1.1.6 1.2l.9.2c.4.1.5-.2.5-1v-10c0-2.7-.4-6.5-.4-6.4h.1c0-.1.6 3.6 1.3 5.7l3.8 12.1c.1.4.3.6.5.6l.8.1c.4.1.5-.2.5-.9V13.6c0-.8-.1-1.1-.5-1.2l-.7-.3zm3 14.9c0 4.9 1.5 8.1 4 8.5 2.4.4 3.7-2.1 3.7-6.8v-6.2c0-4.6-1.3-7.8-3.7-8.6-2.5-.8-4 1.6-4 6.5V27zm6 1.4c0 2.6-.7 4-2.1 3.7S92 30.2 92 27.4v-6.5c0-2.8.8-4 2.2-3.6s2.1 2.1 2.1 4.7v6.4zM99 16c-.3-.1-.4.1-.4.8v1.4c0 .7.1 1 .4 1.1l2.1.6v15.4c0 .7.1 1 .4 1l.7.1c.3.1.4-.2.4-.9V20.3l2 .6c.3.1.4-.1.4-.8v-1.3c0-.7-.1-.9-.4-1L99 16zm11.9 3.8c-.3-.1-.4.1-.4.8v6.6l-3.1-.8v-6.8c0-.7-.1-.9-.4-1l-.6-.2c-.3-.1-.4.1-.4.8v17.1c0 .7.1.9.4 1l.6.1c.3 0 .4-.2.4-.8v-7l3.1.8V37c0 .6.1.9.4.9l.6.1c.3 0 .4-.2.4-.8V21c0-.6-.1-.9-.4-1l-.6-.2zm2.6.9c-.2-.1-.3.1-.3.7v16c0 .6.1.9.3.9l3.9.7c.2 0 .3-.2.3-.8V37c0-.6-.1-.8-.3-.9l-3-.6V31l2.5.6c.2.1.3-.1.3-.7v-1.2c0-.6-.1-.8-.3-.9l-2.5-.7v-4.3l2.9.9c.2.1.3-.1.3-.7v-1.2c0-.6-.1-.8-.3-.9l-3.8-1.2zm5.5 1.8c-.2-.1-.3.1-.3.7v15.3c0 .6.1.8.3.9l.5.1c.2 0 .3-.2.3-.8v-5.6l.6.2c.6.1.8.5 1 1.9l.7 4.1c.1.6.2.7.6.8l.5.1c.2 0 .2-.2.1-.7l-.9-5c-.1-.5-.2-.8-.3-1.1.7-.5 1.1-2 1.1-4.3 0-3.1-.7-5.2-1.9-5.6l-2.3-1zm2.9 7.8c-.2.4-.4.5-.7.5l-1.5-.4v-4.9l1.5.5c.3.1.5.4.7.8.2.5.2 1.1.2 1.8s0 1.3-.2 1.7z"/><path d="M85.6 42.4l55.4-8.6v33.6l-55.4-1.9m19.2-22.2c-.6.1-.8.3-.9.9l-1.6 10a21.59 21.59 0 0 0-.3 3.5h-.1c0-1.1-.2-2.3-.4-3.5l-1.9-9.4c-.1-.6-.3-.7-.9-.6l-1 .1c-.5.1-.7.2-.8.9L95 54.6c-.2 1.1-.3 2.2-.4 3.3h-.1l-.3-3.3-1.5-8.9c-.1-.6-.3-.7-.8-.6l-1.2.2c-.4.1-.5.3-.4.8l2.9 15.3c.1.5.3.7.8.7h1c.5 0 .7-.1.8-.7l2-10a14.87 14.87 0 0 0 .3-2.8h.1a13.33 13.33 0 0 0 .3 2.8l2 10.1c.1.5.3.7.8.7h1.1c.5 0 .7-.1.8-.7l3.3-17.6c.1-.6 0-.9-.4-.8l-1.3.2zm11.8-1c-.2-.6-.4-.7-.9-.7l-1.2.2c-.5.1-.7.3-.9.9l-5.2 18.8c-.2.6 0 .9.5.9h.9c.9 0 1.1-.1 1.3-.8l1-3.7 6-.1 1 3.9c.2.7.5.9 1.4 1h1.2c.5 0 .7-.3.5-1l-5.6-19.4zm.7 12.6l-4.5.2 1.6-6.3c.3-1.3.5-2.5.5-3.6h.2v.5c.1.7.2 2 .5 3l1.7 6.2zM136 38.5c-1.1.2-1.3.3-1.7 1.3l-3.9 9.6-3.8-8.4c-.4-.8-.6-.9-1.6-.7l-1.6.3c-.6.1-.7.6-.4 1.1l5.8 12.1V62c0 .8.2 1.1.8 1.1h1.4c.6 0 .8-.3.8-1.1v-8.3l6.2-14.3c.3-.7.2-1.2-.4-1.1l-1.6.2z"/></g><path d="M33.5 170.3h-9.9V85.4L6 100.3l-6-6.9 24.7-20.3h8.8v97.2z"/></g><path d="M38.2 168.1l-1.8 2.2.5-93.8 1.8 2.2-.5 89.4z" fill="#dfde46"/><g fill="#e0df46"><path d="M75.2 199.8c-.1.2-.8 1.3-.9 1.5-.2.2-.4.7-.6 1l-.5.5c-.3.3-.5.5-.8.7s-1.8.7-2.2.8-.8.2-1.4.2c-.6-.1-1.1 0-1.2 0s-1.1-.4-1.1-.4l-.3.8-.7 1.8-.5 1.8-.2 1-.4 1.3-.2.4s-1.3.1-1.6 0l-1.3-.4c-.1-.1-.1-.8-.1-.8l.9-2.3.5-1.5.6-1.8.3-1 .1-.7.4-1.7.4-1.8.6-1.9.7-2.1.1-.6.1-.4.2-.4.3-1.3.1-.5.1-.4.3-.2.4-.2.8-.1a2.27 2.27 0 0 1 .4.1l.2-.1h.5l.3.1.3.1s1.2 0 1.7.1c.4.1 2 .8 2.3 1.2l1.1 1s.5.6.6.8c0 0 .7 1.3.5 2.7l-.8 2.7zm-2-4.4v-.3l-.2-.3-.1-.2-.2-.1-.3-.1-.4-.1-.6-.2-.3-.1-1-.1-.3.6-.2.7-.5 1.4-.8 2.2-.7 1.9-.3 1-.1.4.9.2.6-.1.9-.4.6-.4.6-.6.4-.5.5-1.2.5-1.3.2-.7.2-.6.2-.3c.1-.1.3-.7.4-.8zm16.4 6.8c-.1.1-.3 1.3-.4 1.4s-.2 1.1-.3 1.4c-.1.4-.2.9-.2 1.1l-.2.6-.7 2.1-.8 2.1c0 .1-.2 1.1-.3 1.2s-.2.4-.2.5-.2.3-.2.3l-.2.2c0 .1-.2.5-.3.6 0 .1-.2.5-.4.5s-2.2 1-2.2 1-2.1.5-3.2.4c-1-.1-1.9-.6-2-.6-.1-.1-.8-.6-.8-.6l-.8-.9-.7-1.6c0-.3-.2-1.2-.2-1.3 0-.2-.1-1.2 0-1.4 0-.2.2-.8.2-.9v-.8c.1-.3.2-.5.3-.9v-.7l.2-1.5.1-.6v-.5l.1-.4-.1-.2v-.8l.4-.3.5-2.2c.1-.6.8-2.2 1.3-2.7.5-.4 1.1-1.1 1.1-1.1l.3-.4 1.2-.6.3.1.4-.1 1.9-.3c.4.1.9.1.9.2h.4s1.3.7 1.7.8l.9.5 1.2.8c0 .1.7.8.8 1.1.1.4 0 1.2 0 1.2l-.1.9v1.3c.3-.4.1 1 .1 1.1zm-3.9.9l.2-1 .1-1.1-.1-.1-.1-.6c-.1 0-.2-.8-.2-.8l-.2-.3s-.1-.3-.1-.4l-.7-.7-.7-.6c-.1 0-.2-.1-.2-.1l-.1.1-.3.1s-.2.1-.2.2h.1l.2.2.1.1c0 .1-.1.1-.1.1l-.3.1h-.3l-.3.2-.4.2v.1l.2.2h.2l.1.1v.1s-.2.1-.3.1h-.1l-.3-.1h-.2l-.2.1-.2.1-.3.2-.3.3-.2.4s-.2.5-.3.6c0 .1-.4 1.1-.5 1.6l-.6 3.3c-.1.5-.2 1.9-.2 2.2l.1 2.5c0 .3.2 1.1.2 1.2l.7.9s.4.5.4.6.6.2.9.2c.3-.1 1-.8 1-.8l.9-1.3.9-1.7.6-1.9.2-.9.3-1.6.6-2.1zm6.6-7.7c1.1.1 1.7.6 1.7.6l.7.5s.3.6.3.8c0 .3.4 1.4.3 1.6 0 .1-.3 3-.3 3l.3 2.4.4 3.5.4 2.7.1 1.7.1.8.2-.5.2-1.4.5-2.5.6-3.2.4-.8-.4-.7.1-.6.1-.8.1-.5c0-.1.3-.3.4-.3.1-.1.6-.1.6-.1l.6.1-.1.6.6.2s.9.9.9 1.1.2 1.1.2 1.1l.5 1.8.5 1.3.4 2 .3 1.5.3 1.8.2.8.2.4.2.5s.2-.8.1-.9c-.1-.2.1-1.4.1-1.6s.1-.5 0-.8c0-.2-.2-1.2-.2-1.2v-1.4c0-.3-.3-3-.3-3l.4-4.2.3-2s-1-4.4.5-4.6c1.6-.2 2.2.1 2.2.1l.5 1.2-.1.6-.2.5.1 5.5-.2 3.2-.1 2.7v3.5l-.1 1.6v.9l-.2.4c-.1.2-.4.4-.4.4l-.4.5-.7.5-.6.6-.3.2s-.2.1-.4.1c-.1 0-.6-.1-.6-.1l-.5-.4c-.2-.1-.6-.4-.6-.4l-.1-.5-1.1-2.6-.2-.8-.8-1.6-.4-1.7-.2 1.2-.1 2-.3 1.7s.1 1.3-.4 1.7c-.5.3-1.9 1.2-2.6 1.3l-1.1.2c-.1 0-.6-.1-.6-.1s-.1-.2-.2-.3-.2-.5-.3-.6c0-.2-.5-2.6-.5-2.6l-1.3-9.3-.3-1.9-.3-3.6-.2-2.3c0-.4 0-1.5 1.1-1.5zm17.5-.3c.2 0 .9-.1 1-.2.1 0 .3 0 .5-.1l1-.5s.6-.4.8-.4h.7c.1 0 1-.3 1-.3s.4-.1.6-.1 1.1-.3 1.3-.3c.2-.1 1.4-.5 1.5-.5 0 0 .8.1 1.1.2s.9.5 1 .8c.1.2.2.7.2.8s.1 1.1.1 1.4c0 .2 0 .5-.2.6s-.5.3-.5.4l-.9.3s-1.2.5-1.4.7c-.3.1-.5.2-.5.2-.1 0-.7.1-.7.1l-.8.1h-1.4c-.2 0-.5-.1-.5-.1s-.1.2-.1.3.3.9.3 1 .3 1.3.3 1.3l.2.6.2.8.2 1.1.1.7 1.3-.6 1.3-.7c.2 0 2.2-.4 2.2-.4.1 0 .8-.1.8-.1l.6.1.6.4s.5.5.5.9c.1.4-.1.8-.1.8l-.3.5s0 .4-.2.5-1.7.6-1.8.6-1.8.6-1.8.6l-1.8.7c-.1 0-.5.1-.5.1h-.6v.4l.1 1.6.1 1.1.1 1.1.2.9.3.8h.2l1.2-.6.9-.3 1.2-.4.5-.2h.4l.9-.2.5-.1.5-.1.3.2.8.4.1.3.1.2v.3l-.1.3v.3l-.1.2-.2.2-.8.2c-.1 0-.3.1-.3.1l-.5.1-2.1.7-1 .3-1.5.4-1.2.2-.6-.1-.5-.2-.4-.3v-.2h-.1l-.5-.1-.2-.1-.3-.9-.5-1.6-.2-.7-.2-.8-.2-.7-.3-.7-.2-.5-.7-2-.4-1.1-.1-.8-.1-.6-.1-.7-.1-1.1-.4-1.7-.1-1-.3-1.4-.1-.4-.1-.5-.1-.8v-.4l.1-.2.1-.2.2-.2.1-.2c-.1 0 .2-.5.4-.5zm31.9 10.2c0 .1.3 1.1.2 1.2v.5c0 .1-.2.4-.2.5-.1 0-.8.6-1 .7s-.5.4-.7.5c-.3.1-.6.2-.9.1-.3 0-.7-.3-.9-.5-.2-.1-1.3-.5-1.7-1-.4-.4-2.5-2.8-2.5-2.8l-1.9-2.2-.8-.8-.3-.3-.5.3-.4.3-.3.1-.1.1.2 1 1.3 2.6 1 1.8.2.7-.2.2s-.3.2-.2.2.2.7.2.7l-.1.4-.2.5-.5.4-.7.3-.9-.2-.4-.2c0-.1-.3-.9-.4-1 0-.1-.6-1.3-.6-1.3l-1.3-2.9-1-2.5-.8-1.2-1.2-2.9-.6-2.2-.6-1.1-.3-.9-.2-.9v-.5l-.2-.4.1-.4s.9-.9 1.1-.9c.1 0 1.3-.4 1.9-.6l3-.9c.4-.1 3.1-.3 4.2.9s1.4 1.7 1.6 2.3c.2.5.4 1.1.3 1.2l.1.7.1 1c0 .1-.1.7-.1 1 0 .2-.1.5-.1.6 0 0-.5.9-.6.9s-.2.6-.2.6l-.2.4s-.2.1-.1.2c0 .1.2.5.3.5s.7.3.7.3l.6.4 1.1 1.2s1.4 1.6 1.9 1.7c.5.2 2.4.6 2.4.6s.3 0 .3.1.1.3.1.5c0 .1-.1.3.1.2.2 0 .6-.2.7-.2a.76.76 0 0 1 .2.4zM129 193.1c-.7-.4-1.4-.3-1.7-.3-.3.1-1.1.3-1.1.3l.6 1.8.9 1.7.6 1.7.7 1.9c.2 0 .4-.1.4-.1l.6-.8c.1-.1.6-1.9.6-2.1s-.1-1.8-.3-2.4c-.1-.4-.6-1.3-1.3-1.7zm25.9-10.2c0 .1.6 1.2.7 1.3 0 .2.6.9.8 1.2l.6.9.3.6.9 2 .9 2s.6.9.6 1.1c0 .1.2.4.2.5a2.27 2.27 0 0 0 .1.4v.3c0 .1.2.5.2.6s.1.5 0 .6-.9 2.3-.9 2.3-1.2 1.8-2 2.5c-.8.6-1.8.9-1.9.9-.2 0-1 .1-1 .1l-1.2-.1-1.6-.7c-.2-.2-.9-.7-1-.9l-1-1c-.1-.2-.4-.7-.5-.8s-.4-.3-.5-.6c-.2-.3-.2-.5-.4-.8l-.5-.6-.9-1.3-.3-.5-.4-.4-.2-.4-.2-.1-.6-.6.1-.4-1.2-2c-.3-.5-.9-2.2-.9-2.9.1-.7 0-1.5 0-1.5l-.1-.5.5-1.3.3-.2.2-.4s.9-1.3 1.2-1.5.7-.5.8-.5l.3-.3 1.8-.6 1-.3s1.3-.2 1.4-.3c.1 0 1 .1 1.3.3s.9.8.9.8l.5.7.9.9c-.1.3.8 1.5.8 1.5zm-2.2 3.4l-.5-.8-.7-.9h-.2s-.4-.4-.5-.4-.7-.5-.7-.5l-.4-.1s-.3-.1-.3-.2h-1l-.9.1c-.1 0-.2.1-.2.1v.2l-.1.3s-.1.3 0 .3h.1.2.2v.2l-.1.3-.2.2-.1.4-.1.4.1.1h.3s.1-.1.2-.1h.2l.1.1s-.1.2-.2.2h-.1l-.3.1-.1.1-.1.2-.1.2-.1.4v.4l.1.4s.2.5.2.6.5 1.1.7 1.5c.3.4 1.5 2.3 1.8 2.8s1.2 1.5 1.3 1.7l1.8 1.7c.2.2 1 .6 1 .7l1.2.2.7.1c.1 0 .6-.3.8-.5.1-.2.2-1.2.2-1.2l-.3-1.5-.5-1.8-.8-1.8-.5-.8-.8-1.3-1.3-2.1z"/><path d="M161.6 186.8l-1.1-1-1-1-.8-.7-1.1-1-1.2-1.2-.5-.4s-.6-.6-.7-.6l-.9-1c-.1-.1-.6-.9-.7-1l-.4-.8c-.1-.2.1-1.1.1-1.3.1-.3.4-.5.4-.5l.4-.3.2-.2.1-.2.4-.6.5-.7 1.1-1.3.5-.7 2.2-2.4c.2-.3.7-.4.7-.4h.6l.4.1.2.2v.3l.4.2.3.5.1.4-.1.3-.1.4-.1.6-.6.9-1.6 1.8-1.4 1.4.2.2.4.7.9 1.4.7.9.3.3.3.3.7.4.2.2.4.1h.2l.3-.1.1-.2.1-.2.3-.3v-.2l.1-.2.1-.1h.2l.1-.4.2-.3.3-.3.3-.2.1-.3.2-.2.3-.5.4-.3.6-.2.3-.4.8-.1.5.1.4.3.3.1.3.3.4.3.2.4v.3l-.2.1-.1.3-.2.3-.4.5-1.6 1.8-.3.2-.4.3-.6.5-.2.2-.3.2-.1.3-.6.9.1.2 1 .9.7.7 1.7 2.3.5.7.1.2a2.27 2.27 0 0 0 .1.4c0 .1-.2.6-.2.6l-.2.5-.4.8v.2l-.2.3-.2.2-.3.1-.1.1s-.2.1-.3.1-.8-.4-.8-.4l-.9-.6-.4-.6-.5-.6-.6-.5-.6-.9-.6-.6-.4-1.3zm6.2-24.1s0 .2-.1.2-.2-.1-.3-.2c-.1 0-.1-.2-.1-.2l-.2-.3-.1-.3c.1-.1.2-.3.2-.3l.1-.2.1-.3.2-.4 1.3-2.8.9-2 1.3-2.4.8-1.2.8-.2h.3l.2.2a.76.76 0 0 1 .2.4c0 .1.1.3.1.3s.2.1.2.2.2.1.1.3v.3c-.1.1-.4.6-.4.6-.1.1-.8 1.3-.8 1.3l-.7 1.1s-.1.1 0 .2.4.2.4.2l.9.6 1.3 1.2 1.9 1.5 2.8 1.8 3.6 2.5 1.9 1.2 1.7 1s.1.2.3.2c.1.1.3.4.3.4v.3s.2.3.1.4c0 .1.1.3 0 .4s-.1.5-.2.5c-.1.1-.5.2-.5.2l-.8-.2-3.3-2-4.1-2.6-2.8-1.5-4.7-3.2h-.6l-.4 1-1.3 1.7c-.2.3-.5.4-.5.4l-.4-.1.3-.2zm5.9-12.6l.4-.9c0-.1.2-.2.2-.4s.1-1.1.1-1.1 0-.7.2-.9c.1-.2.4-.5.4-.5 0-.1.3-1 .3-1l.3-.6c.1-.2.5-1.1.5-1.3s.4-1.4.5-1.5c0 0 .5-.6.8-.8s.9-.4 1.2-.4c.2 0 .7.2.8.3.1 0 1 .6 1.1.7s.4.3.4.5v.6l-.3.8-.3 1.6c-.1.3-.1.5-.1.5 0 .1-.3.6-.3.6l-.4.7-.8 1.1c-.1.2-.4.4-.4.4a1.44 1.44 0 0 0 .2.3c.1 0 .9.3 1 .3s1.2.5 1.2.5l.6.2.7.3 1 .5.7.3.3-1.4s.1-1.2.2-1.4l1-2.1c.1-.1.4-.7.4-.7l.4-.5.7-.3s.7-.1 1 .1a3.03 3.03 0 0 1 .7.5l.2.5s.3.3.3.5-.6 1.7-.6 1.8-.5 1.9-.5 1.9l-.5 1.9c0 .1-.3.5-.3.5l-.3.5.3.2 1.4.9 1 .5 1 .5.9.4.8.2.1-.2.2-1.3.3-.9.4-1.2.1-.5.2-.3.4-.9.2-.5.2-.4.3-.1.7-.4h.3l.2.1.2.2.2.2s.2.1.2.2l.1.2v.2s-.2.7-.3.7c0 .1-.1.3-.1.3l-.2.5-.6 2.1-.4.9-.5 1.5-.5 1.1-.4.4-.5.3-.5.1-.1-.1-.1.1s-.3.4-.4.4l-.2.1-.9-.3-1.6-.5-.7-.3-.8-.3-.7-.3-.7-.2-.5-.1-2-.6-1.1-.3-.7-.3-.6-.3-.6-.3-1-.6-1.6-.6-.9-.5-1.3-.6-.3-.1-.5-.2-.7-.3-.3-.3-.1-.1-.1-.1-.1-.3-.1-.2c.1.4-.1-.2 0-.4z"/><path d="M194.5 135.8l-2.8-.8-1.6-.5-2.5-1.2-1.8-.2-2.6-.8-1.4-.4-.7-.4-.5-1.3.2-.8.3-.6.5-.3.4-.1.3-.4.4.1.4.1.2.3.2.1h.3l.3.1.5.3.3.1 3.3 1.1 2.4.6 3.4 1.1 2.2.7 1.5.2.6.2.9.4.8.4.4.3.5.3.3.7a2.27 2.27 0 0 0 .1.4v.7.4l.1.4-.3.3-.4-.1-.8.4-1.9.4-2.5.5-2.4.1-1.8.2-1 .3 1.6.6 2.2.5 1 .2 2.6.6 1.1.3.6.2.2.3.2.6.1.5.1.4s0 .4-.1.5c0 .1-.2.2-.4.2-.3 0-.8-.1-1-.3-.3-.2-.8-.4-.8-.4l-1.3-.2-3.3-.5-2.4-.6-5.6-1.8-2-.6-1.5-.5-.3-1 .1-.3.3-1 .2-.2.2-.1.4-.2h.3l2.2-.2 1.6-.2h2.4l1.8-.1 1.1-.2 2.1-.1 2.2.2c-.5.5-1.7.1-1.7.1z"/></g></g><defs><clipPath id="A"><path fill="#fff" d="M0 0h208.8v217.2H0z"/></clipPath></defs></svg>