<svg width="229" height="211" viewBox="0 0 229 211" fill="none" xmlns="http://www.w3.org/2000/svg">
<path d="M76.4314 5.38796C56.607 17.6635 37.7188 31.1856 19.9475 45.8448C14.503 50.339 8.15357 54.9892 5.82159 61.6112C5.08337 63.7122 5.13576 65.8118 6.64497 67.6424C8.04239 69.3375 10.537 70.3939 12.8643 70.0285C30.0326 67.3433 46.8607 62.5542 62.6106 55.7686C78.3606 48.983 93.2656 40.2772 106.477 29.8422C114.443 23.5472 121.973 16.7008 131.014 11.6658L122.973 1.89891C106.609 12.4289 90.5126 23.3069 74.7081 34.5286C58.9577 45.7114 43.4893 57.2276 28.3231 69.065C19.7685 75.7435 11.3113 82.5255 2.9542 89.4056C0.801977 91.176 -0.517534 94.0075 0.78712 96.6008C2.09177 99.1941 4.79893 100.657 7.85504 100.346C28.2642 98.2746 47.241 90.6474 64.7122 81.1182C82.1835 71.589 98.2256 59.7697 114.681 48.7249C124.312 42.2606 134.154 36.0298 144.561 30.6383L143.078 31.4071C146.544 29.6174 150.068 27.9228 153.66 26.3473L147.105 15.806C132.386 27.5698 117.656 39.3232 102.544 50.6646C87.4648 61.9792 71.9961 72.8794 55.8384 82.8794C46.7512 88.5059 37.4446 93.8362 27.8977 98.7896L29.3807 98.0208C25.2199 100.173 20.9796 102.182 16.7983 104.3C14.4303 105.497 12.0581 106.72 9.82181 108.12C7.46249 109.599 5.38956 111.307 3.38111 113.159C1.75992 114.656 1.62956 117.408 2.45353 119.247C3.37423 121.302 5.4118 122.66 7.78757 122.995C19.9362 124.716 32.0432 121.261 42.9952 116.721C54.4674 111.963 65.6294 106.49 76.701 101.009C99.8095 89.5698 122.358 77.1868 144.2 63.8445C156.331 56.432 168.248 48.7258 179.939 40.7403L170.661 32.0751C161.964 42.0697 152.56 51.5348 142.574 60.4657L143.814 59.3584C133.686 68.3937 122.985 76.8778 111.821 84.8203C100.658 92.7629 88.9595 100.229 76.9674 107.164C70.2015 111.079 63.3192 114.836 56.3514 118.448L57.8344 117.679C45.8741 123.865 33.6546 129.621 21.2298 134.987C17.7256 136.497 14.2045 137.981 10.6779 139.429C7.62505 140.682 5.93567 143.656 6.80775 146.64C7.67983 149.623 10.7207 151.306 14.0931 151.143C28.2364 150.457 41.9826 146.525 55.1369 141.955C68.2911 137.386 80.306 132.677 92.6005 127.454C105.281 122.067 117.704 116.216 129.865 109.908C141.543 103.846 152.936 97.3157 163.914 90.2358C174.893 83.156 185.515 75.4762 195.539 67.2357C196.794 66.2069 198.041 65.1622 199.276 64.1127L189.096 56.8629C188.602 57.6868 188.094 58.5116 187.576 59.326L188.484 57.913C183.76 65.2 177.787 71.7167 171.177 77.6312L172.417 76.5239C164.593 83.4894 155.95 89.6174 147.116 95.4668C138.282 101.316 128.53 107.317 118.904 112.776C113.515 115.835 108.066 118.791 102.552 121.649L104.035 120.88C93.9825 126.083 83.7192 130.907 73.3294 135.518C63.0297 140.089 52.6648 144.55 42.5766 149.514C36.4571 152.524 30.4241 155.693 24.5885 159.143C22.2119 160.549 21.2535 164.016 22.4215 166.339C22.9084 167.3 23.5961 168.14 24.4763 168.829C25.8939 169.942 27.7163 170.125 29.4894 170.083C43.0876 169.764 56.3968 166.896 69.3752 163.359C82.3064 159.829 95.1321 155.803 107.736 151.406C120.34 147.01 133.601 141.448 145.714 134.896C156.998 128.795 167.668 121.802 178.311 114.819C188.955 107.836 199.498 100.9 210.693 94.7848C212.116 94.006 213.551 93.2455 214.991 92.493L213.508 93.2618C215.51 92.2288 217.53 91.2222 219.564 90.2475C216.967 87.1055 214.373 83.9578 211.776 80.8158C207.933 84.3615 204.067 87.8784 200.163 91.3675L201.403 90.2602C182.681 106.992 163.058 123.02 141.293 136.399C135.218 140.135 128.975 143.634 122.611 146.941L124.094 146.172C105.521 155.781 85.9706 163.679 66.2817 171.152C60.7366 173.256 55.1772 175.329 49.6178 177.401C46.5246 178.553 44.8991 181.704 45.7477 184.612C46.5437 187.335 49.7722 189.779 53.0331 189.116C77.2344 184.195 101.058 177.726 124.234 169.683C146.874 161.825 168.9 152.48 190.083 141.746C202.422 135.493 214.502 128.823 226.249 121.68C229.164 119.904 229.772 115.574 227.567 113.126C225.14 110.42 221.339 110.048 218.208 111.913C201.22 122.018 184.231 132.123 167.236 142.226C150.368 152.258 133.5 162.29 116.631 172.322C107.046 178.023 97.4589 183.729 87.8678 189.427C86.5308 190.225 85.3921 192.093 85.255 193.53C85.1295 194.88 85.3882 196.118 86.122 197.3C87.838 200.071 91.2029 200.905 94.4165 199.966C111.179 195.066 127.355 188.616 142.995 181.264C158.634 173.913 174.561 165.288 189.846 156.543C198.288 151.708 206.663 146.782 215.034 141.848L206.993 132.081C194.329 141.686 180.637 150.069 166.89 158.305C153.142 166.541 139.421 174.609 126.456 183.747C118.812 189.133 111.561 194.914 104.7 201.123C103.953 201.803 103.456 203.189 103.326 204.119C103.142 205.439 103.484 206.749 104.193 207.889C105.575 210.108 108.097 211.122 110.84 210.955C135.345 209.469 156.64 196.956 176.713 185.167C182.685 181.657 188.676 178.167 194.856 174.962L193.373 175.731C196.917 173.898 200.521 172.168 204.212 170.584C207.371 169.226 209.426 165.723 207.862 162.62C206.413 159.74 202.523 157.823 199.146 159.276C185.094 165.316 172.309 173.411 159.192 180.935C155.729 182.925 152.232 184.861 148.675 186.709L150.158 185.94C141.195 190.568 131.802 194.6 121.832 197.046L123.48 196.645C118.762 197.782 113.945 198.551 109.076 198.848C111.126 202.125 113.167 205.404 115.217 208.681C115.486 208.44 115.75 208.197 116.02 207.956L114.78 209.063C126.326 198.737 139.297 189.886 152.614 181.577C166.009 173.226 179.777 165.388 193.092 156.94C200.613 152.17 207.983 147.19 215.028 141.846C217.715 139.81 218.714 135.922 216.346 133.292C213.979 130.662 210.128 130.224 206.987 132.079C193.265 140.165 179.53 148.247 165.509 155.895C161.537 158.06 157.539 160.188 153.518 162.275L155.001 161.506C138.687 169.949 121.881 177.661 104.373 183.825C99.4122 185.571 94.4032 187.186 89.3395 188.667L95.8943 199.208C112.883 189.103 129.872 178.998 146.867 168.895C163.861 158.793 180.603 148.831 197.471 138.799C207.056 133.099 216.644 127.393 226.235 121.694L218.194 111.928C208.266 117.966 198.11 123.68 187.738 129.058L189.221 128.289C174.584 135.873 159.53 142.799 144.136 149.013C128.74 155.232 113.014 160.749 97.0184 165.54C88.0476 168.224 78.994 170.678 69.8724 172.9L71.5202 172.499C64.7995 174.133 58.0424 175.64 51.2491 177.021L54.6644 188.735C78.7236 179.76 102.862 170.755 125.653 159.28C137.466 153.335 148.869 146.783 159.732 139.48C170.595 132.177 180.041 124.946 189.63 117.069C200.859 107.846 211.638 98.1802 222.266 88.3836L223.175 86.9705C223.562 86.2051 223.714 85.4156 223.639 84.5987C223.635 83.3258 223.258 81.9495 222.352 80.9393C221.598 80.1006 220.669 79.4395 219.593 78.9735C218.219 78.3804 215.853 78.2937 214.478 78.9519C192.121 89.6066 172.549 104.131 151.717 116.961C146 120.483 140.168 123.861 134.173 126.979L135.656 126.21C116.499 136.112 95.6036 142.771 74.7656 149.036C69.0249 150.76 63.2607 152.41 57.4235 153.839L59.0713 153.438C48.8168 155.935 38.3313 157.734 27.6931 157.983C29.3267 161.63 30.9603 165.277 32.5939 168.923C36.1707 166.812 39.8152 164.806 43.5166 162.882L42.0335 163.651C53.0408 157.946 64.4707 152.98 75.8509 147.949C87.7301 142.698 99.4448 137.205 110.912 131.24C122.051 125.454 132.936 119.259 143.528 112.673C153.762 106.315 163.887 99.689 173.26 92.2847C184.436 83.4597 194.311 73.5061 201.388 61.5918C202.067 60.4418 201.978 58.8646 201.627 57.6702C201.275 56.4758 200.519 55.1855 199.352 54.4266C198.37 53.7851 197.261 53.3594 196.073 53.1685C194.621 52.9361 192.31 53.4073 191.199 54.3452C174.806 68.242 156.842 80.5226 137.901 91.362C132.604 94.3961 127.227 97.32 121.788 100.141L123.271 99.3721C111.935 105.242 100.323 110.668 88.5181 115.708C76.6958 120.756 64.6851 125.439 52.5255 129.768C45.529 132.256 38.4502 134.56 31.1971 136.327L32.8449 135.926C26.1143 137.55 19.2495 138.691 12.2871 139.033L15.7024 150.747C27.8901 145.741 39.9052 140.383 51.6867 134.618C63.4683 128.854 75.7242 122.37 87.3016 115.58C98.5291 108.999 109.449 101.983 119.963 94.4935C130.476 87.0037 140.434 79.1615 149.962 70.7704C159.49 62.3792 169.288 52.893 178.012 43.1733C179.064 42.0008 180.104 40.8234 181.133 39.6358C183.213 37.2483 182.897 33.7628 180.611 31.6205C178.324 29.4782 174.543 29.1404 171.856 30.9705C160.916 38.4424 149.775 45.6717 138.447 52.644C127.12 59.6163 115.715 66.2675 104.081 72.6916C97.4922 76.3296 90.8468 79.8861 84.147 83.3556L85.63 82.5868C77.4761 86.8097 69.2473 90.9111 60.9401 94.8832C53.0698 98.6453 45.1779 102.439 37.0648 105.75C32.8483 107.47 28.5309 109 24.0657 110.108L25.7135 109.707C21.7262 110.674 17.6522 111.276 13.5177 111.3L15.2516 111.296C13.2982 111.288 11.3569 111.159 9.42567 110.882C10.8945 114.161 12.3633 117.439 13.8321 120.718C14.0088 120.554 14.1854 120.39 14.3656 120.234L13.1261 121.341C15.8553 118.945 19.0174 117.058 22.2916 115.354L20.8086 116.123C25.8499 113.521 30.9998 111.092 36.0401 108.476C40.7572 106.028 45.4164 103.484 50.0187 100.859C59.1081 95.6704 67.9796 90.1665 76.6629 84.4249C94.1928 72.8386 110.962 60.3182 127.422 47.4934C136.702 40.259 145.894 32.9177 155.083 25.5821C157.612 23.5589 158.542 20.4717 156.823 17.7063C155.267 15.2022 151.54 13.7194 148.528 15.0407C134.453 21.2239 121.378 29.1152 108.768 37.4958C96.1569 45.8765 84.9376 54.036 72.6498 61.8386C66.1456 65.9725 59.4886 69.9021 52.5995 73.4844L54.0825 72.7156C43.3057 78.2965 31.9463 82.9982 19.9575 85.9419L21.6053 85.541C16.4912 86.7843 11.2872 87.7018 6.02178 88.2314C7.6554 91.8781 9.28901 95.5247 10.9226 99.1713C25.7956 86.93 40.9733 75.0043 56.4542 63.4134C71.881 51.8614 87.6073 40.6362 103.604 29.7534C112.63 23.6132 121.741 17.5855 130.939 11.6703C133.799 9.82696 134.505 5.61428 132.258 3.11641C131.145 1.87502 129.571 0.866961 127.766 0.724335C125.962 0.581711 124.458 1.03142 122.893 1.90106C114.862 6.37657 108.009 12.2839 101.001 17.9597C94.5723 23.1624 87.8395 28.0165 80.7128 32.4017C76.7467 34.8405 72.6889 37.1314 68.5343 39.2859L70.0173 38.5171C59.2369 44.09 47.8741 48.7043 36.1118 52.2449C32.7505 53.2534 29.3622 54.1787 25.9431 55.0127L27.5909 54.6117C22.1178 55.9425 16.5891 57.0467 11.0048 57.9242L18.0537 66.3438C18.4523 65.2053 18.9911 64.1404 19.6521 63.1093L18.7436 64.5223C20.0588 62.5699 21.7158 60.8678 23.4966 59.2596L22.2571 60.3669C29.6194 53.8072 37.5607 47.708 45.496 41.7323C53.4314 35.7567 61.6507 29.9364 70.0119 24.3758C74.7437 21.2308 79.5289 18.1593 84.3735 15.1635C87.2696 13.3673 87.9099 9.07641 85.692 6.60963C83.2978 3.9427 79.43 3.47873 76.3332 5.39665L76.4314 5.38796Z" fill="#DBD94E"/>
</svg>
