<svg width="346" height="309" viewBox="0 0 346 309" fill="none" xmlns="http://www.w3.org/2000/svg">
<path d="M62.0471 34.9549C42.4349 63.0638 24.9051 92.4275 9.63791 122.793C4.96262 132.1 -0.863956 142.119 0.107141 152.747C0.417492 156.117 1.81907 159.058 5.06274 160.827C8.06613 162.466 12.1808 162.606 15.1641 160.827C37.179 147.718 57.3918 131.819 74.8516 113.682C92.3113 95.5455 107.388 75.152 119.031 53.2323C126.049 40.0111 132.116 26.2469 141.417 14.2243L124.127 4.7766C108.189 28.5409 92.8419 52.6517 78.1152 77.0902C63.4387 101.444 49.3628 126.117 35.9076 151.08C28.319 165.163 20.9307 179.339 13.7425 193.599C11.8904 197.27 11.8604 201.989 15.3043 204.948C18.7482 207.906 23.4135 208.506 27.438 206.408C54.3184 192.41 75.7025 171.333 93.803 148.383C111.903 125.434 126.58 100.021 142.318 75.4797C151.528 61.1163 161.179 46.9681 172.141 33.7002L170.58 35.5916C174.234 31.1814 178.028 26.8743 181.993 22.6982L166.265 11.3497C153.38 35.9661 140.476 60.5732 126.78 84.8057C113.115 108.982 98.6484 132.784 82.6604 155.687C73.6702 168.571 64.1895 181.155 54.1382 193.337L55.6999 191.446C51.315 196.745 46.7298 201.886 42.2948 207.148C39.782 210.126 37.2791 213.141 35.0766 216.334C32.754 219.704 30.972 223.244 29.3702 226.952C28.0787 229.948 29.6405 233.909 31.9431 236.062C34.516 238.469 38.1902 239.283 41.6841 238.469C59.5543 234.311 74.0907 222.86 86.3445 210.5C99.179 197.551 111.133 183.758 122.956 170.003C147.634 141.295 170.94 111.557 192.665 80.845C204.728 63.7848 216.311 46.4251 227.404 28.7938L209.103 21.5746C203.417 40.4231 196.419 58.9065 188.28 76.9498L189.291 74.7119C181.021 92.98 171.611 110.78 161.219 128.065C150.827 145.35 139.394 162.25 127.221 178.562C120.353 187.766 113.225 196.811 105.887 205.697L107.448 203.805C94.8441 219.04 81.6092 233.806 67.8436 248.132C63.9593 252.167 60.0348 256.175 56.0804 260.136C52.6565 263.563 52.206 268.684 55.2995 272.43C58.393 276.175 63.6589 276.905 68.2141 274.846C87.3156 266.203 103.814 253.188 119.092 239.592C134.369 225.997 147.984 212.822 161.66 198.768C175.766 184.273 189.221 169.264 202.025 153.748C214.319 138.842 225.922 123.43 236.604 107.465C247.286 91.5005 257.097 74.8805 265.727 57.7922C266.808 55.6574 267.87 53.5038 268.911 51.3502L250.26 46.6217C250.099 48.0543 249.919 49.4963 249.719 50.9289L250.079 48.4382C248.167 61.3035 244.043 73.7569 238.657 85.7046L239.668 83.4667C233.27 97.5587 225.211 110.911 216.712 123.973C208.212 137.035 198.541 150.808 188.7 163.749C183.194 170.996 177.538 178.131 171.731 185.163L173.293 183.271C162.701 196.08 151.578 208.468 140.145 220.622C128.813 232.673 117.32 244.602 106.527 257.092C99.9799 264.667 93.6528 272.42 87.7762 280.464C85.3835 283.741 86.2544 289.162 89.3379 291.812C90.6194 292.908 92.101 293.722 93.7529 294.218C96.4159 295.024 99.0489 294.293 101.472 293.273C120.053 285.445 136.621 274.171 152.309 262.13C167.937 250.126 183.104 237.476 197.73 224.424C212.357 211.371 227.154 196.315 239.738 180.481C251.461 165.734 261.773 150.059 272.054 134.413C282.336 118.767 292.507 103.242 304.1 88.523C305.572 86.6503 307.074 84.7963 308.586 82.9517L307.024 84.8431C309.136 82.2963 311.289 79.7775 313.481 77.2962C307.905 74.2625 302.328 71.2194 296.752 68.1856C293.689 75.2831 290.575 82.3525 287.392 89.4031L288.403 87.1653C273.135 120.977 256.176 154.282 234.582 185.004C228.555 193.58 222.148 201.914 215.45 210.041L217.012 208.15C197.44 231.811 175.435 253.581 152.97 274.827C146.643 280.81 140.275 286.756 133.908 292.702C130.364 296.007 130.114 301.344 133.127 304.996C135.951 308.413 141.957 310.117 146.042 307.411C176.356 287.327 205.169 265.257 232.089 241.315C258.389 217.925 282.897 192.766 305.362 166.099C318.447 150.565 330.911 134.582 342.614 118.111C345.517 114.02 343.615 107.568 339.02 105.302C333.954 102.793 328.468 104.328 325.324 108.664C308.255 132.166 291.186 155.668 274.107 179.17C257.157 202.504 240.208 225.837 223.259 249.171C213.628 262.43 203.997 275.698 194.357 288.956C193.015 290.81 192.625 294.069 193.345 296.175C194.026 298.151 195.167 299.762 196.929 301.035C201.054 304.022 206.23 303.376 210.074 300.305C230.127 284.284 248.388 266.39 265.337 247.514C282.286 228.637 298.824 207.803 314.402 187.148C323.002 175.734 331.451 164.226 339.891 152.709L322.601 143.261C311.188 163.711 297.583 182.99 283.808 202.092C270.032 221.193 256.186 240.042 244.063 259.995C236.915 271.756 230.557 283.862 225.011 296.363C224.41 297.73 224.601 299.958 225.011 301.344C225.592 303.31 226.893 304.977 228.595 306.204C231.909 308.591 236.034 308.657 239.718 306.934C272.625 291.541 294.119 262.299 314.382 234.742C320.409 226.54 326.476 218.356 332.983 210.472L331.421 212.363C335.156 207.85 339.04 203.449 343.135 199.208C346.639 195.575 347.259 189.507 343.135 185.968C339.31 182.681 332.723 182.082 328.979 185.968C313.391 202.129 300.857 220.51 287.502 238.263C283.978 242.954 280.374 247.589 276.629 252.13L278.191 250.238C268.741 261.643 258.319 272.439 246.095 281.306L248.117 279.846C242.321 284.012 236.154 287.711 229.616 290.773C234.522 294.293 239.417 297.823 244.323 301.344C244.543 300.857 244.753 300.37 244.974 299.883L243.963 302.121C253.373 281.259 265.687 261.709 278.822 242.738C292.037 223.665 306.093 205.116 319.137 185.949C326.506 175.125 333.534 164.086 339.881 152.709C342.304 148.374 341.222 142.334 336.287 139.9C331.351 137.466 325.755 138.936 322.591 143.261C308.756 162.138 294.9 181.015 280.374 199.433C276.259 204.648 272.084 209.826 267.85 214.957L269.411 213.066C252.222 233.853 233.891 253.871 213.608 272.083C207.862 277.243 201.965 282.243 195.908 287.084L211.636 298.432C228.705 274.93 245.775 251.428 262.854 227.925C279.933 204.423 296.752 181.258 313.701 157.925C323.332 144.666 332.963 131.398 342.604 118.139L325.314 108.692C315.423 122.615 305.012 136.201 294.089 149.432L295.651 147.541C280.234 166.202 263.825 184.161 246.495 201.296C229.166 218.44 210.935 234.77 191.874 250.22C181.182 258.881 170.229 267.261 159.037 275.351L161.059 273.89C152.81 279.846 144.43 285.642 135.921 291.278L148.054 305.988C175.605 280.248 203.247 254.424 227.464 225.837C240.018 211.024 251.621 195.575 262.003 179.357C272.385 163.14 280.854 147.793 289.114 131.454C298.784 112.325 307.554 92.8114 316.034 73.1951L316.394 70.7044C316.444 69.4122 316.154 68.2137 315.533 67.0995C314.722 65.3017 313.331 63.5601 311.439 62.6238C309.867 61.8466 308.165 61.4159 306.383 61.341C304.11 61.2473 300.787 62.4084 299.305 64.0845C275.168 91.2758 257.328 122.428 236.674 151.866C231.008 159.947 225.091 167.887 218.784 175.547L220.346 173.655C200.153 198.047 175.505 218.796 150.687 238.956C143.849 244.508 136.932 249.967 129.774 255.154L131.796 253.694C119.212 262.785 105.867 271.016 91.3302 277.14C95.8953 281.409 100.46 285.679 105.026 289.949C108.63 285.024 112.394 280.211 116.288 275.482L114.727 277.374C126.32 263.338 138.964 250.117 151.498 236.83C164.583 222.963 177.287 208.843 189.351 194.189C201.074 179.966 212.187 165.303 222.648 150.247C232.76 135.705 242.551 120.845 250.81 105.293C260.661 86.7533 268 67.3242 270.232 46.6404C270.442 44.646 269.321 42.4643 268.08 40.9662C266.838 39.468 264.976 38.0542 262.884 37.6141C261.122 37.2396 259.32 37.2396 257.558 37.6141C255.405 38.0729 252.512 39.9924 251.571 41.9213C237.726 70.4609 220.686 97.568 201.384 123.168C195.988 130.331 190.412 137.381 184.686 144.32L186.247 142.428C174.304 156.876 161.7 170.846 148.585 184.376C135.45 197.925 121.825 211.062 107.769 223.777C99.6796 231.09 91.3602 238.188 82.4602 244.62L84.4824 243.16C76.2131 249.106 67.4532 254.443 58.0526 258.703L70.1863 273.413C83.8517 259.724 97.0566 245.632 109.681 231.09C122.305 216.549 135.13 200.734 146.823 184.854C158.166 169.46 168.808 153.617 178.589 137.325C188.37 121.033 197.16 104.544 205.009 87.5117C212.857 70.4797 220.386 51.7528 226.283 33.2788C226.993 31.0503 227.684 28.8218 228.355 26.584C229.716 22.0802 227.073 17.3236 222.558 15.5352C218.043 13.7467 212.607 15.3198 210.054 19.3648C199.673 35.8631 188.86 52.1274 177.628 68.1295C166.395 84.1315 154.852 99.7216 142.848 115.115C136.051 123.832 129.123 132.465 122.065 141.005L123.627 139.113C115.037 149.507 106.267 159.769 97.3069 169.891C88.8173 179.479 80.3177 189.123 71.2074 198.206C66.4721 202.925 61.4765 207.429 56.0103 211.418L58.0326 209.957C53.137 213.487 47.8911 216.549 42.1947 218.824L44.5874 217.879C41.8843 218.927 39.1212 219.798 36.278 220.453C40.3826 224.292 44.4873 228.131 48.5919 231.97C48.7321 231.643 48.8722 231.315 49.0224 230.997L48.0112 233.235C50.2638 228.366 53.4374 223.983 56.8813 219.798L55.3195 221.689C60.6355 215.275 66.2118 209.049 71.5178 202.616C76.4834 196.595 81.3089 190.472 86.0042 184.264C95.2746 171.998 104.045 159.404 112.404 146.576C129.283 120.686 144.52 93.8882 159.137 66.8279C167.376 51.5656 175.425 36.2002 183.474 20.8442C185.687 16.6119 185.016 11.743 180.891 8.76541C177.157 6.06875 171.07 5.99384 167.746 9.49576C152.219 25.8724 139.154 44.1217 127.041 62.811C114.927 81.5004 104.595 99.1224 92.5616 116.819C86.1944 126.192 79.4868 135.359 72.2386 144.16L73.8004 142.269C62.4475 156.005 49.7332 168.814 35.0366 179.479L37.0589 178.018C30.7818 182.55 24.1743 186.67 17.2365 190.275C21.8016 194.545 26.3668 198.815 30.932 203.084C43.7264 177.709 57.1416 152.616 71.1874 127.831C85.1832 103.13 99.7997 78.7288 115.007 54.6649C123.587 41.0879 132.357 27.6233 141.317 14.2711C144.1 10.1137 142.408 3.77471 137.723 1.46195C135.4 0.310248 132.587 -0.26092 130.004 0.516243C127.421 1.29341 125.629 2.74474 124.017 4.82341C115.758 15.5071 110.031 27.5765 103.944 39.4025C98.3581 50.2453 92.1311 60.7604 85.0631 70.8261C81.1286 76.4254 76.9739 81.8656 72.599 87.1653L74.1608 85.2739C62.7979 99.0006 50.0235 111.688 36.0177 123.074C32.0132 126.323 27.9186 129.469 23.7238 132.503L25.7461 131.042C19.0285 135.892 12.0907 140.452 4.93259 144.722L19.9996 152.803C19.8294 150.977 19.8995 149.179 20.1598 147.363L19.7994 149.853C20.38 146.379 21.5914 143.074 23.033 139.834L22.0219 142.072C28.0387 128.804 35.1467 115.873 42.3248 103.121C49.5029 90.3676 57.1716 77.6801 65.2007 65.283C69.7458 58.2698 74.4111 51.3315 79.2065 44.4681C82.0697 40.3576 80.2376 33.9436 75.6124 31.659C70.6168 29.187 64.9804 30.629 61.9169 35.0204L62.0471 34.9549Z" fill="#C51760"/>
</svg>
