<svg width="307" height="279" viewBox="0 0 307 279" fill="none" xmlns="http://www.w3.org/2000/svg">
<path d="M46.4762 129.609C32.5665 139.144 18.6589 148.671 4.7491 158.205C2.91421 159.465 1.5098 160.69 0.890281 162.805C0.365088 164.598 0.60872 166.957 1.71798 168.555C2.87036 170.21 4.59107 171.652 6.74412 172.085C8.73508 172.487 11.3117 172.499 13.0264 171.327C27.9276 161.071 43.0509 151.081 58.37 141.359C73.6485 131.658 89.131 122.227 104.78 113.048C120.395 103.893 136.185 94.992 152.141 86.3438C156.209 84.1324 160.287 81.9469 164.378 79.7726C161.183 82.1353 157.988 84.4979 154.805 86.8791C139.979 97.9617 125.308 109.216 110.793 120.641C96.1984 132.134 81.7651 143.807 67.5054 155.648C53.2255 167.5 39.1192 179.52 25.1865 191.708C23.4553 193.229 21.7182 194.741 19.9949 196.264C17.0141 198.891 16.8447 203.274 19.293 206.212C21.5761 208.953 26.62 210.432 29.9609 208.215C46.3579 197.33 62.8061 186.504 79.4246 175.915C96.0431 165.327 112.834 154.969 129.915 145.028C146.776 135.221 163.923 125.813 181.452 117.033C198.811 108.336 216.546 100.258 234.7 93.0584C235.767 92.6372 236.843 92.2108 237.907 91.797C238.247 91.6606 238.593 91.5336 238.933 91.3972C224.167 100.839 209.399 110.289 194.626 119.729C163.249 139.793 131.87 159.863 100.493 179.927C82.8801 191.189 65.275 202.454 47.6641 213.709C45.8288 214.883 44.4033 216.267 43.8053 218.309C43.2801 220.102 43.5237 222.461 44.633 224.058C46.9004 227.321 52.1097 229.202 55.9414 226.831C87.5356 207.283 119.365 188.044 151.276 168.936C161.38 162.885 171.491 156.868 181.607 150.836C169.687 159.634 157.922 168.604 146.322 177.747C134.321 187.2 122.496 196.845 110.845 206.659C99.1811 216.485 87.6969 226.488 76.3944 236.661C75.0219 237.894 73.6474 239.134 72.2808 240.376C69.2005 243.167 68.9368 248.311 72.2194 251.093C75.5078 253.884 80.6468 254.131 83.9295 251.147C101.157 235.523 118.812 220.285 136.88 205.479C154.915 190.695 173.361 176.327 192.184 162.396C195.227 160.145 198.291 157.907 201.352 155.676C184.455 170.935 167.867 186.481 151.624 202.315C139.808 213.83 128.171 225.498 116.708 237.303C113.944 240.156 113.404 244.134 116.006 247.251C118.358 250.079 123.231 251.352 126.674 249.254C151.246 234.277 173.624 216.55 195.656 198.628C206.557 189.768 217.399 180.847 228.463 172.16C231.881 169.476 235.34 166.825 238.811 164.193C237.492 165.446 236.18 166.709 234.861 167.963C215.906 186.003 196.792 203.911 177.532 221.674C166.718 231.645 155.855 241.573 144.946 251.459C142.427 253.736 141.643 257.819 143.595 260.636C145.507 263.387 149.375 265.222 152.954 264.154C174.668 257.678 193.997 246.381 212.501 234.388C217.093 231.411 221.648 228.386 226.221 225.357C217.124 232.242 208.029 239.121 198.941 246.009C190.161 252.658 181.376 259.299 172.597 265.949C171.09 267.086 170.04 269.645 170.137 271.394C170.228 273.072 170.771 274.554 171.887 275.895C174.463 278.982 178.836 279.622 182.555 277.898C195.951 271.698 209.35 265.49 222.746 259.289C220.933 260.563 219.12 261.837 217.313 263.119C215.728 264.229 214.844 266.837 214.852 268.565C214.867 270.388 215.76 272.577 217.249 273.844C218.841 275.199 220.958 276.196 223.199 276.095C225.503 275.985 227.154 275.174 228.967 273.9C248.219 260.349 267.472 246.797 286.721 233.253C292.208 229.389 297.702 225.527 303.188 221.663C304.71 220.592 305.738 217.903 305.648 216.218C305.557 214.54 305.014 213.057 303.898 211.717C301.322 208.63 296.949 207.989 293.23 209.713C275.697 217.834 258.174 225.949 240.641 234.069C252.844 224.831 265.045 215.599 277.248 206.36C286.028 199.711 294.813 193.07 303.592 186.42C306.291 184.375 306.773 179.889 304.942 177.243C302.921 174.339 299.283 172.89 295.584 173.725C279.308 177.376 264.214 184.196 249.978 192.207C255.675 187.594 261.392 183.002 267.15 178.443C274.93 172.278 282.757 166.156 290.62 160.089C292.183 158.88 293.089 156.458 293.08 154.644C293.066 152.821 292.172 150.632 290.683 149.365C289.092 148.01 286.975 147.013 284.734 147.114C282.482 147.221 280.693 147.975 278.965 149.309C275.942 151.643 272.924 153.986 269.904 156.337C270.393 155.868 270.871 155.405 271.36 154.936C281.924 144.739 292.448 134.5 302.917 124.217C305.754 121.437 306.168 117.333 303.619 114.269C301.051 111.184 296.673 110.534 292.951 112.265C270.438 122.758 249.887 136.383 230.356 151.003C239.384 143.065 248.483 135.207 257.684 127.437C270.338 116.748 283.168 106.219 296.139 95.8504C298.624 93.8629 299.097 90.1977 297.897 87.5656C297.327 86.3198 296.521 85.3535 295.358 84.5269C294.04 83.584 291.992 82.6741 290.259 82.8846C286.019 83.3987 281.845 84.1012 277.723 85.0049L297.025 72.6583C300.442 70.4755 302.147 66.8769 300.464 63.2007C298.896 59.7726 294.711 57.7583 290.7 58.7831C271.826 63.6094 253.33 69.6031 235.245 76.5056C231.307 78.0114 227.39 79.5615 223.483 81.1375C225.459 80.0686 227.437 78.9924 229.418 77.9328C239.198 72.697 249.018 67.5262 258.871 62.4184C262.649 60.4654 264.291 55.502 261.903 52.0687C259.479 48.5796 254.625 47.2094 250.594 49.2964C233.072 58.3764 215.67 67.6587 198.413 77.149C192.703 80.2837 187.017 83.4556 181.334 86.644C189.261 80.8284 197.224 75.0612 205.233 69.3443C209.002 66.6596 212.777 63.9842 216.558 61.3181C218.449 59.985 220.347 58.6539 222.243 57.3301C222.61 57.0747 222.976 56.8193 223.342 56.5639C223.513 56.4489 223.676 56.332 223.849 56.2096C224.797 55.5477 225.753 54.8878 226.701 54.2259C234.306 48.9513 241.95 43.7177 249.624 38.5306C251.546 37.2366 253.468 35.9426 255.388 34.656C257.222 33.4268 258.633 32.1489 259.246 30.0556C259.772 28.2623 259.528 25.904 258.419 24.3062C255.897 20.6834 251.245 19.6214 247.11 21.534C230.663 29.1362 214.341 36.9571 198.155 45.0155C197.182 45.4987 196.223 45.9932 195.25 46.4764C197.642 44.8348 200.042 43.1953 202.434 41.5537C204.184 40.3509 205.789 39.0263 206.293 36.9533C206.698 35.2795 206.599 33.6862 205.873 32.0962C204.28 28.607 200.153 26.748 196.109 27.6786C174.736 32.6375 154.05 39.7024 133.87 47.7859C133.53 47.9223 133.188 48.0659 132.848 48.2022C139.573 43.6218 146.297 39.0414 153.022 34.461C162.573 27.9534 172.123 21.4532 181.675 14.9457C183.505 13.7 184.916 12.4533 185.534 10.3453C186.059 8.55201 185.815 6.19369 184.706 4.59595C183.554 2.94057 181.833 1.4989 179.68 1.06522C177.423 0.606051 175.499 0.942346 173.398 1.82369C154.681 9.65394 135.967 17.4769 117.25 25.3072C120.065 23.0711 122.878 20.8423 125.693 18.6062C128.974 16.0059 128.884 10.5473 125.754 7.88928C122.28 4.94292 117.542 5.05232 114.044 7.83489C96.906 21.426 79.7739 35.0263 62.636 48.6174C59.5194 51.0934 59.588 55.7466 61.934 58.5654C64.5787 61.7398 68.7927 62.161 72.6019 60.5687C85.1553 55.3148 97.7166 50.0628 110.268 44.8162C97.3334 53.6246 84.3991 62.4331 71.4627 71.2489C61.9109 77.7564 52.3613 84.2566 42.8095 90.7642C40.9789 92.0099 39.568 93.2566 38.9506 95.3646C38.4255 97.1579 38.6691 99.5162 39.7783 101.114C42.214 104.621 47.0459 105.947 51.0868 103.886C70.1676 94.1683 89.2543 84.4597 108.736 75.4206C118.407 70.935 128.174 66.6217 138.062 62.5658C140.458 61.5842 142.868 60.6139 145.279 59.6675C146.325 59.257 147.371 58.8466 148.423 58.4455C148.423 58.4455 148.407 58.4416 148.395 58.4542C148.403 58.4562 148.423 58.4455 148.441 58.4421C148.595 58.3856 148.751 58.3218 148.904 58.2654C148.971 58.2425 149.038 58.2196 149.102 58.2041C149.2 58.1651 149.289 58.1242 149.365 58.096C150.011 57.8541 150.656 57.6121 151.303 57.3629C151.756 57.1915 152.213 57.0368 152.666 56.8654C141.804 64.3068 130.939 71.7556 120.076 79.197C95.5402 96.0108 71.0039 112.825 46.4597 129.637L46.4762 129.609Z" fill="#DBD94E"/>
</svg>
