<svg width="300" height="7" viewBox="0 0 300 7" fill="none" xmlns="http://www.w3.org/2000/svg">
<path fill-rule="evenodd" clip-rule="evenodd" d="M11.9721 1.43262C10.535 1.52393 9.26758 1.41499 7.57052 1.70025C6.9278 1.58312 6.42229 1.36902 5.40405 1.45529C4.02835 1.60453 2.77902 1.74496 1.52969 1.88539C1.71745 1.93451 1.8691 1.99874 2.14713 2.05416C1.58024 2.12028 1.02057 2.18577 1.79328 2.3306C1.15778 2.42695 -0.105991 2.53086 0.421183 2.69333C-0.813703 2.87091 0.962799 3.19395 1.95937 3.46159C1.58746 3.48804 1.27333 3.53652 0.988074 3.56927C3.21953 4.38728 6.43312 4.40617 8.48404 5.30038C9.15926 5.40239 9.66838 5.6165 10.6036 5.52456C11.1669 5.67191 11.8348 5.86209 12.4523 6.03149C12.77 5.983 13.0553 5.95025 13.3333 5.91751C14.1891 6.1568 14.8896 6.42065 16.027 6.32557C18.0057 6.52141 20.0963 6.58375 22.3711 6.57053C22.9885 6.73929 23.9743 6.57997 24.8011 6.53275C25.8085 6.62343 26.6896 6.72292 27.8847 6.64924C28.1628 6.70466 28.2603 6.74748 28.5022 6.81801C29.8382 6.68388 30.5603 6.89547 31.9866 6.67884C33.1456 6.83375 34.4708 6.87594 36.0379 6.68766C37.7819 6.93766 40.2011 6.86398 42.6059 6.66499C45.0576 6.8772 47.7621 6.89484 50.6904 6.73363C52.7991 6.83249 55.2977 6.55164 57.2981 6.69584C58.5908 6.96662 60.2878 6.89421 62.1943 6.60579C62.9923 6.69899 63.7939 6.7034 64.7471 6.55919C64.9855 6.62972 65.1768 6.67884 65.4512 6.73426C69.1595 6.93073 73.348 6.96725 77.4968 6.80542C77.7207 6.83942 77.8759 6.90428 78.1503 6.95907C80.1688 6.83879 81.8117 7.04597 84.1045 6.76763C85.1914 6.95277 86.6393 6.98615 88.1197 6.79156C88.3616 6.86209 88.5494 6.91184 88.8202 6.96725C90.037 6.84131 90.9144 7.0296 92.2576 6.80668C92.496 6.8772 92.6512 6.94144 92.8715 6.97544C95.3521 6.53275 96.3161 7.24181 98.8256 6.78401C99.0676 6.85453 99.1289 6.91247 99.407 6.96851C100.62 6.84257 101.498 7.03086 102.844 6.80793C103.126 6.77519 103.372 6.75756 103.776 6.71537C104 6.74937 104.242 6.8199 104.43 6.86902C105.361 6.77645 105.95 6.87217 106.86 6.83123C107.011 6.89547 107.25 6.96599 107.473 7C108.777 6.88098 109.532 7.07746 110.961 6.86083C111.207 6.8432 111.611 6.80101 112.016 6.75945C113.139 6.92947 114.377 6.96537 115.948 6.77708C116.136 6.8262 116.374 6.89673 116.562 6.94647C117.779 6.82053 118.62 7.02393 120.086 6.79219C124.22 6.89547 128.741 6.92003 133.225 6.74685C135.829 7.0233 138.967 6.85957 142.227 6.68703C142.487 6.75882 142.635 6.80542 142.866 6.85768C144.845 6.75189 146.535 6.96285 148.817 6.66625C150.239 6.84005 151.98 6.77078 153.843 6.58564C156.233 6.86524 158.862 6.89484 161.83 6.63035C164.04 6.66562 166.058 6.86461 168.524 6.59887C170.799 6.49685 172.717 6.74118 175.45 6.31801C176.259 6.53589 177.627 6.28023 178.58 6.43703C178.775 6.50441 178.963 6.55353 179.155 6.60264C180.411 6.48048 181.209 6.6801 182.516 6.47292C184.693 6.32809 186.264 6.56612 188.593 6.27267C188.738 6.31864 188.976 6.38917 189.124 6.43514C191.225 6.32116 192.876 6.52834 195.125 6.26511C195.768 6.18703 196.374 6.12469 197.1 6.03463C198.31 6.31801 199.931 6.25693 202.004 5.96285C203.311 6.48363 206.087 5.74307 207.647 6.05101C207.795 6.09698 208.034 6.16751 208.221 6.21662C209.481 6.09446 210.395 6.267 211.698 6.05919C212.912 6.34194 214.778 6.26385 216.692 5.9937C217.414 5.90365 217.942 5.85327 218.707 5.767C219.559 6.09446 221.065 6.06108 222.679 5.78778C223.957 5.7204 224.849 5.83816 225.734 5.93766C226.456 5.84761 227.062 5.78526 227.705 5.70718C228.611 5.86146 230.07 5.61146 230.839 5.84509C231.114 5.79408 231.352 5.75756 231.764 5.73363C231.998 5.78589 232.186 5.83501 232.424 5.90617C233.594 5.77771 234.436 5.98048 235.786 5.77645C238.025 5.47607 239.635 5.69899 241.776 5.5699C243.574 5.84131 245.939 5.74622 248.344 5.54723C249.673 5.8029 251.334 5.74496 253.417 5.46914C253.937 5.4005 254.667 5.32872 255.317 5.26952C257.906 5.31486 260.321 5.54219 263.744 5.04408C263.932 5.0932 264.12 5.14232 264.318 5.21033C265.568 5.0699 266.452 5.27582 267.759 5.06801C268.514 5.15743 269.402 5.16877 270.272 5.01826C270.46 5.06738 270.655 5.13476 270.847 5.18388C272.103 5.06108 273.017 5.23426 274.324 5.02645C274.93 4.96411 275.616 4.88917 276.18 4.82305C277.277 5.23929 279.682 4.72103 280.895 5.00378C282.188 4.8665 283.401 4.74118 284.734 4.58816C285.936 4.85264 287.774 4.80793 289.771 4.52582C291.136 4.35831 292.378 4.19962 293.248 4.36839C293.573 4.33879 293.811 4.3029 294.14 4.27267C294.544 4.23048 294.862 4.18262 295.107 4.16499C295.299 4.21411 295.57 4.26952 295.681 4.3306C298.328 4.30856 299.375 3.56738 296.393 3.79597C295.422 3.90365 294.732 3.76511 293.952 3.81549C293.728 3.78149 293.529 3.71411 293.255 3.65869C293.19 3.60013 292.916 3.54534 292.771 3.49874C294.512 3.42947 296.989 2.77393 298.187 3.12657C298.715 3.07557 299.44 2.98615 300 2.92003C299.899 2.8772 299.657 2.80668 299.469 2.75693C298.682 2.89547 298.26 2.79408 297.927 2.69899C296.407 2.58942 295.057 2.38539 294.002 1.97166C293.728 1.91625 293.616 1.85516 293.385 1.80353C292.385 1.73111 291.302 1.65302 290.655 1.41058C289.995 1.23867 289.377 1.0699 288.846 0.907431C288.485 0.952141 288.167 1.00063 287.922 1.01826C286.673 1.15869 285.947 0.821788 284.665 0.889169C284.521 0.843199 284.376 0.797229 284.091 0.723552C283.946 0.677582 283.705 0.607053 283.517 0.558564C281.711 0.676322 283.008 0.343829 281.719 0.0730476C281.083 0.169395 280.625 0.0831237 280.213 0C279.65 0.0654912 278.877 0.134131 278.357 0.203401C277.021 0.337532 275.692 0.490554 274.519 0.619018C273.909 0.468514 272.833 0.621536 272.009 0.668766C271.728 0.701511 271.403 0.731108 271.078 0.761335C270.204 0.591939 268.864 0.814232 267.59 0.900504C267.445 0.854534 267.254 0.805416 267.059 0.738036C265.838 0.543451 264.51 0.589421 263.629 0.188917C261.195 0.634131 260.191 -0.0774555 257.711 0.36461C257.285 0.244963 256.862 0.143577 256.476 0.0270782C255.14 0.161209 253.854 0.31738 252.641 0.442066C251.843 -0.165617 249.456 0.389799 247.655 0.526449C247.283 0.446474 246.741 0.353905 246.12 0.486146C245.882 0.415617 245.69 0.366499 245.452 0.29597C245.04 0.212846 244.625 0.129723 243.997 0.243703C242.614 0.375315 241.408 0.518892 240.036 0.668136C238.649 0.780857 237.588 0.562343 236.064 0.647356C235.912 0.583124 235.725 0.534005 235.486 0.463476C234.797 0.538414 234.111 0.61272 233.627 0.666877C231.839 0.520151 230.496 0.120907 227.954 0.612091C227.665 0.626575 227.348 0.675063 226.979 0.701511C226.069 0.741814 225.08 0.901763 224.549 0.739295C224.275 0.683879 224.17 0.641058 223.932 0.570529C222.917 0.56801 221.697 0.56864 220.415 0.742444C219.404 0.846978 218.472 0.939547 217.548 1.05038C217.219 0.866499 216.606 0.911209 216.042 0.9767C215.576 0.872166 215.233 0.758816 214.807 0.639169C213.876 0.731739 212.908 0.839421 212.016 0.935139C210.76 1.0573 209.33 1.27393 208.416 1.10076C207.481 0.465365 204.538 1.21096 202.852 1.00063C202.253 1.08186 201.599 1.14106 200.913 1.21599C199.797 1.06423 198.465 1.00378 196.862 1.20718C196.526 1.11209 196.071 1.02582 195.363 1.15239C195.165 1.08501 195.02 1.03904 194.695 0.962217C193.446 1.10264 192.153 1.23992 190.904 1.38035C190.579 1.41058 190.254 1.43955 189.98 1.49118C188.889 1.50126 187.788 1.49244 186.459 1.64484C185.676 1.48174 184.296 1.71914 183.534 1.50441C183.303 1.45214 183.072 1.39987 182.874 1.33249C182.079 1.45277 181.668 1.36965 181.332 1.27456C180.523 1.35831 180.003 1.42758 179.353 1.48678C179.072 1.51952 178.71 1.56486 178.461 1.58186C176.244 1.31549 173.551 1.52897 171.33 1.45718C169.041 1.73552 166.997 1.80164 165.253 1.6568C165.047 1.57116 164.859 1.52204 164.628 1.46977C163.018 1.76196 161.823 1.6228 160.342 1.71096C159.981 1.75567 159.613 1.78212 159.295 1.8306C157.288 1.77456 155.284 1.61209 152.738 1.83627C152.547 1.78715 152.359 1.73804 152.171 1.68892C150.539 1.51826 148.459 1.5806 146.257 1.86524C145.007 1.70403 143.809 1.65302 142.151 1.83501C141.927 1.80101 141.812 1.72166 141.534 1.66625C139.259 1.98111 137.335 2.01952 135.634 1.87909C134.161 1.68451 132.666 1.62909 130.911 1.68073C129.979 1.7733 129.012 1.88035 128.131 1.99433C125.264 1.78715 122.512 1.65932 119.393 1.77141C119.201 1.72229 118.927 1.66688 118.689 1.59698C117.074 1.67569 115.453 1.62909 113.753 1.70214C112.297 1.54408 110.597 1.61587 108.683 1.7796C108.492 1.73048 108.34 1.66625 108.066 1.61083C106.849 1.73615 106.094 1.53967 104.751 1.76259C103.989 1.65428 103.187 1.64924 102.111 1.8029C100.743 1.6505 99.0423 1.72292 97.1286 1.88665C96.9733 1.82305 96.6989 1.767 96.5978 1.72418C94.7635 1.46725 92.3985 1.56297 89.907 1.75567C88.813 1.87217 87.8886 1.6631 86.5454 1.88539C85.3322 1.70907 84.0973 1.67317 82.5302 1.86146C80.1507 1.92003 78.2948 1.71537 75.9261 1.89924C74.8573 1.6631 73.2325 1.91814 71.8929 1.83879C69.9647 1.66373 68.0366 1.4893 65.249 1.89169C64.0467 1.6272 62.2593 1.69333 60.212 1.95403C59.1396 1.59194 57.6736 1.52204 55.5433 1.77645C54.2109 1.60894 52.5752 1.52645 50.9612 1.60516C50.1741 1.63665 49.3616 1.50756 48.4806 1.62091C48.087 1.48615 47.6321 1.5063 46.8594 1.57494C45.7003 1.42002 44.4979 1.36839 42.8081 1.56612C41.9812 1.61272 41.2952 1.47481 40.3275 1.58249C40.1361 1.53275 39.9483 1.48363 39.71 1.41373C37.623 1.56423 36.0487 1.32683 33.7234 1.62028C32.6004 1.45025 31.398 1.39924 29.7443 1.58123C28.3397 1.44458 26.5524 1.51071 24.7253 1.6801C23.6385 1.49496 22.2772 1.46788 20.6235 1.64987C19.5005 1.47985 18.1754 1.43766 16.6083 1.62594C15.1315 1.73237 13.9941 1.52645 12.5064 1.59635C12.4053 1.55353 12.214 1.50441 11.9757 1.43325L11.9721 1.43262Z" fill="#DBD94E"/>
</svg>
