<svg width="46" height="23" viewBox="0 0 46 23" fill="none" xmlns="http://www.w3.org/2000/svg">
<path fill-rule="evenodd" clip-rule="evenodd" d="M45.0881 13.0137L45.5062 13.0115L45.5055 12.8772C45.478 12.7702 45.3834 12.7166 45.2217 12.7442C45.221 12.6103 45.1133 12.584 45.0859 12.4766C45.0713 12.2887 45.1518 12.1675 45.2182 12.0464L45.2168 11.7776L44.9338 11.7791C44.9862 11.5105 44.9047 11.3497 44.6618 11.3777L44.2575 11.3798C44.2727 11.6748 43.7591 11.4359 43.5571 11.5177L43.5522 10.5512L42.4468 10.5568L42.4482 10.8251C42.2865 10.8527 42.1248 10.8807 42.1802 11.1084L42.183 11.6591L42.048 11.6598C42.022 11.8211 41.8332 11.8084 41.6307 11.7958L41.2127 11.7979L41.2107 11.3952C41.3993 11.3806 41.3984 11.2063 41.6279 11.2456L41.6272 11.1112L41.7617 11.1105C41.9631 10.9083 41.9615 10.586 41.4765 10.6956L41.4772 10.83L41.2078 10.8313C41.1796 10.6708 40.9643 10.725 40.8023 10.699L40.8016 10.5651L39.8312 10.57C39.7764 10.3823 39.4801 10.4642 39.278 10.4384C39.2918 10.5455 39.2249 10.5731 39.1301 10.5735L38.8607 10.5749C38.833 10.4134 38.6176 10.4685 38.4557 10.4426L38.1726 10.444C37.9305 10.5256 37.3631 10.2869 37.3509 10.5825C37.0813 10.6239 37.0669 10.396 36.9316 10.3159C36.9175 10.2356 36.9039 10.1549 36.7827 10.1822C36.7565 10.3168 36.5133 10.2644 36.5142 10.4524L36.1099 10.4544C35.9482 10.482 35.8536 10.4285 35.8261 10.3215L35.5431 10.3229C35.4339 10.0011 34.7742 10.2732 34.437 10.1941L34.4362 10.0466C34.1404 10.1421 34.003 9.65922 34.0326 10.1962L33.8977 10.1968C33.7763 10.1707 33.7625 10.05 33.6139 10.0507C33.5065 10.0917 33.4527 10.1723 33.4804 10.3334C33.1438 10.3886 33.1691 10.0798 32.7923 10.2024L32.6574 10.2031L32.6566 10.0556L32.5085 10.0563C32.6542 9.58522 32.0757 9.84377 31.8196 9.77787L31.8204 9.92542C31.6048 9.94014 31.294 9.86089 31.2681 10.0626L30.985 10.064L30.9844 9.92965L30.4451 9.93238C30.3101 9.91943 30.3362 9.7586 30.295 9.6512L30.1606 9.65188C30.1206 9.75922 30.1483 9.92025 30.0271 9.93449C29.9989 9.77346 29.797 9.78811 29.6083 9.78906L29.6076 9.65514L27.5313 9.66565C27.4507 9.67922 27.3696 9.69325 27.3975 9.80025C27.1546 9.82826 26.9657 9.77565 26.8439 9.66913L26.8432 9.53474C26.8285 9.33323 26.5056 9.40206 26.29 9.40315L26.2907 9.53754L25.7514 9.54027L25.7508 9.40588L25.1846 9.40874C25.1839 9.27435 25.0227 9.30196 24.9145 9.27572C24.672 9.35777 24.105 9.10548 24.0792 9.41434L24.0799 9.54873L23.5406 9.55145L23.5392 9.28268C23.4845 9.09499 23.1881 9.16369 22.9724 9.15162L22.9731 9.28554C22.7706 9.25978 22.461 9.3417 22.4332 9.15435L21.0447 9.16138L21.0439 9.01336L20.909 9.01405L20.9083 8.87966L19.8029 8.88525L19.8021 8.73771L18.4132 8.74474L18.4125 8.61035L17.0377 8.6173L17.037 8.48292C16.3094 8.56742 15.9841 8.24672 15.243 8.35807L13.7196 8.36578L13.7189 8.23186L12.2092 8.2395L12.2077 7.95757C12.3291 7.88976 12.4501 7.83558 12.4762 7.67427C12.5837 7.6601 12.6104 7.5392 12.7586 7.53845C12.8528 7.51119 12.9062 7.43057 12.8921 7.26946L13.0271 7.26878C13.0129 7.16124 13.0802 7.13412 13.1745 7.13364L13.1732 6.86533C13.281 6.82438 13.3339 6.7306 13.3067 6.58272L13.4412 6.58204C13.4416 6.66286 13.4689 6.74307 13.5768 6.71574C13.6159 6.4336 13.9529 6.44553 13.992 6.16292L13.9913 6.02853C14.1393 6.001 14.2061 5.86674 14.273 5.75879L14.4075 5.75811C14.569 5.6901 14.6759 5.56879 14.6747 5.32727L14.8097 5.32659C14.6457 4.89793 15.0236 5.00315 15.09 4.78807C15.292 4.7067 15.4263 4.57163 15.5059 4.36964C15.5728 4.24853 15.6392 4.14106 15.6383 3.95263C15.746 3.97887 15.7729 3.89838 15.7725 3.81803C15.907 3.81735 15.8798 3.65584 15.9056 3.54858L16.0406 3.54789L16.0294 1.34505L15.8945 1.34574C15.9206 1.18443 15.8664 1.10388 15.7586 1.06448C15.7849 0.943587 15.7042 0.943995 15.623 0.930779C15.6493 0.809882 15.5686 0.81029 15.4878 0.783914C15.5666 0.421222 15.1897 0.530266 15.0677 0.383335L14.9196 0.384085L14.9189 0.249696L13.8135 0.25529C13.6242 0.242621 13.4359 0.230416 13.4094 0.391727C13.194 0.446385 13.2903 0.821819 12.8582 0.662829C12.6162 0.744877 12.0483 0.506221 12.0366 0.801378C12.0373 0.935766 11.8616 0.909871 11.7543 0.950356C11.5794 1.08563 11.2425 1.07371 11.2039 1.36947C10.9072 1.38413 10.9089 1.7201 10.9375 2.05547L10.9382 2.18938C10.7226 2.2041 10.3986 2.12492 10.3728 2.34026C10.2112 2.39465 10.1042 2.50233 10.1054 2.74432C9.99777 2.82522 9.89054 2.89296 9.70128 2.88076C9.70196 3.01468 9.58037 3.04208 9.55456 3.16344C9.27169 3.20528 9.287 3.52756 9.00372 3.58256L8.86926 3.58324C8.74781 3.63742 8.62683 3.69161 8.60075 3.85338C8.57441 3.96112 8.4665 3.98798 8.46718 4.12237C7.9416 4.12503 7.65968 4.35483 7.49955 4.69115C6.61035 4.72243 6.3978 5.42178 5.84676 5.80049C5.82068 5.96133 5.59111 5.90939 5.42989 5.93652C4.86319 5.83178 4.91956 6.34181 4.59659 6.47784C4.27267 6.42591 4.30166 6.74811 3.92361 6.62879C3.87078 6.81702 3.61439 6.77837 3.49334 6.91291L3.49402 7.04683C3.26555 7.20916 2.95612 7.31833 2.95816 7.72102L2.82322 7.72171C2.44538 7.64327 2.55532 8.01863 2.40786 8.1533C1.88173 8.04835 1.93783 8.50481 1.72317 8.69386C1.58973 8.9901 1.1854 8.99215 1.16055 9.39498C1.1342 9.50272 1.16191 9.66376 1.02745 9.66444L1.02813 9.79883L0.893192 9.79951C0.704949 9.89444 0.6385 10.0959 0.626649 10.3647L0.492188 10.3654L0.501836 12.2722C0.6365 12.3115 0.58394 12.5538 0.77313 12.5528C0.801314 12.8078 0.856185 13.0223 1.04531 13.1021C1.14062 13.2896 1.34289 13.3558 1.61283 13.3681L1.61357 13.5156C1.66824 13.6901 1.77683 13.7967 2.0198 13.7955L2.15426 13.7948C2.12791 13.9021 2.20866 13.9153 2.28988 13.928C2.27769 14.2237 2.78884 13.9796 2.99164 14.0589L3.39597 14.0568L3.39733 14.3256L3.68041 14.3242C3.58795 14.7006 4.32724 14.2269 4.23471 14.5897C4.28945 14.7774 4.41125 14.8844 4.64047 14.8696L4.92355 14.8681L4.92429 15.0157C5.12704 15.1758 5.26313 15.4035 5.61374 15.4149C5.61442 15.5493 5.78979 15.5216 5.8975 15.5479C5.87122 15.6692 5.95196 15.682 6.03311 15.6816C6.23666 15.9084 6.50674 16.0415 6.85762 16.1069C6.83182 16.3218 6.99371 16.3341 6.99459 16.5089L7.27767 16.5075C7.26507 16.6283 7.33261 16.6416 7.42697 16.6411C7.522 16.7745 7.67056 16.8546 7.83272 16.921C7.88862 17.337 8.58841 17.0783 8.67153 17.4675L8.67221 17.6018C8.68624 17.7625 8.91526 17.7078 9.07722 17.7337L9.0779 17.8681L9.21283 17.8674C9.1873 18.1363 9.40298 18.1484 9.49802 18.2823C9.64616 18.2816 9.65998 18.4023 9.78184 18.4284C9.80948 18.5758 9.93154 18.6424 10.0531 18.6958L10.188 18.6952C10.4304 18.6803 10.6194 18.7198 10.7412 18.8263L10.7425 19.0951C10.73 19.229 10.7974 19.2287 10.8919 19.2418C11 19.3489 10.9745 19.6173 11.1634 19.6568C11.1911 19.8178 11.4064 19.7632 11.5684 19.7891C11.556 19.9504 11.6102 20.0305 11.7179 20.0572C11.8667 20.0968 11.8136 20.325 12.0024 20.3377C11.9761 20.459 12.0568 20.4586 12.138 20.4714C12.3537 20.4839 12.2473 20.82 12.5438 20.7513C12.6787 20.7506 12.705 20.6297 12.8262 20.6159L13.096 20.6146C13.0829 20.7218 13.1504 20.735 13.2449 20.7477C13.2724 20.882 13.5147 20.8272 13.5156 21.0151C13.6238 21.0414 13.6512 21.1488 13.7857 21.1482C13.7594 21.2691 13.8401 21.2823 13.9213 21.2819L13.922 21.4163L14.3532 21.4141L14.3518 21.1453C14.3642 20.9841 14.5667 20.9967 14.7555 21.0089L14.7562 21.1432C14.7566 21.2241 14.7839 21.3043 14.8918 21.277L14.8925 21.4113C15.3368 21.302 15.3253 21.6375 15.595 21.6897L15.5957 21.8373C15.6774 22.0248 15.813 22.1585 16.0021 22.2379C16.0832 22.2375 16.1638 22.2103 16.1363 22.1033C15.733 22.3065 15.7289 21.4875 16.1342 21.687L16.4173 21.6856L16.4159 21.4036C16.2673 21.4044 16.2535 21.2973 16.1321 21.2707C16.1047 21.1632 16.0233 21.1105 15.8621 21.1377L15.8614 21.0033C16.0772 21.0426 16.2379 20.8134 15.9945 20.7338C15.7789 20.7349 15.9118 20.3451 15.723 20.3188C15.7222 20.1713 15.6141 20.1451 15.5871 20.0376C15.613 19.8359 15.5307 19.5276 15.7188 19.4998C15.7192 19.5802 15.7465 19.6609 15.8544 19.6335C15.8154 19.9425 15.8839 20.1437 16.1266 20.1693L16.128 20.4512C16.2494 20.4774 16.2637 20.5981 16.4118 20.5973C16.4392 20.7043 16.5606 20.7305 16.5476 20.8649L16.5483 20.9993C16.8454 21.065 16.8035 20.8101 16.8294 20.5952C16.8556 20.4607 16.7749 20.4611 16.6937 20.4483C16.6927 20.2472 16.7054 20.0587 16.5434 20.0328C16.5562 19.8447 16.5684 19.6567 16.4069 19.6307C16.1095 19.5115 16.4562 18.7447 16.119 18.6656L16.1183 18.5312L15.9833 18.5319C16.009 18.2898 15.8472 18.2102 15.5776 18.252C15.456 18.2794 15.4424 18.1991 15.442 18.1183C15.0377 18.134 15.5457 17.272 15.1547 17.3007L15.1541 17.1663C15.059 17.0193 14.8433 17.0067 14.8688 16.7383L14.7339 16.739C14.545 16.7132 14.6781 16.3361 14.4624 16.3372C14.328 16.3379 14.3541 16.177 14.3266 16.0696L14.178 16.0703C14.2037 15.8282 13.7566 15.4009 13.7578 15.6429C13.5964 15.6301 13.6223 15.4289 13.6213 15.2409L13.4864 15.2416C13.4852 15.0001 13.3766 14.893 13.2149 14.8267C13.1875 14.7192 13.0661 14.693 13.0653 14.5455L12.9304 14.5462C12.9567 14.4389 12.876 14.4257 12.7948 14.4124C12.6465 14.3864 12.5784 14.266 12.5103 14.1456C12.5367 14.0378 12.509 13.8768 12.6439 13.8761L13.345 13.8726C13.3602 14.1681 13.9246 13.9237 14.168 14.0028L15.4216 13.9964L15.4223 14.1308L16.7975 14.1239C16.934 14.4319 17.6607 14.1731 18.0386 14.252L18.1735 14.2513L18.1742 14.3852L18.7267 14.3824L18.726 14.2485L19.144 14.2464C19.1186 14.5421 19.6298 14.3111 19.8326 14.3768L22.3265 14.3642L22.3271 14.4986L23.9718 14.4903L23.9726 14.6378L24.6737 14.6343L24.6743 14.7687L25.6316 14.7638L25.6324 14.9114L28.9486 14.8946L28.9493 15.029L30.0552 15.0234L30.0559 15.1573L32.253 15.1462L32.2517 14.8774C32.4136 14.8902 32.5076 14.8357 32.534 14.7284C32.6957 14.714 32.7904 14.7671 32.8178 14.8745C33.1968 15.1813 33.6662 14.7091 34.1933 15.002L35.7031 14.9943L35.7024 14.8599L35.8505 14.8592C36.0129 14.872 35.9735 15.1006 35.9875 15.2612C36.0019 15.3955 36.1635 15.3679 36.2712 15.3942C36.3269 15.7698 36.7025 15.4056 36.5393 15.1245L36.6742 15.1238L36.6721 14.7075L37.2246 14.7047L37.2253 14.8522L37.3739 14.8515L37.3746 14.9859L37.9139 14.9831L37.9132 14.8488C37.9393 14.6874 38.128 14.6865 38.33 14.6991L38.3307 14.8466C38.3314 14.981 38.224 15.0084 38.1976 15.1161C38.1983 15.25 38.3737 15.2223 38.4814 15.2486C38.711 15.3015 38.7234 15.1402 38.7499 14.9789C38.6687 14.9657 38.588 14.9529 38.6143 14.8452L39.1536 14.8425C39.1794 14.6276 39.5034 14.7063 39.7194 14.6921C39.7748 15.0005 40.394 14.7558 40.6775 14.8348L40.6781 14.9692L42.471 14.9601C42.5789 14.9327 42.6047 14.825 42.7534 14.8243L43.1714 14.8221L43.1721 14.9565L43.8595 14.9531L43.8588 14.8187C44.127 14.5753 44.5446 14.4928 44.6776 14.1167C44.8118 14.062 44.9195 13.9943 44.9461 13.8466C45.0802 13.7787 45.2016 13.7109 45.2278 13.5768C45.0665 13.5913 44.8366 13.552 44.8105 13.7129C44.7031 13.7407 44.5411 13.7142 44.5418 13.8486C44.4341 13.8224 44.3793 13.7287 44.4059 13.581C44.4865 13.5538 44.5676 13.5534 44.5397 13.4328C44.6746 13.4321 44.7009 13.3112 44.8084 13.297C44.8074 13.1091 45.0507 13.1746 45.09 13.0137L45.0881 13.0137ZM39.1479 14.0108C38.7559 13.8243 38.4487 14.3898 38.3256 14.0149L38.3249 13.8806C38.4861 13.759 38.6882 13.6912 39.0121 13.7427C39.0396 13.8502 39.1473 13.8764 39.1479 14.0108ZM42.5942 13.0263C42.6206 12.919 42.7417 12.8911 42.741 12.7568C42.8629 12.7829 42.8625 12.7026 42.8753 12.6222C42.8478 12.5015 42.9284 12.4875 43.0232 12.487C43.1712 12.4595 43.2658 12.5126 43.2933 12.62L43.2953 13.0227L42.5942 13.0263ZM38.9995 11.2584C38.6617 11.0585 38.5971 11.7303 38.8667 11.6754L38.8674 11.8093C38.1942 12.0007 38.4598 11.1671 38.7295 11.1254C38.7417 10.9373 39.0793 10.976 38.9995 11.2584ZM42.6005 14.2612C42.4662 14.2886 42.3281 13.6719 42.1955 14.1293L42.1962 14.2632L41.6437 14.266L41.6416 13.8633L42.1941 13.8605L42.192 13.4447L42.3269 13.444C42.3546 13.5914 42.4899 13.6579 42.5978 13.7245C42.639 13.8587 42.8813 13.8039 42.8822 13.9919L42.8836 14.2602L42.6005 14.2612Z" fill="#C51760"/>
<path fill-rule="evenodd" clip-rule="evenodd" d="M39.7201 15.1084L39.3021 15.1105L39.3035 15.3788L39.9909 15.3753L39.9902 15.2409C39.9628 15.1339 39.8818 15.0808 39.7201 15.1084Z" fill="#C51760"/>
<path fill-rule="evenodd" clip-rule="evenodd" d="M37.3744 15.1203L37.2257 15.121L37.2271 15.3893L37.5102 15.3879L37.5095 15.2535C37.5359 15.1462 37.4555 15.1198 37.3744 15.1203Z" fill="#C51760"/>
</svg>
