<svg width="346" height="314" viewBox="0 0 346 314" fill="none" xmlns="http://www.w3.org/2000/svg">
<path d="M93.822 0.566189C59.7273 10.7359 31.3822 34.4607 17.2001 65.3163C3.01807 96.172 0.811847 130.671 0.103277 163.907C-0.605293 197.143 3.37506 235.426 24.5017 265.132C34.266 278.854 47.1868 290.812 63.0281 298.247C79.6629 306.057 97.8771 309.179 116.22 310.997C134.754 312.836 153.651 314.171 172.263 312.644C182.151 311.83 191.936 310.318 201.47 307.719C210.695 305.196 219.7 301.81 228.317 297.844C245.319 290.036 260.85 279.578 275.188 268.051C288.764 257.145 301.629 245.129 312.912 232.121C324.351 218.939 333.871 204.587 339.417 188.302C344.271 174.066 346.134 158.729 345.115 143.816C343.028 113.086 329.955 83.5437 307.524 60.9459C285.094 38.348 256.578 24.4025 225.811 17.9997C210.281 14.7713 194.229 13.4259 178.357 14.4188C158.354 15.6778 138.647 19.7968 119.426 24.9546C100.204 30.1124 82.4454 36.7551 67.7378 48.8735C54.4017 59.8661 45.7461 74.808 39.4552 90.1561C33.1643 105.504 29.0952 121.409 25.9511 137.387C22.4883 154.948 20.3994 172.79 20.2002 190.663C20.1028 199.184 20.4349 207.696 21.213 216.187C21.9912 224.677 23.0989 233.685 25.0289 242.251C28.5478 257.904 36.2239 274.344 51.901 282.369C60.3453 286.691 69.9259 288.2 79.4435 288.489C88.5773 288.766 97.791 288.261 106.887 287.592C126.154 286.166 145.473 283.308 163.743 277.245C181.835 271.244 198.342 262.477 212.716 250.527C225.48 239.915 236.198 227.093 245.237 213.562C254.277 200.031 262.367 184.243 268.871 168.737C272.182 160.829 275.079 152.762 277.277 144.51C278.353 140.485 279.261 136.415 279.967 132.317C280.838 127.301 281.648 122.214 281.651 117.111C281.655 112.008 281.029 106.75 279.118 102.008C277.004 96.7566 274.167 92.3764 270.439 88.0111C265.184 81.8583 258.305 76.7001 251.105 72.6718C236.816 64.6844 220.158 60.9888 203.675 60.1633C186.316 59.2915 168.631 61.817 152.003 66.3991C133.43 71.5239 115.578 79.3758 99.5954 89.6162C71.0734 107.887 46.39 134.122 37.893 166.193C33.5682 182.507 33.3456 200.039 38.1868 216.304C42.9928 232.443 52.8746 247.101 66.6539 257.826C80.4333 268.552 97.0564 275.989 114.704 279.182C132.352 282.375 150.374 281.976 167.947 278.533C203.608 271.54 234.912 251.529 259.904 227.282C266.003 221.366 271.796 215.167 277.266 208.729C283.014 201.962 288.508 194.987 293.064 187.451C297.62 179.915 301.339 171.917 303.59 163.565C305.842 155.212 306.895 145.696 306.531 136.699C306.166 127.703 304.688 118.361 302.168 109.524C299.648 100.688 295.651 91.1605 290.094 83.1525C279.905 68.4634 264.778 57.4014 248.771 48.6761C232.765 39.9507 214.758 33.8165 196 33.9712C185.98 34.0555 175.942 35.62 166.238 37.8648C156.601 40.0932 147.076 42.8342 137.974 46.5717C128.872 50.3092 121.046 55.4132 114.695 62.192C108.749 68.5439 104.015 75.7379 100.254 83.3984C92.428 99.3239 87.4383 116.129 84.832 133.48C82.2257 150.832 82.5643 167.28 85.1274 184.112C86.3566 192.193 88.3873 199.905 91.7504 207.455C95.1135 215.006 100.601 221.844 107.847 226.807C115.571 232.086 125.611 233.839 134.988 233.844C143.213 233.851 151.569 232.813 159.566 231.082C174.472 227.846 188.89 221.72 201.384 213.451C214.69 204.636 226.127 193.76 235.015 180.941C244.208 167.7 250.634 152.175 252.045 136.359C252.884 126.886 251.183 117.116 246.4 108.678C242.204 101.273 235.472 95.2786 227.97 90.8321C220.873 86.6241 212.697 83.7023 204.507 82.0569C194.532 80.0565 183.756 79.496 174.107 83.0777C169.216 84.8896 165.144 87.1669 161.085 90.2996C157.719 92.8964 154.975 96.0646 152.409 99.3534C147.594 105.525 144.301 112.763 141.722 119.98C139.143 127.198 137.316 134.936 136.026 142.571C134.334 152.523 133.65 162.258 135.103 172.281C135.735 176.641 136.87 180.887 138.589 184.981C139.841 187.955 141.084 190.602 143.485 192.977C146.349 195.798 150.151 197.117 154.182 197.492C158.468 197.892 163.226 196.855 167.3 195.58C171.375 194.305 175.218 192.72 178.791 190.642C186.173 186.341 192.345 180.541 197.094 173.73C201.842 166.918 204.574 159.142 205.62 151.074C206.666 143.006 205.069 135.449 201.437 128.408C197.805 121.367 191.105 115.229 182.95 113.267C171.84 110.589 161.904 115.755 153.27 121.76C145.482 127.183 138.124 133.079 131.45 139.696C124.776 146.312 118.857 153.092 113.919 160.625C108.664 168.641 105.005 177.733 104.639 187.207C104.27 197 107.731 206.812 114.947 213.99C120.867 219.874 129.228 223.639 137.582 225.321C156.168 229.076 175.699 225.319 192.708 217.943C209.073 210.84 223.112 199.492 233.427 185.669C243.025 172.812 248.958 157.474 250.205 141.805C250.815 134.162 250.063 126.282 248.041 118.858C245.721 110.368 241.64 101.903 235.056 95.5539C227.414 88.1804 217.201 85.6595 206.688 84.4177C197.131 83.2893 187.445 83.8707 177.974 85.4029C159.286 88.4241 141.557 96.2749 126.099 106.406C110.833 116.414 96.8928 128.374 84.4078 141.309C71.9228 154.245 61.7014 167.814 57.1356 184.149C52.7061 199.978 54.2631 218.618 64.325 232.412C69.426 239.412 76.2742 245.234 84.5472 248.759C92.8202 252.284 101.693 254.129 110.851 254.564C119.197 254.966 127.622 254.142 135.829 252.794C143.063 251.606 150.184 249.789 157.075 247.412C172.379 242.14 186.272 234.648 198.971 225.093C222.154 207.655 239.658 182.951 246.897 155.836C248.155 151.102 245.327 145.504 239.993 144.328C234.658 143.152 229.077 145.731 227.733 150.785C226.178 156.624 224.123 162.334 221.611 167.876L222.603 165.686C218.291 175.13 212.677 183.995 206.007 192.135L207.558 190.252C200.362 198.973 191.987 206.786 182.684 213.524L184.73 212.05C175.288 218.841 164.937 224.475 153.932 228.725L156.401 227.775C146.258 231.651 135.626 234.325 124.754 235.592L127.404 235.292C119.701 236.16 111.904 236.329 104.211 235.285L106.766 235.635C102.087 234.965 97.52 233.852 93.1485 232.113L95.4858 233.047C92.2147 231.715 89.1399 230.054 86.2994 228.019L88.3101 229.476C85.7247 227.58 83.4257 225.422 81.4034 223.003L82.9781 224.924C80.6049 222.021 78.6893 218.844 77.2008 215.465L78.218 217.782C76.4876 213.758 75.3777 209.564 74.8046 205.267L75.129 207.753C74.5277 202.914 74.5993 198.055 75.3084 193.232L74.9392 195.628C75.781 190.214 77.4602 185.001 79.7352 179.97L78.7434 182.16C82.1008 174.859 86.6451 168.126 91.8051 161.831L90.2546 163.714C95.9337 156.849 102.297 150.52 108.878 144.418C116.056 137.765 123.559 131.429 131.543 125.64L129.498 127.113C139.82 119.683 150.952 113.241 163.012 108.608L160.543 109.558C169.216 106.272 178.268 103.936 187.558 102.824L184.908 103.125C192.64 102.249 200.441 102.243 208.156 103.291L205.601 102.941C209.401 103.479 213.157 104.23 216.735 105.594L214.398 104.66C216.529 105.519 218.511 106.578 220.353 107.912L218.343 106.455C220.242 107.881 221.9 109.512 223.398 111.306L221.824 109.386C224.046 112.151 225.788 115.188 227.214 118.379L226.197 116.062C228.279 120.868 229.636 125.909 230.352 131.048L230.028 128.562C230.806 134.516 230.671 140.509 229.778 146.437L230.147 144.042C229.102 150.644 227.112 157.061 224.334 163.199L225.326 161.008C222.291 167.624 218.372 173.837 213.692 179.533L215.243 177.649C210.405 183.48 204.795 188.641 198.549 193.146L200.594 191.673C194.001 196.369 186.824 200.264 179.175 203.241L181.644 202.291C174.354 205.084 166.726 206.995 158.91 207.901L161.56 207.601C155.635 208.248 149.659 208.348 143.74 207.546L146.295 207.896C142.536 207.358 138.855 206.473 135.34 205.113L137.678 206.046C134.981 204.969 132.437 203.623 130.117 201.942L132.127 203.399C130.311 202.049 128.702 200.523 127.277 198.807L128.852 200.727C127.473 198.991 126.355 197.122 125.469 195.13L126.486 197.447C125.483 195.069 124.841 192.622 124.504 190.09L124.828 192.576C124.479 189.672 124.533 186.775 124.938 183.879L124.568 186.274C125.144 182.555 126.305 178.983 127.867 175.524L126.876 177.715C129.576 171.924 133.308 166.663 137.412 161.667L135.862 163.551C143.871 153.878 153.177 145.201 163.53 137.734L161.485 139.208C165.683 136.205 170.003 133.125 174.908 131.213L172.439 132.163C174.099 131.555 175.778 131.126 177.549 130.915L174.898 131.215C176.163 131.109 177.411 131.122 178.677 131.276L176.123 130.926C177.411 131.122 178.643 131.448 179.855 131.924L177.518 130.99C178.833 131.537 180.03 132.219 181.172 133.03L179.161 131.573C180.639 132.668 181.916 133.928 183.067 135.325L181.492 133.405C182.916 135.189 184.064 137.127 184.996 139.175L183.978 136.858C185.053 139.306 185.786 141.857 186.158 144.476L185.833 141.99C186.246 145.197 186.155 148.441 185.679 151.634L186.049 149.238C185.483 152.771 184.443 156.189 182.978 159.479L183.969 157.288C182.34 160.84 180.247 164.168 177.744 167.239L179.294 165.355C176.754 168.406 173.845 171.133 170.583 173.511L172.628 172.038C169.482 174.282 166.076 176.146 162.423 177.568L164.892 176.618C161.777 177.794 158.532 178.654 155.195 179.073L157.846 178.773C156.728 178.892 155.64 178.936 154.517 178.815L157.071 179.165C156.448 179.066 155.874 178.927 155.28 178.715L157.618 179.649C157.162 179.451 156.783 179.235 156.369 178.97L158.38 180.427C157.851 180.006 157.409 179.565 156.978 179.052L158.553 180.973C157.866 180.022 157.349 179.02 156.888 177.956L157.905 180.273C156.107 176.005 154.963 171.578 154.35 167.031L154.675 169.517C153.741 162.164 154.18 154.755 155.272 147.438L154.903 149.834C156.546 139.228 159.1 128.535 163.531 118.637L162.539 120.828C164.648 116.194 167.212 111.758 170.493 107.754L168.943 109.638C171.103 107.065 173.524 104.728 176.286 102.732L174.241 104.206C176.552 102.58 179.034 101.232 181.692 100.187L179.223 101.137C181.93 100.119 184.726 99.4557 187.615 99.0877L184.964 99.3879C189.031 98.9345 193.101 99.0786 197.152 99.5939L194.597 99.2437C200.603 100.063 206.49 101.595 212.085 103.817L209.748 102.883C214.096 104.647 218.21 106.825 221.958 109.536L219.948 108.079C222.718 110.122 225.241 112.419 227.42 115.031L225.845 113.11C227.89 115.61 229.552 118.32 230.839 121.236L229.822 118.919C231.121 122.026 231.956 125.236 232.397 128.543L232.072 126.057C232.625 130.648 232.442 135.254 231.754 139.821L232.123 137.425C230.984 144.609 228.689 151.593 225.681 158.269L226.673 156.079C223.06 164.012 218.363 171.448 212.768 178.283L214.318 176.399C208.206 183.814 201.094 190.442 193.183 196.164L195.228 194.69C187.049 200.556 178.086 205.417 168.551 209.077L171.02 208.126C162.21 211.474 152.992 213.764 143.546 214.837L146.196 214.537C139.924 215.23 133.538 215.516 127.264 214.657L129.818 215.007C126.828 214.57 123.924 213.852 121.136 212.739L123.473 213.673C121.23 212.745 119.158 211.583 117.206 210.188L119.217 211.645C117.025 210.02 115.094 208.148 113.385 206.077L114.96 207.998C112.461 204.904 110.521 201.491 108.936 197.914L109.953 200.231C106.659 192.597 105.086 184.464 103.994 176.321L104.318 178.807C102.357 163.835 102.533 148.678 104.788 133.747L104.418 136.142C106.634 121.77 110.737 107.68 116.757 94.3075L115.765 96.498C118.962 89.4673 122.745 82.6598 127.695 76.5704L126.145 78.4537C129.182 74.7895 132.599 71.4567 136.51 68.6015L134.465 70.0752C139.264 66.6462 144.586 64.0248 150.156 61.8832L147.687 62.8334C154.054 60.4198 160.653 58.5766 167.271 56.912C173.889 55.2473 180.84 53.8196 187.77 53.0143L185.119 53.3145C192.527 52.4891 199.988 52.3737 207.384 53.3452L204.829 52.995C212.505 54.0522 219.926 56.1843 227.064 59.0319L224.727 58.0982C235.736 62.5467 246.159 68.5077 255.659 75.3596L253.649 73.9024C260.177 78.6541 266.211 83.9897 271.268 90.133L269.694 88.2125C273.838 93.3344 277.17 98.9344 279.795 104.871L278.778 102.554C282.567 111.264 284.94 120.493 286.206 129.81L285.881 127.323C286.993 135.867 287.083 144.507 285.774 153.034L286.143 150.639C285.067 157.383 283.075 163.907 280.253 170.181L281.245 167.991C276.79 177.73 270.585 186.614 263.713 194.987L265.263 193.103C252.447 208.608 237.764 222.91 221.163 234.874L223.208 233.4C211.352 241.89 198.489 249.131 184.684 254.47L187.153 253.52C175.896 257.822 164.087 260.774 152.015 262.199L154.666 261.898C144.054 263.102 133.314 263.111 122.724 261.705L125.278 262.055C116.287 260.817 107.487 258.569 99.1221 255.23L101.459 256.164C94.2481 253.237 87.4472 249.536 81.2088 245.051L83.2194 246.508C77.5816 242.407 72.4842 237.701 68.1156 232.402L69.6903 234.323C65.529 229.214 62.1415 223.638 59.5266 217.698L60.5439 220.016C57.7089 213.436 55.8666 206.546 54.9203 199.514L55.2447 202.001C54.2346 194.078 54.3623 186.07 55.5481 178.171L55.1789 180.566C56.4461 172.406 58.8599 164.486 62.2764 156.881L61.2846 159.071C65.3934 150.043 70.8099 141.612 77.1923 133.842L75.6418 135.725C83.7871 125.875 93.3939 117.172 103.919 109.586L101.874 111.06C114.39 102.1 128.124 94.7043 142.684 89.0842L140.215 90.0345C154.145 84.703 168.792 80.9807 183.746 79.2766L181.096 79.5767C191.906 78.3832 202.862 78.3401 213.646 79.7764L211.091 79.4263C219.011 80.5106 226.787 82.4019 234.172 85.3242L231.835 84.3905C237.647 86.7228 243.135 89.6646 248.145 93.2828L246.134 91.8256C250.219 94.8209 253.961 98.2085 257.135 102.063L255.56 100.142C257.533 102.602 259.226 105.208 260.52 108.036L259.503 105.719C260.707 108.482 261.453 111.338 261.836 114.292L261.512 111.806C262.096 116.881 261.673 121.952 260.92 126.987L261.29 124.592C258.862 140.375 253.518 155.579 246.905 170.215L247.896 168.024C239.708 186.074 229.787 203.553 216.998 219.118L218.549 217.235C210.648 226.784 201.669 235.526 191.46 242.919L193.506 241.446C184.131 248.182 173.821 253.593 162.893 257.787L165.361 256.836C149.727 262.767 133.18 266.201 116.467 268.123L119.118 267.823C110.798 268.765 102.439 269.35 94.0652 269.659C86.5065 269.943 78.8796 270.166 71.3613 269.196L73.916 269.546C69.9716 269.005 66.1218 268.103 62.4533 266.636L64.7906 267.57C62.1861 266.489 59.7571 265.153 57.503 263.524L59.5137 264.981C57.0255 263.139 54.8281 261.014 52.8863 258.662L54.461 260.583C51.737 257.197 49.5951 253.467 47.8636 249.55L48.8809 251.867C44.917 242.717 43.1796 232.928 41.8747 223.177L42.1992 225.663C39.7148 206.758 39.5416 187.626 41.3395 168.669C41.8579 163.238 42.5382 157.834 43.3634 152.434L42.9942 154.829C44.7601 143.412 47.1786 132.087 50.2142 120.91C53.0001 110.642 56.2286 100.45 60.6324 90.6742L59.6405 92.8647C63.2296 84.9569 67.5995 77.3792 73.1632 70.542L71.6127 72.4253C75.7363 67.4251 80.467 62.9421 85.8011 59.0737L83.7558 60.5474C90.8371 55.5 98.714 51.6085 106.928 48.4448L104.459 49.3951C114.669 45.5027 125.296 42.6951 135.961 40.1383C147.454 37.3793 159.078 35.0514 170.868 33.686L168.218 33.9862C182.678 32.3544 197.223 32.3896 211.652 34.363L209.097 34.0128C222.64 35.9038 235.895 39.3791 248.496 44.4129L246.158 43.4791C257.797 48.1595 268.812 54.14 278.852 61.3808L276.842 59.9236C286.102 66.651 294.467 74.4071 301.598 83.1204L300.024 81.1999C306.931 89.6979 312.571 99.0357 316.901 108.906L315.884 106.589C320.359 116.906 323.383 127.732 324.855 138.782L324.531 136.296C325.894 146.842 325.839 157.504 324.234 168.023L324.603 165.628C323.174 174.754 320.579 183.682 316.765 192.185L317.757 189.994C313.341 199.724 307.325 208.698 300.472 217.065L302.023 215.182C294.684 224.092 286.474 232.347 277.953 240.264C269.236 248.363 260.064 256.043 250.34 263.077L252.385 261.603C238.87 271.328 224.275 279.763 208.488 285.847L210.957 284.897C199.337 289.336 187.205 292.386 174.733 293.812L177.384 293.512C165.16 294.867 152.826 294.803 140.556 294.154C129.068 293.546 117.548 292.675 106.16 291.136L108.715 291.486C97.4154 289.934 86.2221 287.547 75.6752 283.352L78.0126 284.286C71.4076 281.617 65.2018 278.243 59.4916 274.14L61.5022 275.597C55.0513 270.903 49.3411 265.402 44.348 259.339L45.9226 261.26C39.5546 253.44 34.4362 244.795 30.4464 235.7L31.4637 238.017C26.2638 226.025 23.1817 213.372 21.4513 200.552L21.7757 203.038C20.1335 190.534 19.7639 177.912 20.0004 165.326C20.2121 153.681 20.7782 142.017 21.7817 130.41C22.3125 124.214 23.015 118.043 23.9493 111.893L23.5801 114.288C25.7621 100.165 29.2489 86.1869 35.18 73.0099L34.1882 75.2005C38.1441 66.5086 43.1457 58.2847 49.2975 50.7927L47.747 52.676C53.7308 45.4661 60.6551 39.0102 68.3547 33.4163L66.3095 34.89C74.457 29.0227 83.3746 24.1826 92.8808 20.5297L90.4117 21.48C93.2004 20.4227 96.0264 19.4624 98.8922 18.6081C103.845 17.1283 107.646 12.2261 105.994 7.22863C104.466 2.60567 99.1521 -1.03467 93.8484 0.550104L93.822 0.566189Z" fill="#27968A"/>
</svg>
