<svg width="232" height="211" viewBox="0 0 232 211" fill="none" xmlns="http://www.w3.org/2000/svg">
<path d="M35.5154 97.8654C25.0082 105.067 14.5026 112.264 3.99539 119.466C2.60935 120.418 1.54848 121.343 1.08051 122.941C0.683792 124.296 0.867825 126.077 1.70574 127.284C2.57623 128.534 3.87601 129.623 5.5024 129.951C7.00634 130.255 8.95266 130.264 10.248 129.378C21.5041 121.631 32.9279 114.085 44.4997 106.741C56.0409 99.4128 67.7361 92.2887 79.5567 85.3553C91.3527 78.4396 103.28 71.7161 115.333 65.1834C118.406 63.513 121.486 61.8621 124.576 60.2196C122.163 62.0043 119.749 63.789 117.345 65.5877C106.146 73.9593 95.0637 82.4605 84.0992 91.0912C73.0746 99.7723 62.172 108.59 51.4005 117.535C40.6136 126.487 29.958 135.567 19.4335 144.774C18.1257 145.923 16.8135 147.065 15.5118 148.215C13.2602 150.2 13.1322 153.511 14.9816 155.73C16.7063 157.8 20.5163 158.918 23.0399 157.243C35.426 149.02 47.8507 140.842 60.404 132.844C72.9574 124.846 85.641 117.022 98.5433 109.512C111.28 102.104 124.233 94.9979 137.474 88.3654C150.586 81.7962 163.983 75.6936 177.697 70.2555C178.502 69.9374 179.315 69.6152 180.119 69.3026C180.376 69.1996 180.637 69.1037 180.894 69.0007C169.74 76.1331 158.585 83.2711 147.425 90.402C123.723 105.558 100.02 120.719 76.3189 135.875C63.0142 144.382 49.7156 152.891 36.4126 161.393C35.0263 162.279 33.9495 163.325 33.4978 164.868C33.101 166.222 33.2851 168.004 34.123 169.211C35.8358 171.675 39.7708 173.096 42.6652 171.305C66.5309 156.539 90.5743 142.006 114.68 127.572C122.312 123.001 129.95 118.456 137.591 113.899C128.587 120.546 119.7 127.321 110.937 134.228C101.872 141.369 92.9396 148.654 84.1383 156.067C75.3278 163.49 66.6528 171.046 58.115 178.731C57.0783 179.662 56.04 180.598 55.0077 181.537C52.6809 183.645 52.4817 187.531 54.9613 189.632C57.4453 191.74 61.3272 191.927 63.8069 189.673C76.8205 177.871 90.1563 166.36 103.805 155.176C117.429 144.009 131.362 133.155 145.581 122.632C147.879 120.931 150.193 119.241 152.506 117.556C139.742 129.082 127.212 140.825 114.942 152.786C106.017 161.484 97.2262 170.298 88.567 179.215C86.4791 181.37 86.0716 184.376 88.0368 186.73C89.8133 188.866 93.4943 189.828 96.0951 188.243C114.657 176.93 131.561 163.539 148.204 150.001C156.438 143.308 164.627 136.569 172.985 130.008C175.567 127.98 178.18 125.977 180.802 123.989C179.806 124.936 178.814 125.89 177.818 126.837C163.499 140.465 149.061 153.992 134.513 167.409C126.344 174.941 118.139 182.441 109.898 189.908C107.995 191.629 107.403 194.713 108.877 196.841C110.321 198.919 113.243 200.305 115.947 199.498C132.349 194.606 146.95 186.073 160.928 177.014C164.397 174.765 167.837 172.479 171.292 170.191C164.42 175.393 157.55 180.589 150.684 185.792C144.053 190.815 137.417 195.831 130.785 200.854C129.646 201.713 128.854 203.646 128.926 204.967C128.996 206.235 129.406 207.355 130.249 208.367C132.195 210.699 135.498 211.183 138.307 209.88C148.426 205.197 158.547 200.507 168.667 195.824C167.297 196.786 165.928 197.748 164.562 198.717C163.365 199.555 162.698 201.525 162.704 202.83C162.715 204.208 163.39 205.86 164.514 206.818C165.717 207.841 167.316 208.595 169.009 208.518C170.749 208.435 171.997 207.822 173.366 206.86C187.909 196.624 202.452 186.387 216.993 176.156C221.137 173.237 225.287 170.32 229.431 167.401C230.581 166.593 231.357 164.561 231.29 163.288C231.22 162.02 230.81 160.901 229.967 159.888C228.021 157.556 224.718 157.072 221.909 158.375C208.665 164.509 195.428 170.639 182.184 176.773C191.402 169.794 200.619 162.821 209.837 155.842C216.468 150.819 223.105 145.803 229.736 140.779C231.775 139.235 232.139 135.846 230.756 133.847C229.23 131.654 226.481 130.559 223.687 131.19C211.393 133.948 199.99 139.099 189.238 145.151C193.541 141.666 197.859 138.197 202.208 134.754C208.085 130.097 213.998 125.472 219.937 120.89C221.118 119.976 221.802 118.147 221.796 116.776C221.785 115.399 221.11 113.746 219.985 112.789C218.783 111.765 217.184 111.012 215.491 111.088C213.79 111.169 212.439 111.739 211.134 112.746C208.85 114.509 206.57 116.279 204.289 118.055C204.658 117.701 205.02 117.351 205.389 116.997C213.368 109.294 221.318 101.56 229.227 93.7918C231.37 91.692 231.682 88.5922 229.757 86.2773C227.817 83.9469 224.51 83.4561 221.699 84.764C204.692 92.6899 189.168 102.982 174.415 114.026C181.235 108.03 188.108 102.094 195.058 96.2245C204.617 88.1499 214.308 80.1967 224.106 72.3645C225.983 70.8632 226.341 68.0946 225.434 66.1063C225.004 65.1653 224.395 64.4353 223.516 63.811C222.521 63.0987 220.974 62.4113 219.664 62.5704C216.462 62.9587 213.309 63.4894 210.195 64.172L224.776 54.8456C227.357 53.1967 228.645 50.4784 227.373 47.7015C226.189 45.1119 223.028 43.5904 219.998 44.3645C205.741 48.0102 191.769 52.5378 178.108 57.7518C175.133 58.8892 172.175 60.0602 169.223 61.2507C170.716 60.4432 172.21 59.6303 173.707 58.8298C181.094 54.8748 188.512 50.9689 195.955 47.1106C198.809 45.6353 200.049 41.886 198.245 39.2925C196.414 36.657 192.748 35.6219 189.703 37.1984C176.466 44.0573 163.321 51.069 150.286 58.2378C145.973 60.6057 141.677 63.0017 137.385 65.4101C143.372 61.0171 149.388 56.6607 155.438 52.3422C158.285 50.3143 161.136 48.2933 163.992 46.2794C165.42 45.2724 166.854 44.2669 168.287 43.267C168.564 43.074 168.84 42.8811 169.117 42.6882C169.246 42.6013 169.369 42.5129 169.5 42.4205C170.216 41.9205 170.938 41.422 171.654 40.9221C177.399 36.9377 183.173 32.9844 188.97 29.0661C190.422 28.0886 191.873 27.1112 193.323 26.1393C194.709 25.2108 195.775 24.2455 196.238 22.6642C196.635 21.3096 196.451 19.5282 195.613 18.3213C193.708 15.5846 190.194 14.7824 187.071 16.2271C174.647 21.9697 162.318 27.8775 150.091 33.9647C149.356 34.3297 148.631 34.7032 147.896 35.0682C149.703 33.8282 151.517 32.5897 153.324 31.3497C154.645 30.4411 155.858 29.4405 156.238 27.8747C156.544 26.6103 156.469 25.4067 155.921 24.2056C154.718 21.57 151.6 20.1657 148.546 20.8687C132.401 24.6146 116.774 29.9512 101.531 36.0574C101.274 36.1604 101.016 36.2689 100.759 36.3719C105.839 32.9119 110.918 29.4519 115.998 25.992C123.213 21.0763 130.427 16.1661 137.642 11.2505C139.025 10.3095 140.091 9.36774 140.557 7.77539C140.954 6.42077 140.77 4.63934 139.932 3.43244C139.061 2.18198 137.762 1.09296 136.135 0.765369C134.43 0.418526 132.977 0.672552 131.39 1.33831C117.251 7.25315 103.115 13.1625 88.9767 19.0773C91.103 17.3882 93.2278 15.7046 95.3541 14.0155C97.833 12.0513 97.765 7.92798 95.4005 5.92016C92.776 3.69453 89.1971 3.77716 86.5549 5.87907C73.6092 16.1455 60.6679 26.419 47.7222 36.6855C45.368 38.5558 45.4198 42.0708 47.1919 44.2C49.1897 46.598 52.3728 46.9161 55.2503 45.7133C64.7329 41.7446 74.2215 37.7773 83.7024 33.8141C73.9321 40.4679 64.1617 47.1216 54.3897 53.7809C47.1745 58.6966 39.9608 63.6068 32.7456 68.5224C31.3628 69.4635 30.297 70.4052 29.8307 71.9975C29.4339 73.3521 29.618 75.1336 30.4559 76.3405C32.2958 78.9901 35.9457 79.9915 38.9981 78.4346C53.4114 71.0939 67.8292 63.7601 82.5456 56.9322C89.851 53.5438 97.2283 50.2857 104.698 47.2219C106.508 46.4804 108.328 45.7474 110.15 45.0325C110.94 44.7225 111.73 44.4125 112.524 44.1095C112.524 44.1095 112.512 44.1065 112.503 44.1161C112.509 44.1176 112.524 44.1095 112.538 44.1069C112.654 44.0642 112.772 44.0161 112.888 43.9734C112.938 43.9561 112.989 43.9389 113.037 43.9271C113.111 43.8977 113.178 43.8668 113.236 43.8455C113.724 43.6627 114.211 43.48 114.7 43.2917C115.042 43.1622 115.387 43.0453 115.729 42.9159C107.524 48.537 99.3171 54.1637 91.1117 59.7848C72.5774 72.4857 54.0432 85.1866 35.5029 97.8861L35.5154 97.8654Z" fill="#DBD94E"/>
</svg>
