<svg xmlns="http://www.w3.org/2000/svg" viewBox="0 0 114 56" xmlns:v="https://vecta.io/nano"><g fill="#fff"><path d="M53.4 52.7c-.7 0-1.4-.1-2.1-.1-6.7-.5-12.7-3.6-17-8.8-4.3-5.1-6.4-11.6-5.9-18.2.5-6.7 3.6-12.7 8.8-17 5.1-4.3 11.6-6.4 18.2-5.9 6.7.5 12.7 3.6 17 8.8 4.3 5.1 6.4 11.6 5.9 18.2-.5 6.7-3.6 12.7-8.8 17-4.5 4-10.2 6-16.1 6zm0-48.1c-5.5 0-10.7 1.9-14.9 5.5-4.7 4-7.6 9.6-8.1 15.7s1.4 12.1 5.4 16.8 9.6 7.6 15.7 8.1 12.1-1.4 16.8-5.4 7.6-9.6 8.1-15.7S75 17.5 71 12.8C67 8 61.5 5.1 55.3 4.6h-1.9z"/><path d="M49.2 3.9l.2-.1c0 .1-.2.1-.2.1z"/><path d="M49.5 3.9h-.2-.1.3 0zm28.1 23.5v-.5-.2-.1c-.1-.6-.1-1.4-.2-2 0 .2.1.3.1.5v-.2l-.1-.3-.4-2.4-.3-1.3c-.8-2.4-.8-2.4-1.4-3.5.1.2.2.4.2.5l-.2-.5c-1.1-2.1-1.2-2.4-1.9-3.3l-2.2-2.8-.1-.1-2.8-2.5-3.1-2.1-1.4-.7h.1c-.1-.1-.2-.1-.3-.2s-.1-.1-.3-.1h-.1-.1c.1.1.3.1.4.2h.1c.1 0 .1.1.2.1h.1c.1 0 .1.1.1.1h0l-.6-.3h-.1c-.1 0-.1-.1-.1-.1-.1 0-.1-.1-.1-.1-.1-.1-.1-.1-.3-.2h-.1c-.1-.1-.2-.1-.2-.1h-.1c-.2-.1-.3-.1-.4-.2-.1 0-.2 0-.4-.1h-.1-.1c.1 0 .1.1.1.1-.1 0-.1 0-.1-.1.1 0 .1.1.2.1h-.1c-.1 0-.1 0-.1-.1-.1-.1-.2-.1-.2-.1-.1 0-.1 0-.3-.1-.1 0-.1-.1-.2-.1h-.1l.8.3h-.1c.3.1.4.1.4.1h.1c.1 0 .1 0 .1.1.1 0 .1.1.1.1-.1 0-.1 0-.2-.1h-.1-.1c.1.1.2.1.3.1.1.1.1.1.2.1H62c.1.1.1.1.8.4.1 0 .1.1.1.1l.1.1h-.1V6h-.1-.1.1 0-.1l.7.4c.1 0 .1 0 .3.1.1 0 .1.1.1.1l.1.1c-.1 0-.1 0-.5-.2h-.1c-.1 0-.1-.1-.2-.1H63v.1l.1.1c.1 0 .2 0 .3.1l-.2-.1c.1.1.2.2.3.2h.1c.1 0 .4.2.4.2-.2-.1-.5-.1-.7-.3l-.1-.1c-.4-.2-.4-.2-.5-.3h-.1c.3.2.3.2.4.2v.1h-.1l.2.2h.1c.6.4.6.4.7.4.2.1.3.2.5.3h.1l-.1-.1h0c.3.1.5.3.7.4a.76.76 0 0 0-.4-.2l-.1.1.7.7h-.1v.1c0 .1.1.1.1.1l.1.1c-.1 0-.1 0-.2-.1H65h-.1c0-.1-.1-.1-.1-.1h.2c0-.1.1-.1-.2-.3 0-.1 0-.1-.9-.8l-.1-.1c-.3-.3-.3-.3-.7-.6-.1-.1-.2-.2-.3-.2h.1l-.3-.2c-.1 0-.2-.1-.2-.1h-.1-.1v.1h-.1c.1.1.5.4.5.4l-.1.1.1.1.1.1.1.1h.1c.1 0 .3.2.3.2.1.1.2.2.7.4.2.1.2.1.3.3h-.1C64 8 64 8 63 7.5h-.2c-.1 0-.1-.1-.2-.1h-.2c-.1-.1-.3-.1-.4-.2-.1 0-.1-.1-.2-.1h-.1v.1c.3.3.7.2 1 .6l-.1.1c0 .1.1.1.1.2h-.1c-.2-.2-.2-.2-.2-.3h-.1v.1l.1.1h-.1-.1-.1c1 1.1 2 2.4 2.8 3.9-.8-1.5-1.8-2.8-2.8-3.9v.1H62h-.1-.1c0 .1.1.1.1.1h-.1l-.3-.3V8h-.1v.1l-.1.1h-.1v.1h-.1c-.1.1-.1.1-.1.2h-.1l.2-.5c.2.1.2.1.2.2l-.2.2H61c-.3-.3-.3-.3-.4-.3h.2c-.1-.1-.1-.1-.1-.2-.1 0-.1-.1-.1-.1-.1-.1-.1-.1-.2-.1h-.1c-.1-.1-.1-.1-.2-.1H60c-.1.1 0 .1 0 .1h.1l.3.3c0 .1 0 .1.1.2.1 0 .1 0 .2.1v.1c0 .1.1.2.1.2-.2 0-.2 0-.2-.1l-.1-.1h-.3c0 .1 0 .1-.1.1-.1.1-.1.1-.1.2h-.1c.1.2.3.3.4.4-.2 0-.2 0-.3-.1h-.1c-.4-.1-.4-.2-.5-.2 0 .1-.1.1-.1.1 0 .1 0 .2.2.2l.1.1.1.1c.1 0 .2 0 .3.1v.1h-.2l-.1.1L59 9h-.2l-.1-.2c-.1-.4-.6-.3-.7-.7.2.1.7.3.7.3h.4c.1 0 .2.1.3.1h.1.1c.8-.3 0-.7 0-.7l-.6-.2c-.1-.1-.1-.1-.2-.1-.1-.1-.1-.1-.3-.1h-.1c-.1-.1-.1-.1-.2-.1H58l.1.1-.1.1v-.1h0v-.1l-.2-.2h-.1l-.1.1c-.1 0-.2-.1-.3-.1s-.1-.1-.1-.1h.1s0-.1.1-.1c-.1-.1-.2-.2-.4-.2 0 .1 0 .1.1.1H57l-.1-.1v.1-.1h-.3c0 .1.1.1.1.1v.1l-.1.1c0-.1 0-.1-.1-.2h-.1l-.1-.1h-.1c-.1.1-.1.1-.2.1 0 .1 0 .1-.1.1h.1v-.1c0-.1-.1-.1-.1-.1-.1 0-.1.1-.2.1 0 .1 0 .1.2.2 0 .1 0 .1.1.1h-.1c-.1 0-.1 0-.2-.1h-.1v.2c0-.1-.1-.1-.1-.1-.1 0-.2-.2-.3-.2V7c.1.2-.1.3-.1.3 0-.1-.1-.1-.1-.1v.1h-.1l-.1.1c.1 0 .1.1.1.1v.1l-.1.1-.2-.1v-.2h-.1v.1c-.2 0-.2 0-.2.1l.1.1-.1.1c-.1 0-.1 0-.2.1H54l-.5.1h-.1l-.1.1h.1c.2-.1.2-.1.3-.1.2-.2.3-.1.4-.1V8c-.1 0-.1 0-.3.1.3-.3.2-.2.2-.1h-.1c-.1.2-.3.2-.3.2-.1.1-.1.3-.2.4h0c-.1.1-.1.1-.4.2v.1h.1.1c-.1.3-.4.3-.5.5-.1 0-.1 0-.2-.1h-.1v.1.1c-.1 0-.1.1-.1.1h-.1c-.1.1-.2.1-.3.2-.1.2-.3.2-.4.3v.2l-.1.3h-.1c-.1.1-.1.1-.1.2h.2.1l.1.1c0 .1-.1.1-.1.1.1.3.1.3-.1.3V11c.1.1.1.1.2.1 0 .1 0 .1-.1.2.3 0 .7 0 1 .1.1-.1.1-.1.3-.2v-.1c.1 0 .1.1.2.2v.1c.6.1 1.1.1 1.7.1.1-.1.1-.1.2-.1 0-.1 0-.1.2-.2v-.1-.1h-.3c0-.2 0-.2-.1-.2s-.1-.1-.1-.1v-.5l.2-.4c.3-.1.5-.4.5-.4.1-.1.1-.1.2-.1l.1-.1c-.1-.2.1-.4.1-.6h.2l.2.2.1-.1c.1.1.1.1.2.1v.3h-.2c.1.2.1.2-.7.8 0 .2 0 .4.1.5v.1.2c.1.1.7.4.7.4h.1c.2-.1.4-.1.5-.1v-.1h.5c.1 0 .1-.1.1-.1 0 .1.1.1.1.1.2.1.2.1.3.1l.1.1-.1-.1c-.3 0-.4 0-.5.3-.3.1-.6-.2-.9 0-.1-.1-.1-.1-.2 0 0 .1-.1.1-.1.1l6.2.2c-2 0-4.1-.1-6.2-.1h-.1-.1s-.1 0-.1-.1v-.1h-.1-.1v.1l.1.1h.1c-.1.1-.2.1-.2.1v.1c.1.1.1.1.3.1l.2-.2c.2.1.2.2.4.3v.1c-.1 0-.2.1-.2.2l-.1.1h-.1c0-.1-.1-.1-.1-.1l-.1-.1V12h-.1l-.2.2c-.1.3-.2.8-.2.8l.1.1-.1.1c-.4-.1-.4-.1-.5 0 0 .1.1.2.2.2v.1h-.1c-.2-.1-.3-.2-.4-.3-.9.4-1.2.5-1.2.1h-.1c-.1.1-.2.1-.2.1H53h-.1v.1c-.1.1-.1.1-.2.1s-.1 0-.1-.1-.1-.1-.1-.2h-.1v-.1-.1h.2c.1.1.2.1.4.1.1-.1.2-.2.2-.5l-.1-.1c-.2.1-.2.1-.3.2 0 .1-.1.1-.1.1 0-.1-.1-.1-.1-.1l.1-.1v-.2h-.1l-.1-.5h-.1c0 .1-.1.1-.1.1v.1c-.1.1-.1.1-.2.1-.1.2.2.4.1.5v.1l-.1.1c0 .1.1.2.1.2v.2h-.1-.1-.2c-.3-.1-.3-.1-.8.3-.1-.1-.1-.1-.2-.1h-.1-.1v.1l.1.1c0 .1 0 .2-.1.2-.2 0-.3 0-.5.3l-.1.1h-.1c-.1.1-.1.3-.2.4-.2 0-.2 0-.4.1 0 .1-.1.1-.1.2H49l.1-.1H49l-.1-.1c-.1 0-.1-.1-.1-.1-.1.1-.1.2-.1.2.1 0 .1.1.1.1 0 .1-.1.1-.1.1v.1.1c-.2 0-.3-.1-.5-.1 0-.1-.1-.1-.1-.1-.3.1-.3.1-.4.2l.1.1.2.2h.2l.3.3c.1.2.1.3 0 .4.1.1.2.2.3.2-.1.2-.1.2-.3 1-.1.1-.2.1-.3.1h-.1c-.2-.1-.4-.1-.5-.2-.3-.1-.5-.1-.7-.1l-.3-.1h-.1l-.1.1c-.2.1-.3.1-.4.1l-.1.1c.2.3-.1.5 0 .8 0 .2-.1.3-.1.4-.3.5-.3.5-.2.7.1.1 0 .2 0 .2v.1c-.1.1-.1.1-.1.3.1 0 .1.1.2.1.2-.1.2-.1.3.1.1 0 .2 0 .2-.1l.3.2c.1.1.1.2.1.2h.1-.1c.7-.2 1.2-.8 1.9-.8.1-.1.1-.2.1-.3-.1-.1-.1-.2-.2-.2 0-.1 0-.1.2-.4.1-.2 1-.4 1-.4.1-.1.1-.2.1-.2V18c0-.3 0-.6.4-.4h.1l.4.2h.1.1c.1-.2.1-.2.2-.3h.2c.1 0 .2 0 .4-.2.4.1.4.5.7.7l.2.2c1 .7 1.6 1.2 1.5 1.5-.2.1-.9.2-1.2.2l-.1.1c.2.1.3.3.5.4h.5v-.3c.3-.1.5-.4.8-.7v-.2h-.2l-.1-.1c.1-.1.2-.1.3-.1.2.1.2.1.3.2v-.3c-.2-.2-.5-.2-.7-.5-.1 0-.3 0-.6-.3.1-.1.1-.1-.3-.4l-.1-.1c0-.1-.1-.2-.1-.2h-.3v-.2l.3-.2.1-.1c-.1 0-.1-.1-.1-.2.3-.1.3 0 .3.2.5.1.7.7 1.2.8v.1c.2.3.6.3.8.6-.2.4-.2.4 0 .5 0 .2 0 .4.3.4.1.1.1.2.1.3h-.2c0-.1-.1-.1-.1-.1l-.1.1c.2.3.2.3.4.3 0-.1.1-.1.1-.1.1.1.2.1.3.2v.3c.1.1.2.1.2.1h.1l.2-.2v-.1s0-.1-.1-.1c.1 0 .1-.1.1-.1.1 0 .2.1.2.1h.1l.1-.1v-.2h.2c-.1-.1-.1-.2-.3-.2 0 .1-.1.2-.1.2-.2-.1-.2-.1-.3-.5-.2-.1-.2-.1-.3-.2v-.2l.1-.1c.1.1.2.1.2.1h.2.3v-.2c.2-.1.2-.1.8.1v.1l.1.1.1.1c-.1 0-.1.1-.1.1 0 .2.3.3.3.5v.1.1c.1.1.1.2.1.2l.1.1h.1l.1.1.1.1.1.1c0 .1 0 .1.1.1l-.1.1v.1.1c0 .1 0 .2.1.2l.1.1.1.1.1-.1V21v-.2c0-.1.1-.1.1-.1h.1l.1.1.1.1.1.1.1.1.1.1.1.1h.1.1c.1 0 .1 0 .2.1h.1.1l.1-.1v-.1-.1-.2-.1l.1-.1c.1 0 .2 0 .2.1l.1.1.2.1.1.1.1.1h.1.1.5v-.1-.1-.1c.1 0 .1 0 .1-.1H61h0c.1 0 .2.1.2.1h.1.1v-.1l.1-.1h.1l.1.1v.1.3c-.1.1-.1.3 0 .4v.1c0 .1.1.1.1.1 0 .1 0 .1-.1.1h-.1v.1.2-.2c-.1.2-.1.2-.2.3h-.1l-.1.1v.1l4.3.1c-1.4 0-2.9-.1-4.3-.1 0 0-.1.4-.2.4h0l-.2-.1h-.1c-.1 0-.1 0-.2.1h-.1-.1-.1l.1.1c-.1 0-.1 0-.1-.1l-.1-.1H60s-.2 0-.3-.1h-.1-.1-.1c.1.1.2.1.4.1l.2.2v.1c0 .1.1.1.1.1v.1.1.1c0 .2.2.4.3.5.1.2.2.2.2.3h.1c.2 0 .2-.2.2-.2l.1.1c.1.2.3.3.4.5l.3.8v.1c-.1.1-.1.3.1.4.1.1.2.1.3.2s.4.7.4.7c.1.3-.2.6.2.8 0 0 .4.3.5.6.1.2.1.2.2.2.2.1.2.1.7 1.3 0 .3 0 .5-.1.8.1.4.6.5.8.3.3-.3.3-.3.4-.3h.4.1l.1.1h.1c.1-.1.1-.1.1-.2.3-.4.8-.2 1.1-.6.1-.1.1-.1.3-.1l.1-.1c0-.2 0-.2.1-.3.1 0 .1 0 .2-.1s.1-.1.7-.1c0 0 0-.3.1-.4h.3c.1-.2.1-.4.1-.4v-.8.8h.1.1.1c0-.1 0-.1.1-.2 0-.1 0-.1.1-.1 0-.1.1-.3.2-.3h.1l.1.1c.1-.2 0-.4.1-.7 0-.1 0-.1.1-.1s.1 0 .1-.1 0-.2-.1-.2-.1 0-.1-.1l-.1-.1c-.1-.1 0-.2-.1-.2-.1-.2-.2-.2-.3-.2-.2 0 0-.3-.1-.4l-.1-.1h-.1v.3l-.1.1c-.1-.1-.1-.2-.1-.3-.1 0-.1 0-.1-.1 0-.2 0-.3-.1-.4-.4-.3-.4-.3-.5-.3-.2 0-.2 0-.3.7h-.2-.1c-.1 0-.1-.1-.2-.1h-.1l-.3.3s-.3-.1-.3-.4c0 0 .1 0 .1-.1.1-.1.1-.1.2-.1h.1c.4.2.4-.1.4-.1l-.1-.1h-.1-.1-.1c-.2-.1-.4-.1-.6-.1h-.1c0-.1 0-.3-.1-.4s-.1-.1-.5-.3c-.1-.3-.3-.7-.3-1 .1-.3.4-.1.4-.1l.3.3c.2.2.2.2.3.4s.3.2.4.3c.2.2.3.3.8.3h.1.1c.1-.1.2 0 .2-.1h.1c.1 0 .1 0 .3.1.1.1.1.3.2.4h.3c.2-.1.3.2.4.2h.3c.1 0 .1.1.1.1h.5l.3-.1h.3s.5.4.5.8h.1c0 .1 0 .1.1.2h.1c.1 0 .1 0 .3.2-.5 0-.2.3-.2.3.2.1.2.5.5.5l.2-.2s.1-.1.1-.2c0 0 .1 0 .1-.1.2.2.2.9.2.9v.2c-.1.9.4 1.7.3 2.6v.1c-.1.5.1 1 .2 1.5 0 .1.1.1.1.1h.1c.3-.3.3-.3.7-2.1 0-.2 0-.3.1-.5 0-.4 0-.4.1-.5.4 0 .8-1.5.8-1.5l.2-.3h.1c.1-.1.1-.1.1-.5.1-.1.1-.1.2-.1l.1.1h.1c.1-.1.2-.2.2-.3h.2V26h.1c.1.2.2.5.2 1 .1.2.1.2.1.3v.1.2.4h.1c.2.4-.1.7.1 1.1h.1c.1-.1.1-.1.1-.2v-.1-.1-.1c.2.2.1 1.1-.1 2.8v.1c-.1.4 0 .8-.1 1.2v.1c-.1.2-.1.4-.1.7-.1.2-.1.3-.1.5-.1.2-.1.6-.1.9.1-.2.1-.3.1-.3.1-.2.2-1.1.2-1.1 0-.1 0-.1.1-.1v-.1-.1-.1c0-.1.1-.1.1-.2-.1-.1-.1-.9 0-1.1v-.1-.2c0-.2.1-.3.1-.4.1-.2.2-1 .2-1 .1.1 0 .3.1.4l.1-.1c.1.3.1.3-.1 1.7.4-1.4.4-1.4.4-2 0-.1 0-.2.1-.3.1-.6.1-.6 0-1.2-.1-.4-.1-1.4 0-2 .1 0 .1.1.1.1v.1c-.8.3-.8.5-.8.6 0 .3-.1.5-.1.7 0 .1.1.1.1.1v-.8zM65.1 8l-.1-.1c0 .1.2.1.3.1.1.1.2.1.2.1l-.1.1c-.2-.2-.2-.2-.3-.2z"/><path d="M74.4 15.7h0c.3.5.7 1.1.9 1.6l-.9-1.6zM48.6 4h.2.1.1c-.1 0 0 0 .1 0l.2-.1h.2.2-.1s.4-.1.7-.1c.2 0 .3-.1.4-.1h-.2-.2c-.1 0-.3.1-.4.1l-.4.1h-.1l-.3.1H49h-.1-.3-.2l-.2.1H48h-.1.1c.1 0 .1-.1.2-.1h.1c.1 0 .1 0 .2-.1h.1V4zm.5-.1l.3-.1h.1c-.1 0-.2 0-.2.1h-.2 0zm-.7.2h-.1-.1-.2-.1l.2-.1h.1.2z"/><path d="M48.3 4.1h.1c.1 0 .2-.1.3-.1h.1-.1-.2c-.1 0-.1 0-.2.1h.1-.1 0c-.1 0-.1 0 0 0zm-.4 0h0l-.2.1-.1.1.1-.1h.1l.1-.1-.1.1.1-.1zm6.7 7.4c.1-.1.1-.1.2-.1-.5 0-1.1-.1-1.7-.1 0 .1.1.1.1.2v.1c0 .1-.1 0-.1.1 0 0 0 .1.1.2h.1l.1.1v.1-.1c0 .1.1.2.2.2l.1.1c0 .1-.1.1-.1.2v.1.1h.4c0-.2.1-.3.2-.3h.1l.1.1c.1.1.1 0 .1-.1s.1-.1.2 0v-.2h.2V12h-.1-.1 0-.1c.1-.2.1-.2.1-.3l-.1-.2zm7.3-5.4c-.1-.1-.2-.1-.3-.1v.1l.1.1h.1l.1-.1zM46 4.7l-.3.1h-.1l.7-.2-.3.1zm29.4 33c0 .1 0 .1-.1.2 0 .1 0 .1-.1.1v.1l.1-.1s0-.1.1-.1c0 .1-.1.1-.1.1 0 .1-.1.1-.1.2 0-.1.1-.1.1-.1l.2-.4.1-.1s-.1 0-.2.1zM58.7 4.2c.1 0 .1 0 .1.1.1 0 .1.1.2.1h0c.1 0 .1 0 .4.1h.1c.1 0 .2.1.2.1h.1c-.1 0-.1 0-.1-.1-.1 0-.1-.1-.2-.1-.2 0-.3-.1-.4-.1l-.4-.1c.1 0 .1 0 .2.1-.1-.1-.1-.1-.2-.1-.1-.1-.1-.1-.2-.1.1.1.1.1.2.1z"/><path d="M59.6 4.5l.9.3c-.1-.1-.2-.1-.3-.1h.1c-.1 0-.1 0-.1-.1h-.1s-.1 0-.2-.1c-.1 0-.1 0-.1-.1h-.1c-.2-.1-.3-.1-.4-.1.2.1.3.1.3.2-.2-.1-.3-.1-.4-.1.1-.1.3 0 .4.1zm1.2 3h0c0-.1-.1-.1-.1-.1h-.1l-.1-.1h-.2l.1.1.1.1c.1.1.1.2.2.2h.1c.1 0 .1 0 0-.1-.1.1-.1.1 0-.1h0z"/><path d="M58.6 4.2c.2.1.2.1.3.1s.1 0 .1.1h.1s-.1 0-.1-.1h-.1-.1-.1c0-.1-.1-.1-.1-.1zm-.8-.2c.1 0 .2.1.3.1l.2.1c.1 0 .1 0 .2.1h.1c-.1 0-.1 0-.1-.1h-.1l-.2-.1c-.1 0-.1 0-.2-.1h-.1-.3.2zm2.7 2.4c0-.1 0-.1-.1-.2l-.1-.1c0-.1-.1-.1-.1-.1l-.1-.1.1.1c0-.1 0-.1-.1-.1 0 0 0-.1-.1-.1-.1-.1-.2-.1-.2-.2h.1v-.1l-.1-.1h.1l-.2-.2h.1c0-.1-.1-.1-.1-.1h.1s-.1 0-.1-.1h.1l-.1-.1h.1c-.1-.1-.1-.1-.2-.1h.1s-.1 0-.1-.1c0 .3 0 .3-.1.2h-.1c.1.1.1.1.2.1h-.1s.1 0 .1.1h-.1-.1-.1l.1.1h-.2l.1.1h-.1l.2.1h-.1l.2.2.1.1c.1 0 .1.1.1.1h-.1s-.1.1 0 .1l.1.1c.1 0 .1 0 .1.1l.1.1h-.1c.1.1.1.1.2.1-.1 0-.1 0-.1.1s.1.1.1.1l.1.1H60l.1.1c-.1-.3-.1-.3.1-.2h.1l-.1-.1h.1l.1.1c0-.1 0-.1-.1-.1.2.1.2.1.3.2l.1.1.1.1h.2c.1 0 .2.1.3.1h.1.1l-.1-.1-.5-.3c-.3 0-.3 0-.4-.1z"/><path d="M57.5 4c.1 0 .1 0 .2.1.1 0 .1 0 .2.1-.1 0-.1 0-.1-.1l-.3-.1zm20.1 22.3c0-.1 0-.2-.1-.4v.3l.1.1zM60.3 4.6c.1 0 .1 0 .1.1h.1-.1l-.2-.1h.1zm.8.3c-.1 0-.3-.1-.3-.1.1 0 .1 0 .1.1h.2zM49 3.9l-.2.1h.1l.1-.1zm7.2.2l.2.1h-.1c.1 0 .1 0 .1.1l.1.1.1.1s-.1-.1-.2-.1h-.1.1l-.1-.1c-.1 0-.1 0-.1-.1.1-.1.1-.1 0-.1 0 0-.1 0 0 0l-.1-.1c0 .1 0 .1.1.1h0-.2.2c-.1-.1-.1-.1-.2-.1.1.1.2.2.2.1zm-1.8.1h0 .1c.1 0 .1 0 .1.1-.1-.1-.1-.1-.2-.1l.1.1.1.1h.1.1.1.1s0-.1.1-.1h.1v-.1h.1l-.1-.1h-.1-.1l-.1-.1c0 .1 0 .1-.1.1h0-.1l.1.1c0-.1-.1-.1-.1-.1h-.2c-.2 0-.2.1-.1.1zm-7.2.1c.1 0 .1 0 .2-.1l.2-.1c-.1 0-.1.1-.2.1l-.2.1c.1 0 .2-.1.2-.1h-.1l-.3.1h-.1.3z"/><path d="M53.8 4.6h0 0 0l.1.1.1-.1h.1v-.1h.1v.1h.1l.1-.1v.1h-.1s-.2 0-.2.1v.1h.1-.2.1c.1 0 .1-.1.1-.1l.1.1-.1.1c-.2-.1-.2.1-.2.1 0 .1 0 .1.1 0 .1 0 .1 0 .2.2 0-.1.1-.1.1-.1V5h.1v-.1c.1 0 .1 0 .1-.1-.1-.1 0-.1-.1-.1h.2c0 .1 0 .1.1.1s.1.1.1.1c-.1.1-.1.1 0 .1h.1c.1 0 .1-.1.1-.1l.1.1H55v-.2h.1.1v-.1c-.1-.1-.1-.1-.2-.1l-.1-.1h-.1c0-.1-.1-.1-.1-.1-.1 0-.1 0-.1-.1h-.1l-.1-.1h-.1-.1v.1h-.1v-.1c-.1 0-.1 0-.2-.1v.1s.1.1 0 .1c0 .1-.1.1-.1.1v-.1h0-.1c-.1 0-.1.1-.1.1h-.1v-.1l.1-.1s-.1 0-.1.1h-.1c-.2.1-.1.1-.1.1h.7s0 .1-.1.1-.1 0-.1.1c-.1-.1-.1-.2-.1-.2v.1l.1.1zm3.3-.4l.1.1c0-.1 0-.1-.1-.1z"/><path d="M56.8 4h0c.1 0 .3.1.3.1s-.1 0-.1-.1h-.1-.1z"/><path d="M56.2 4h.3-.1c.1 0 .1 0 .1.1h.1s.1 0 .1.1h-.1.1.1.1c-.1 0-.1 0-.1-.1h-.1.1l-.3-.1h.1c.1.1.1.1.2.1h-.1-.1-.1l-.2-.1c0 0 0 0-.1 0z"/><path d="M57 4.2h0c-.1-.1-.1-.1-.2-.1h.1c.1 0 .1 0 .1.1h0c.1.1.1.1.2.1-.1-.1-.1-.1-.2-.1z"/><path d="M56.7 4.1c.1 0 .1 0 .2.1h.1 0-.1c-.1-.1-.1-.1-.2-.1l-.1-.1h-.1.1l.1.1zm-20.8 9.7c.1-.1.1-.2.2-.3H36s-.1 0-.1.1c-.1.1-.2.2-.2.3-.2.2-.5.4-.7.7-.1.1-.1.1-.3.4.2 0 .3 0 .4.1.1 0 .1.1.1.2v.3l.1-.1s.1-.1.2-.3.1-.2.2-.3l.1-.1c0-.1.1-.1.1-.1-.1 0-.1-.2-.1-.2 0-.1.1-.1-.1-.1v-.1c.2-.2.2-.2.2-.3-.1-.2-.1-.2 0-.2zm2.2-4.9l.1-.1c-.2.1-.4.3-.4.3.1 0 .3-.1.3-.2zM30 26.7l-.1-.1c-.1.1 0 .1-.1.1h-.1v-.1c0-.1 0-.1-.1-.1l-.1-.1v-.1h-.1c-.1 0-.1-.1-.1-.1l-.1.1c0 .2 0 .3-.1.5l.1.3h.1c.1 0 .1 0 .1-.1s.1-.1.1-.1c.1 0 .1 0 .1.1h.1.3.1c0 .1.1.1.1.1h.1c.1 0 .1-.1.1-.1 0-.1-.1-.1-.1-.1v-.2H30z"/><path d="M29.4 23.7l.1-.3.1-.3.1-.5.1-.5c.1-.2.1-.4.2-.7.1-.1.1-.2.1-.4l.2-.4.1-.1.2-.3.1-.2.1-.1.1-.2.1-.2.1-.4.1-.2.1-.2.1-.2.1-.1-.1.3.2-.3.1-.3.1-.2.3-.5h.1l.2-.2h.1l.1-.2.2-.4.2-.3h.1l.1-.2.1.1.2-.2.2-.3c.1 0 .2.1.2.1l-.1.1h-.2c-.2.2-.2.2-.3.4v.1l.2-.2.1-.1.2-.1.2-.2.2-.1.3-.3.2-.2.2-.2-.2.1-.3.3h-.2v-.2l.1-.3.2-.4.2-.2.2-.3h-.4l-.5.3-.3.3-.4.4-.2.3.2-.2.2-.3.1-.1v-.1h.1l.2-.2.2-.2h.1l.2-.3.2-.1h.1.3l.1.1h.1l.3-.2.3-.3.2-.1.2-.1.2-.1V13l.1-.1.2-.3-.1-.1.1-.2h-.2l-.2.2-.2.1v-.1l.2-.2.2-.1.2-.1.2-.2h-.1v.1l-.1-.1.1-.2.1-.2.1-.2h0l.1-.1.2-.3.2-.3.4-.5.1-.1-.4.3-.3.3-.2.1-.1.1h-.1l.2-.2.1-.1-.2.1.3-.3.4-.4.3-.2h-.1l.1-.1.2-.2.2-.2-.2.1h-.1l.1-.1h-.1l-.1-.1-.2.2-.3.3-.2.2-.3.2-.3.2-.2.1-.1.1-.2.2-.3.3c-.1.1-.2.2-.3.4l-.3.3-.2.2-.1.1-.3.3c-.1.2-.2.3-.3.4l-.2.3v.1l-.2.3-.1.1.3-.4.2-.3c.1-.1.2-.2.2-.3l.4-.4.3-.3.1-.1.1-.1.1-.1c-.4.4-.9 1.1-1.3 1.5-.8 1-.8 1-2.1 3.1v.1c-.6 1.1-.7 1.1-1.5 3.1l-.1.3-.7 2.2-.1.3.1-.2v-.1l-.1.3-.1.3c-.1.1-.1.2-.1.3l-.1.2-.1.2v.2l-.1.2v.1l-.1.3v.1l.2-.2zm-.2 3.4l.1-.2v-.2-.1-.1h-.1v.2.1.3z"/><path d="M29.2 25.1v.4.2.1.2c.1 0 .1.1.2.1 0-.1 0-.5-.1-.5h-.1v-.5-.2-.1l-.1.6c.1-.2.1-.3.1-.3zm8.6-15.9l.1-.1c.1 0 .2-.1.2-.1v-.1L38 9l-.3.3.1-.1zm-7.1 9.6c.1-.3.2-.5.4-.9v-.1l.1-.1-.7 1.7c.1-.1.1-.2.1-.3 0 0 .1-.2.1-.3zm45.1 16.5l.1-.1c.1-.1.1-.2.1-.2v-.2-.1c-.1.1-.1.1-.1.3s0 .2-.1.3zM32 16c0-.1.1-.1.1-.1.2-.4.4-.8.7-1.2-.3.4-.4.7-.8 1.3zm2.5-1.6c0 .1.1.1.2-.2v-.1h-.1V14v-.1h-.1c-.1 0-.1.1-.1.1v.1c0 .1-.1.1-.1.1l.2.2zm9.9 35.9s-.4-.2-.7-.3c0 0-.1 0-.1-.1-.4-.2-.4-.2-.5-.2 0 0-.1 0-.2-.1s-.2-.1-.3-.2c-.1 0-.1-.1-.1-.1s.1 0-.1-.1l-.8-.5c-.1 0-.1-.1-.1-.1-.1 0-.1 0-.1-.1-.2-.1-.3-.2-.5-.3 0 0-.1 0-.1-.1l-.2-.2h.1c-.1-.1-.2-.2-.4-.3-.2-.2-.3-.3-.5-.4 0 0-.1-.1-.2-.1l.1.1c-.1-.1-.1-.1-.4-.3l-.2-.2.1.1c.1 0 .1.1.1.1h.1c-.1 0-.1-.1-.1-.1l-.1-.1c.1.3.1.3-.2.2l-.1-.1h.1l.1-.1h.2c-.1-.1-.2-.3-.3-.4l-.1-.1-.2-.2h-.1l-.2-.2c-.2-.1-.3-.2-.5-.3h.1c.4.2.4.2.5.1-.6-.9-.6-1-.6-1.1.1.1.1.2.2.2-.2-.8-1-1.3-.9-2.2h.2c0-.1.1-.2.1-.2a.9.9 0 0 1 .5.1v-.3h.1c-.1-.3-.1-.3-.1-.5 0-.1.1-.1.1-.1-.1-.3-.1-.3-.2-.4l.1-.1c-.1-.2-.1-.4-.2-.5 0 0 0-.1-.1-.1 0-.2-.1-.4-.1-.4 0-.1 0-.1-.1-.2 0-.1-.1-.1-.1-.1 0-.1-.1-.1-.1-.2-.1-.2-.1-.3-.2-.4l.2-.6c.1 0 .1 0 .1-.1s0-.1.1-.1c0 0 .1-.5.2-.7s.1-.2 0-.4c-.1-.1-.3-.8-.5-1h-.3c-.4-.2-.5-1-1-.7-.1 0-.2 0-.4-.1-.2-.2-.2-.2-.4-.2 0 .1.1.2.1.2-.3-.1-.3-.1-.3-.3l.1-.1c-.4-.4-.5-.4-.7-.4 0 0-.1 0-.1-.1-.2-.1-.2-.1-.3-.1a1.76 1.76 0 0 1 .1.6h-.2c0-.1 0-.1-.1-.2 0-.1 0-.2.1-.2 0 0 0-.1.1-.1l-.3-.3h-.1-.1c.1.2.1.2 0 .3h-.1c0-.1 0-.1-.1-.2.1-.1.1-.1.1-.2-.1-.5-.1-.5-.2-.7H33c0-.2-.1-.3-.1-.5-.1-.4-.4-.6-.6-.9-.1 0-.2-.1-.2-.1l.1.1H32h-.1l-.8-1.1c0-.1 0-.1-.1-.2v-.2h-.1l-.1.1c-.1-.1-.1-.1-.1-.3 0-.1.1-.1.1-.1l-.2-.2h0l-.1-.1c-.1 0-.1-.1-.1-.1v.2l-.1.1c-.1-.2-.1-.2-.2-.3-.1 0-.1 0-.1-.1v.1c0-.1 0-.2-.1-.3 0-.1-.1-.1-.1-.2 0 0 0 .9-.1 1.1-.2-.8-.1-1.1-.1-1.3V29h-.1c-.1.1-.1.1 0 .3-.1 0-.1 0-.1.1s-.1.2-.1.2a.9.9 0 0 0 .1.5c-.1.1-.1.2-.1.3v-.1l-.1-.3h-.1.1 0l-.1-.2-.1-.4v-.2.1.1.1.2.1.1.2-.1.1-.1h0l.1.5.1.3.1.2-.1-.3v-.2l.1.1v.1c-.1.8.4 1.4.3 2.2.1.3.1.3.1.4.1.3.1.3.1.6v.1c.2.5.2.5.2.7 0 .1.1.1.1.2l.3.9s0 .1.1.2c.2.5.4 1 .7 1.5 0 .1.1.1.1.2.3.7 1.1 2.3 1.8 2.9.2.2.3.5.4.7.1.1.1.2.1.2v.1l.1.1c0 .1.1.1.1.1l.1.1c.1.2.1.2.2.3 0 0 .1.1.1.2s.1.1.1.1V42l.1.1c.1.1.1.2.2.3l.1.1.1.1c.2.2.3.4.4.7l.7.9.1.1c.4.5.9.9 1.3 1.4l.2.2c.1 0 .1.1.1.1l1.6 1.4c.3.2.5.4.8.6l-1-.7h.1l.2.2.1.1a1.38 1.38 0 0 0 .4.3c.1.1.1.1.7.4-.1-.1-.2-.1-.2-.1l-.1-.1s-.1-.1-.2-.1c.1.1.1.1.2.1.2.1.3.2.5.3-.1-.1-.2-.1-.3-.2l.2.2a4.67 4.67 0 0 0 1 .5l.1.1c.1.1.2.1.3.2l.1.1c.2.1.4.2.7.3l.1.1.1.1c.2.1.2.1.3.2h.1l1.1.4c-.2-.2-.1-.2-.1-.1.1 0 .1 0 .3.1l.1.1h.1c-.4-.2-.4-.2-.5-.2.1.1.1.1 0 0zm20-10.5l-.1.3c-.1.1-.1.1-.4.3-.1 0-.1.2-.1.2 0 .1 0 .1-.1.1-.1.1-.1 0-.1 0-.1.1-.1.2-.2.2-.2.2-.4 0-.7.1-.1 0-.2 0-.2.1-.1.1-.1.2-.1.3-.1.1-.2.1-.2.2 0 0-.2.4-.1.5l.1.1-.1.2c0 .1-.1.1-.1 0l-.2.2c-.1.1-.1.3-.2.4-.1 0-.1.1-.1.1v.1c-.1.1 0 .2 0 .3s-.1.1-.1.1c-.1.2-.1.2-.1.3h.4v.1c.1.1.5.1.8-.2.2-.2.2-.4.3-.6l.3-.3c.1-.2.1-.4.2-.5s.2-.1.3-.2.1 0 .2-.1 0-.3.1-.4l.2-.2c0-.1.1-.1.1-.1v-.1-.1c.1-.1.2-.1.2-.2v-.1l.2-.8c.1-.1.1-.2-.2-.3zm11.1-2.6s0 .1 0 0l-.1.1c0 .1.1 0 .1-.1zm-1.2-5.3h0l-.1.1h-.1c0 .1-.1.2 0 .2v.1.1.1l-.1.2v.4c0 .1.1.2.1.2h.2c0-.1.1-.2.1-.3v-.2-.1-.1s0-.2-.1-.4v-.3z"/><path d="M65.3 31.4H65c-.4.1-.5.1-.7-.1-.2-.4-.2-.4-.2-.5-.1 0-.1-.1-.1-.1v-.3c-1.1-.9-2.1-1.7-1.8-2.6v-.3c0-.1-.1-.2-.1-.3s-1.8-3.5-1.9-4.1c-.2-.2-.4-.2-.6-.3h-.2c-.1.2-.3.2-.3.2H59c-1.1-.2-2.1-.9-3.3-.8 0 .9 0 .9-.1 1h-.2-.2c-.3-.1-.3-.3-.6-.4-.3 0-.5 0-.8-.2-.1-.5-.9-.5-.9-.5-.4 0-.4 0-.8-1.5.1-.1.1-.1.4-.2 0-.1 0-.1-.1-.2-.2-.1-.3-.1-.4-.2-1 .1-1 .1-1.5.3-.3-.2-.8-.7-1.2-.1h-.7c-.1.1-.1.1-.9.5h-.1c-.3-.1-.7.1-.9-.2h-.2c-.1.2-.2.5-.2.5-.2.1-.2.1-.5.1-.1.2-.1.4-.1.7-.2 0-.4 0-.5.1l-.3 1c0 .1 0 .2-.1.3h-.4c-.1.4-.5.7-.8.7-.3.5-.7.9-.9 1.5h-.1-.1-.2c-.1.9-.1.9-.4 1 0 .1-.1.1-.1.1 0 .1 0 .2.1.3.5.1.5.1.6.2-.2.3-.2.3-.2 1.4v.3c0 .1 0 .1-.3.3 0 .2.1.4.1.6v.2c0 .7 1.2 1.4 1.2 1.4 0 .4 0 .8.9 1 .1.2.1.2.1.4.8.8 1.3.7 1.3.7.1-.1.1-.2.1-.3.2 0 .4.1.5 0h.2.4c.1.3.4.2 1 .1.2-.4.3-.4 1-.3h.2c.4-.3.8-.2.9-.2.1.7.3.7.5.8.4 0 .9.1 1.3.1 0 .2 0 .3-.1.5l-.3 1.5h-.2c0 .1-.1.1-.1.1 1 .6 1 1.7 1.6 2.6 0 .1-.1.1-.1.1v.2c0 .3.1.3.2.4 0 .8-.7 1.4-.7 2.1 0 .4.1.4.3.6.1.4.1.5.4.7.3.7.3.7.5.8v.6s.4 1.2.8 1.7c-.1.2-.1.2.1.4 0 0 0 .1-.1.1-.1.1-.2.1-.2.2.1 0 .1.1.1.1h.1c0 .2 0 .2.2.3h.5c.3-.1.3-.1.4-.1.2 0 .4 0 .8-.1 0-.1.1-.1.1-.1.6-.1.6-.1.7-.3 0 0 1.8-.9 1.6-1.8l1.1-.6c.1-.3.1-.3 0-1.2.8-.7 1.8-.9 2.3-1.8 0-.1.1-.1.1-.3v-.3c.1-.3.1-.5.1-.9-.3-.4.1-.9-.1-1.4v-.1c.8-2.7 4.3-3.2 4.8-6.1 0-.1 0-.2-.1-.3-.4 0-.8.5-1.2.3zM29 29.3h0v.2c0-.3 0-.6-.1-.9v.1-.1.1.2.2c0 .2 0 .4.1.6v-.1-.3zm46.6 7.3c.1-.1.1-.2.1-.3v-.1-.1s0-.1.1-.2c.1-.3.1-.3.1-.4-.2.4-.2.8-.2.8v.1c-.1.1-.1.2-.1.2zm.5-.6l.1-.3c0-.1 0-.2.1-.2.1-.1.1-.3.1-.4 0-.2.1-.3.1-.5v.1h-.1v-.2-.1-.7s-.1-.1 0-.3l-.1.1s0-.1-.1-.2c-.1.1-.1.1-.1.2v.5c0 .2-.1.3-.1.5v.1h.1c0 .1-.1.3-.1.4v.1.7c0 .2-.1.4-.2.6l-.3 1.1.2-.2s0-.1.1-.1c0 0 .1-.3.2-.4 0-.1 0-.1.1-.1.1-.1.1-.1.1-.2v.1c0-.1 0-.1.1-.1 0 0 .2-.4.1-.5-.3-.1-.3-.1-.3 0zM44.8 5h0c.2 0 .3-.1.5-.1l.3-.1.1-.1.1-.1-.2.1h-.1l-.5.2h.1-.1V5h-.2zm31.9 29.6c.1-.1.1-.3.1-.4 0 0 0-.1.1-.3l-.2.7z"/><path d="M44.3 6c-.1 0-.1.1-.2.1l-.1.1h.1c.1-.1.1-.1.2-.1-.2.1-.2.1-.2.2l-.2.2h.1-.1-.1l-.1-.1.1-.1-.7.3c0 .1 0 .1-.1.2.2-.1.2-.1.3-.1.1-.1.2-.1.2-.2v-.1l.1-.1h.1v.1s.1 0 .1.1l-.1.1-.1.1c-.1.1-.1.1-.2.1l-.1.1c0 .1-.1.1-.1.1-.1.1-.1.1-.2.1h-.1c-.1 0-.1.1-.1.1h-.1c-.1.1-.2.1-.3.2s-.2.1-.3.2l-.1.1-.6.6c.1 0 .1-.1.2-.1v.1c-.1 0-.1.1-.1.1h-.1c-.4.3-.4.3-.4.4.1 0 .2-.1.3-.1-.1.1-.2.1-.2.2-.4.2-.6.4-1 1.2l.1.1v.1h.1.1l.1.1c0 .1-.1.1-.1.1 0 .1.1.1.1.1 0 .1-.1.1-.1.1.1 0 .2 0 .4-.2l.1-.1c.8-.9.9-.9.9-.9h.1c.2 0 .3-.2.5-.3l.3-.3c.2-.1.2-.1.7-.5h.2c.1-.4.1-.4.2-.4h.1c-.1.1-.1.1-.1.2.1 0 .2-.2.4-.2h.1c.1 0 .1 0 .2-.1a.76.76 0 0 1 .4-.2c.1 0 .1 0 .2-.2l.1-.1s.1 0 .1-.1c.2-.1.2-.1.3-.2h.1s.1 0 .1.1v.1c.5 0 .9-.4 1.4-.5h.2c.2-.1.2-.1.3-.2-.1 0-.1.1-.1.1l-.2.2-.1-.1h0-.1-.2v-.1l.1-.1c.1 0 .1-.1.2-.1s.2-.1.3-.1l-.2.2.1.1h.1c.1-.1.4-.1.4-.3.2-.2.2-.2.2-.3h.1v.1h.1c.1-.1.1-.1.2-.1 0 0 .1 0 .1-.1.1 0 .1-.1.1-.1-.1 0-.1 0-.2.1h-.1l.2-.1v-.1h.1.1l-.1.1h.2c.1 0 .1-.1.1-.1l.1.1c-.2-.1-.2-.1-.2-.3h-.2l.3-.1c.1 0 .1 0 .1-.1h.1c.1 0 .1 0 .1-.1l-.1-.1.2-.2h.1c.1-.1.1-.1.2-.1l.1-.1h-.1V5l.1-.1h.1c.1 0 .1-.1.2-.1 0 0 .1 0 .1.1-.2.1-.2.1-.2.2h.1c.1-.1.2-.2.3-.2h.1l.1-.1h-.1-.1c.1 0 .1-.1.2-.1h.1c.1 0 .1-.1.1-.1h-.3c.1-.1.1-.1.2-.1l.3-.2H51c.1-.1.1-.1.2-.1h.1s.2-.1.7-.2h.1-.1.2.1c.1 0 .2-.1.3-.1h.1c.1 0 .1 0 .2-.1l-.1.2h-.1-.1-.1s-.3.1-.4.1H52c-.1 0-.2.1-.3.1.1-.1.3-.1.4-.1s.1 0 .1-.1c.2 0 .2-.1.3-.1-.2 0-.3.1-.5.1.1 0 .1 0 .2-.1h.1-.1-.1-.1 0c.1 0 .2-.1.3-.1h.2.1.2.2.1-.1.1.1-.1-.1-.1.1 0 .2.1-.1-.2c-.1 0-.2 0-.3.1h.1.1-.1-.1-.2-.1-.1-.1-.1-.1-.1-.1.2-.1-.1-.1-.1-.1-.1-.1.1.1.1.1.1.1-.2-.1-.1-.1-.1-.1.1.1.1.1.1.1.1.1-.1c-.1 0-.2 0-.2.1h-.1-.1-.1-.2.1.1.1.1.1.1.1.1.1.1.1-.1-.1-.1-.1-.1-.1-.1-.1-.1-.2-.2-.1-.1c-.1 0-.2 0-.3.1h.1-.1-.2-.1-.1-.1l-.1-.2h-.1-.1-.1-.2-.1-.1-.1.1.1c-.1 0-.2 0-.2.1H49h-.1-.1c-.1 0-.1 0-.2.1h-.1-.1-.1-.1-.1-.1-.1-.1-.1-.1-.1-.1-.1-.1.8c-.2.1-.3.1-.5.2h-.1.1c-.1 0-.1.1-.2.1h-.1-.1-.1c-.1 0-.1 0-.1.1-.1 0-.1 0-.2.1h-.1c-.1 0-.1 0-.2.1h-.1-.1-.1-.1-.1-.1-.1-.1c.1 0 .1-.1.2-.1h.1.1l-.1.1-.1.1v.5c.5-.3.4-.3.3-.3H46h0l-.1.1h-.1l-.1.1h-.1-.1-.1c-.1 0-.1.1-.1.1-.1 0-.1.1-.1.1l-.1.1-.1.1c-.1.1-.1.1-.3.2-.1 0-.1.1-.2.1s-.1.1-.1.1h.1c-.1 0-.1.1-.2.1h-.1c.3-.2.2-.2.1-.1z"/><path d="M46.9 4.4c-.2.1-.2.1-.3.1s-.1.1-.2.1h-.1-.1l-.1.1c.1 0 .1 0 .1-.1-.1 0-.1 0-.1.1.1 0 .1-.1.2-.1-.1 0-.1 0-.1.1h.1c-.2 0-.2 0-.2.1h.1c.2-.1.2-.1.4-.1l.2-.1h-.2l.3-.2h.1l.3-.1.3-.1c.2-.1.3-.1.5-.1 0 0 .3-.1.4-.1h-.2-.1.2.3-.2-.1.4l.2-.1h0l-.1.1h.1.2l.3-.1h.1l.2-.1h.1c.2-.1.4-.1.7-.1h.1.1.2-.2.2.1.3.3.2-.1.2.2-.1-.1.2.2.1-.3.2-.4-.4.2-.2.1-.2-.2.2-.1c-.1 0-.2 0-.3.1H51h-.2-.2-.2-.1-.1-.2l-.4.1.4-.1h.2.1-.2l-.2.1h-.2c.1 0 .2 0 .3-.1h-.1.2.2c.1 0 .2 0 .3-.1h-.1c-.1 0-.3.1-.4.1h-.2-.1-.2-.1c-.1 0-.1 0-.2.1h-.1-.1-.1-.1-.1c.1-.1.2-.1.2-.1h0l-.1.2h-.3-.1l-.1.1c-.1.1-.2.1-.3.1s-.2.1-.2.1l.3-.1H48c-.1 0-.2.1-.2.1l-.2.1-.2.1-.2.1c.1 0 .2-.1.3-.1l-.3.1-.2.1c.1-.1.2-.1.4-.1-.1-.3-.2-.2-.5-.2h0 0zm4.2-.8h.3c-.2 0-.3.1-.5.1.1 0 .1 0 .2-.1zM49.9 14c.1 0 .1 0 .1-.1h.1v-.1c-.1-.1-.1-.2-.1-.2 0-.1-.1-.1-.1-.1h-.1c0 .1 0 .1-.1.2s-.1.1-.1-.4h-.2c.1-.2.1-.3-.1-.3v-.1h-.1c0-.1 0-.1-.1-.2v-.1c0-.1-.1-.2-.1-.2-.2 0-.2 0-.3-.1.1-.2.1-.2.3-.2V12c0-.1.2-.1.2-.2s.1-.2.1-.2h-.5l.1-.2c0-.1.2-.1.2-.2s0-.1-.1-.1h-.1-.1c-.1 0-.2-.1-.3 0 0 .1-.1.2-.1.2-.1.1-.1.2-.1.2h-.2c-.1 0 0-.1-.1-.1h-.1c-.1 0-.1.2-.1.2 0 .1.1.1.2.1l-.1.1v.1c-.1.1 0 .2-.1.2-.2 0-.2.1-.2.1v.1h.1c.1 0 .1-.1.1 0s0 .1.1.1h.1c0-.1 0-.1.1-.1l.1.1c-.1.1 0 .2 0 .2-.1.1-.1 0-.2.1v.1h.3l.1-.1c.2.1-.1.3.1.4h.1c0 .1-.1.1-.1.2s0 .1-.1.2-.2-.1-.3-.1H48c-.1 0-.1 0-.1.1l-.1.1h-.1l-.1.1c.1.1.2 0 .3.1 0 .1 0 .1-.1.1h-.1l-.2.1c-.1.1-.1.1 0 .2.1 0 .2-.1.3 0s.2 0 .3.1c0 .1 0 .1-.1.1 0 0-.1.1-.3 0-.1 0-.1.1-.2.1h-.2c-.1.2-.1.2-.3.3.1.1.1.1.3 0l.1-.1.1.1h.2l.1-.2c.1 0 .3 0 .4.1.1 0 .1-.1.2-.1s.1.1.2.1h.1c.1-.1.2.1.3-.1l.1-.1c.1 0 .1 0 .2-.1l.1-.1c-.1-.1-.1-.1-.1-.2V14c.5.1.5 0 .6 0zm1.7-2.7h0v.1h.2v.1l.1.1h.1c.1 0 .1.1.1.1h.1s.1 0 .1-.1c0 0 0-.1.1-.1h.1l.1-.1v-.1l.1-.1c-.3 0-.7 0-1-.1h-.1zm25.1 23.3c-.2.4-.2.8-.4 1.2v.1.1l-.2.4-.1.2.4-1.1.2-.8.1-.1z"/><path d="M46.6 4.5l.2-.1h-.1l-.1.1h0zm-2.5.9l.3-.1h0l-.3.1-.3.1v.1l.2-.1.1-.1zm-4.2 2.2l-.3.2-.1.1.1-.1c.1 0 .1-.1.1-.1l.2-.1zM76 34.3c0 .1 0 .1-.1.1v.1.1s0-.1.1-.1v-.1-.1zM39.3 8h0l.1-.1-.5.4.1-.2.1-.1h.2zm1.9-1.2l-.2.1-.4.2-.1.1.2-.2.3-.2c.2-.1.3-.2.4-.3l-.2.3z"/><path d="M38.7 8.4l-.1.2.2-.2.1-.1.3-.2h0l.2-.2.1-.1c.1-.1.1-.1.2-.1l-.1.1.1-.1.2-.1.1-.2.2-.1.2-.1.2-.1.3-.2h.1l.3-.2.3-.2.1-.1.2-.1.1.1-.2.1h.1l.1-.1.3-.2h.1l-.4.2-.3.2-.2.1-.1.1-.2.2h0l-.2.2-.3.2-.3.2-.3.2-.3.2h-.1 0-.1l-.3.2c-.1.1-.2.1-.3.2v.1h.1l.2-.1.1-.1v.1l-.1.1-.3.3h0l-.2.2h.1l-.2.3.1.1h-.3l.2-.2.2-.3.1-.3.2-.2-.1.2-.2.4-.1.2c.2-.1.2-.2.3-.3l.3-.2.1-.1.4-.3.1-.1.4-.4.2-.1.2-.1-.5.4-.2.2v.1l.3-.3.2-.1.2-.1h.1l.1-.1.2-.2h-.1l.1-.1.2-.2.1-.1h-.1l.2-.1.2-.1h-.1c.1-.1.2-.1.3-.2h0l.2-.1.1-.1.1-.1h.1l.2-.1.1-.1.2-.1.1-.1H43v.2l.2-.1.1-.1-.2.1.2-.1h.2l.2-.1.1-.1h-.1l-.2.1h-.1l.1-.1-.2.1h-.1l.3-.1.2-.1.3-.2.3-.1-.2.1-.1.1-.3-.1-.3.2-.2.1-.4.2h-.1l.3-.2.4-.2.3-.1.3-.1.3-.1h-.1l-.2.1-.4.2-.8.3h-.1l-.1.1-.1.1-.2.1.1-.1-.2.1-.2.2-.1.1-.2.1-.2.1-.4.3c-.4.3-.9.6-1.4.9l-.3.1c-.2.1-.3.2-.4.3l-.1.1-.2.2-.2.2.1-.1.1-.3zm7 .6h.1.3.1c.1 0 .1 0 .1.1 0 0 0 .1.2.1h.2l.2-.2h.1c.1 0 .1 0 .2-.1s.1-.1.2-.1h.4c.1-.1.1-.1.1-.2v-.1c-.1-.1-.1-.1-.2-.1.2-.2.2-.2.2-.3h-.2-.1c-.1.1-.2.1-.4.2-.1 0-.1-.1-.1-.1h-.2c-.1 0-.3.1-.4.1h-.2c0-.1.1-.1.1-.1 0-.1.1-.1.1-.1V8h-.1c0 .1-.1.1-.1.1s-.4-.2-.6.2c.1 0 .1-.1.2-.1h.1l.1.1c0 .1-.1.1-.1.1-.2-.1-.3-.1-.4 0 0 .1-.1.1-.1.2h.1.2l-.2.2.1.2zm2.1 4.4c0-.1.1-.2.1-.3s0-.1.1-.1.2-.1.2-.1.1-.1 0-.2.1-.1 0-.2l-.1-.1H48h-.1c-.1 0-.2.1-.2.1s0 .1-.1.1c0 0-.1 0-.1.1l-.1-.1s0-.1-.1-.1h-.2c-.1.1-.1.2-.1.3-.1 0-.1.1-.1 0-.1 0-.1 0-.1.1l-.1-.1h.3c-.1.2-.1.3-.2.4h.2c0 .1-.1.1-.1.2-.2 0-.2 0-.2.1-.1.1 0 .1-.1.1 0 .1-.1 0-.1.1v.1s-.1.1 0 .1c.1.1.1.1.2.1.1-.1.2 0 .2 0 .1 0 .2-.1.2-.1l.1-.1c0-.1.1-.1.1-.1h.5v-.1c0-.1-.1-.1 0-.1 0-.1.1 0 .1-.1-.1.2-.1.2-.1 0zm.4-1.8l.1-.1h.1v-.1l.1-.1c0-.1.1-.1.1-.1l-.1.1c-.1 0-.1.1-.1.1h-.1l-.1.1-.1.1s0 .1-.1.1l.1.1c0-.2 0-.2.1-.2z"/><path d="M41.1 7c-.1 0-.1 0-.4.2l-.2.2v.1l.1-.1.3-.2.2-.2z"/></g><path d="M53.4 55.3c-.8 0-1.5-.1-2.3-.1a27.32 27.32 0 0 1-18.8-9.7c-4.7-5.6-7.1-12.8-6.5-20.1.7-7.3 4.1-14 9.7-18.8S48.3-.5 55.6.1c7.4.6 14.1 4.1 18.9 9.7s7.1 12.8 6.5 20.1-4.1 14.1-9.7 18.8C66.2 53 60 55.3 53.4 55.3zm0-54.3C47.1 1 41 3.2 36.2 7.3c-5.4 4.6-8.8 11.1-9.3 18.2s1.6 14 6.2 19.4 11.1 8.8 18.2 9.3c7.1.6 14-1.6 19.4-6.2s8.8-11.1 9.3-18.2c.6-7.1-1.6-14-6.2-19.4S62.7 1.7 55.6 1.1c-.8-.1-1.5-.1-2.2-.1z" fill="#e0df46"/><path d="M94 .1c.4 0 .7.9.8 2.7.3 1.5.4 3.6.4 6.3V12c0 2.6.1 4.4.4 5.4l.2 2.1c0 .9-.2 1.5-.4 2l-.2.1-1.6-.1h-1.1c-.5.2-1.2.3-1.9.3h-.1c-1 0-1.6-.1-1.8-.4-.1-.2-.1-.4-.1-.6l.5-5.8.2-1.3-.5.1-2-.1h-1.5c-.5 0-.8-.3-.9-1 0-.4.1-1.4.4-2.7l.6-3.3v-.5c0-.4.2-.7.5-.8.1 0 .1.1.3.2l4.3-3.3L93.7.1c.1.1.2 0 .3 0zm-5 11.4h-1.9-1.4v.1l2.2.3c.1.1.4.2.9.3v-.3c.1-.1.1-.2.2-.4zm-2.2-4.3l.1 1.2v.7l3.4-1.4c.6-.2 1-.3 1.1-.3.3 0 .4.7.5 2l.1 3.1v.9c0 2.7-.2 4.6-.5 5.9l1.1-.2h1.7l.7.1-.5-4.7-.1-1.6V9.2c0-2.7-.2-4.9-.4-6.7l-.1-.5c-.4.4-1.5 1.1-3.2 2.2l-3.9 3zm2.7 2.6c.1.1.3-.1.7-.2l.2.1v-.3l-.9.4zm.2 8.5l-.1.5.1-.1v-.4zm.6-4.1c-.2 1.1-.3 2.2-.3 3v.1c0-.4.3-.8.9-.9-.4 0-.7-.3-.7-.8s.3-.9.9-1.2H91c-.1-.1-.3-.1-.7-.2zm.2-3l-.1 1c0 .3.2.4.4.5l-.1-.1v-.4c0-.1 0-.2.1-.3-.1 0-.2-.2-.3-.7zm12.7-9.1h.2c1.1 0 2.9.2 5.3.7 1.6.5 2.7 1.2 3.3 2.2.9 1.5 1.3 3.1 1.3 4.8 0 2.2-.6 4.4-1.8 6.6s-2.4 3.4-3.7 3.7c-1 .4-2.1.6-3.3.6h-.5c-3.1 0-5.3-1.1-6.3-3.4-.5-.8-.7-2-.7-3.5v-.2c0-4.4.8-7.6 2.4-9.6.6-.7 1.1-1 1.6-1.2.1-.3.8-.6 2.2-.7zm-5 12c0 1.9 1.1 3.2 3.2 3.9 1 .2 2 .3 3.1.3 2.5 0 4.3-.8 5.4-2.2 1.7-2.3 2.5-4.3 2.5-6.1 0-1.7-.6-3.1-1.7-4.2-.9-.7-2.2-1.1-3.8-1.2-1.6-.3-2.7-.4-3.3-.4h-.3c-.8 0-1.1.1-1.1.3 0 .1-.3.3-1 .5-2.1 1-3 4.1-3 9.1zm6.4-7.7c.5 0 .9.2 1.2.7l.2-.1c.8 0 1.4.4 2 1.2.4.7.5 1.4.5 2.1 0 .5-.2 1.4-.5 2.6-.3.7-.9 1.1-1.7 1.5-.7.3-1.2.4-1.6.4-.9-.1-1.5-.2-1.9-.4-1-.6-1.5-1.5-1.5-2.8v-.1c0-1.1.4-2.4 1.4-3.9.5-.8 1.2-1.1 1.9-1.2zm-1.7 5.2c0 .2.1.4.2.5.4 0 1.1-.4 1.9-1.1.2-.4.3-.8.3-1.4l-.1-.4c-.6.2-1.4.9-2.3 2.2v.2zm2.9 2.1l.2-.7c-.4.4-.8.6-1 .4-.3-.2-.4-.5-.2-.9-.3.4-.6.4-.8-.1l-.1.3c.3.9.9 1.3 1.9 1zm-1.6-5.3l.9.1h.1v-.1h-.1c0-.1-.3-.1-.8-.3l-.1.3zm.3-1.1l.2.1.5-.2-.4-.1c-.2.1-.3.1-.3.2zm2 11.4l.9.2 1.7-.1c-.5 0-1.2-.1-2.1-.2l-.5.1zm2.6-.9l.9.1.2-.3-1.1.2zM18.2 55.1h-5.4V9l-9.5 8L0 13.3l13.4-11h4.8v52.8z" fill="#fff"/><path d="M20.7 53.9l-1 1.2.3-51 1 1.2-.3 48.6z" fill="#e0df46"/></svg>