<svg width="25" height="18" viewBox="0 0 25 18" fill="none" xmlns="http://www.w3.org/2000/svg">
	<path
		d="M24.3696 2.81016C24.0933 1.70421 23.2805 0.832511 22.2483 0.5373C20.3765 -1.66097e-07 12.8715 0 12.8715 0C12.8715 0 5.36566 -1.66097e-07 3.49387 0.5373C2.46085 0.833382 1.64809 1.70508 1.37257 2.81016C0.871092 4.81568 0.871094 9 0.871094 9C0.871094 9 0.871092 13.1843 1.37257 15.1898C1.6489 16.2967 2.46167 17.1684 3.49387 17.4627C5.36566 18 12.8715 18 12.8715 18C12.8715 18 20.3765 18 22.2483 17.4627C23.2813 17.1675 24.0941 16.2958 24.3696 15.1898C24.8711 13.1843 24.8711 9 24.8711 9C24.8711 9 24.8711 4.81568 24.3696 2.81016ZM10.4706 12.8569V5.14224L16.7061 8.99913L10.4706 12.8569Z"
		fill="white" />
</svg>