<svg width="24" height="24" viewBox="0 0 24 24" fill="none" xmlns="http://www.w3.org/2000/svg">
	<path
		d="M6.99217 0.233618C5.72197 0.292738 4.85476 0.495207 4.09688 0.79C3.31208 1.0937 2.6472 1.50026 1.98558 2.16031C1.32314 2.82035 0.916057 3.48202 0.612577 4.26112C0.318887 5.01511 0.119831 5.87681 0.06354 7.13859C0.00806529 8.402 -0.00498762 8.80531 0.00153883 12.0229C0.00806527 15.2398 0.021934 15.6439 0.0831193 16.9081C0.143489 18.1683 0.346624 19.0291 0.643578 19.7815C0.949505 20.5606 1.35904 21.2207 2.02392 21.8775C2.68799 22.5343 3.3545 22.9384 4.14093 23.2397C4.89963 23.5312 5.76847 23.7296 7.03867 23.7847C8.31133 23.8406 8.71842 23.8527 11.958 23.8463C15.2 23.8398 15.6063 23.826 16.8789 23.7661C18.1491 23.7062 19.0155 23.5037 19.7742 23.2097C20.559 22.9052 21.2239 22.4995 21.8855 21.8394C22.5471 21.1802 22.9542 20.5177 23.2577 19.7378C23.5514 18.9846 23.7513 18.1221 23.8067 16.8619C23.8622 15.5977 23.8753 15.1936 23.8696 11.9768C23.863 8.75915 23.8483 8.35664 23.788 7.09324C23.7276 5.83146 23.5245 4.97137 23.2275 4.21819C22.9208 3.43909 22.5121 2.77986 21.8472 2.12224C21.1831 1.46543 20.5166 1.0605 19.7302 0.760035C18.9706 0.468481 18.1026 0.269252 16.8324 0.214991C15.5598 0.159109 15.1527 0.146961 11.9115 0.15263C8.6711 0.159109 8.26483 0.172877 6.99136 0.233618M7.13168 21.6523C5.96834 21.6021 5.33609 21.4102 4.91513 21.249C4.35794 21.0344 3.95983 20.7777 3.5405 20.3654C3.12281 19.9516 2.86338 19.5572 2.64556 19.0049C2.48159 18.587 2.28498 17.9601 2.23032 16.8052C2.17076 15.5564 2.15771 15.1814 2.152 12.0181C2.14548 8.85552 2.15771 8.48055 2.21237 7.23092C2.26214 6.07685 2.45711 5.44839 2.61864 5.0313C2.83483 4.47735 3.09262 4.08294 3.50869 3.66667C3.92556 3.2512 4.32286 2.99447 4.87924 2.77824C5.30019 2.61545 5.93081 2.42108 7.09415 2.36601C8.35294 2.30689 8.72984 2.29393 11.9156 2.28826C15.1021 2.28179 15.4798 2.29312 16.7386 2.3482C17.9011 2.39841 18.5342 2.58954 18.9543 2.75151C19.5123 2.96613 19.9104 3.22124 20.329 3.63508C20.7475 4.04893 21.0069 4.44253 21.2247 4.99648C21.3887 5.41275 21.5845 6.04041 21.6391 7.19447C21.6987 8.44411 21.7126 8.81827 21.7183 11.9816C21.7248 15.145 21.7126 15.52 21.6579 16.7688C21.6073 17.9237 21.414 18.5513 21.2516 18.97C21.0354 19.5232 20.7777 19.9184 20.3608 20.3339C19.9439 20.7477 19.5474 21.006 18.9902 21.2223C18.5701 21.3851 17.9386 21.5794 16.7761 21.6345C15.5173 21.6936 15.1404 21.7066 11.9531 21.7123C8.76737 21.7187 8.39046 21.7066 7.13086 21.6523M16.861 5.66705C16.8626 6.45182 17.5055 7.08676 18.2952 7.08514C19.0857 7.08352 19.7261 6.44615 19.7244 5.66139C19.7228 4.87662 19.08 4.24087 18.2894 4.24249C17.4989 4.24411 16.8585 4.88229 16.8602 5.66705M5.80681 12.0116C5.81334 15.3718 8.5626 18.0897 11.9466 18.0832C15.3305 18.0767 18.07 15.3483 18.0635 11.9881C18.0569 8.62876 15.3077 5.91002 11.9229 5.9165C8.53894 5.92297 5.80028 8.65225 5.80681 12.0116ZM7.95646 12.0075C7.95238 9.82656 9.73083 8.05537 11.927 8.05132C14.1239 8.04727 15.9089 9.81117 15.913 11.993C15.9171 14.174 14.1394 15.9452 11.9425 15.95C9.74633 15.9541 7.96135 14.1893 7.95727 12.0084L7.95646 12.0075Z"
		fill="white" />
	<mask id="mask0_1291_207" style="mask-type:luminance" maskUnits="userSpaceOnUse" x="0" y="0" width="24" height="24">
		<path
			d="M6.99217 0.233618C5.72197 0.292738 4.85476 0.495207 4.09688 0.79C3.31208 1.0937 2.6472 1.50026 1.98558 2.16031C1.32314 2.82035 0.916057 3.48202 0.612577 4.26112C0.318887 5.01511 0.119831 5.87681 0.06354 7.13859C0.00806529 8.402 -0.00498762 8.80531 0.00153883 12.0229C0.00806527 15.2398 0.021934 15.6439 0.0831193 16.9081C0.143489 18.1683 0.346624 19.0291 0.643578 19.7815C0.949505 20.5606 1.35904 21.2207 2.02392 21.8775C2.68799 22.5343 3.3545 22.9384 4.14093 23.2397C4.89963 23.5312 5.76847 23.7296 7.03867 23.7847C8.31133 23.8406 8.71842 23.8527 11.958 23.8463C15.2 23.8398 15.6063 23.826 16.8789 23.7661C18.1491 23.7062 19.0155 23.5037 19.7742 23.2097C20.559 22.9052 21.2239 22.4995 21.8855 21.8394C22.5471 21.1802 22.9542 20.5177 23.2577 19.7378C23.5514 18.9846 23.7513 18.1221 23.8067 16.8619C23.8622 15.5977 23.8753 15.1936 23.8696 11.9768C23.863 8.75915 23.8483 8.35664 23.788 7.09324C23.7276 5.83146 23.5245 4.97137 23.2275 4.21819C22.9208 3.43909 22.5121 2.77986 21.8472 2.12224C21.1831 1.46543 20.5166 1.0605 19.7302 0.760035C18.9706 0.468481 18.1026 0.269252 16.8324 0.214991C15.5598 0.159109 15.1527 0.146961 11.9115 0.15263C8.6711 0.159109 8.26483 0.172877 6.99136 0.233618M7.13168 21.6523C5.96834 21.6021 5.33609 21.4102 4.91513 21.249C4.35794 21.0344 3.95983 20.7777 3.5405 20.3654C3.12281 19.9516 2.86338 19.5572 2.64556 19.0049C2.48159 18.587 2.28498 17.9601 2.23032 16.8052C2.17076 15.5564 2.15771 15.1814 2.152 12.0181C2.14548 8.85552 2.15771 8.48055 2.21237 7.23092C2.26214 6.07685 2.45711 5.44839 2.61864 5.0313C2.83483 4.47735 3.09262 4.08294 3.50869 3.66667C3.92556 3.2512 4.32286 2.99447 4.87924 2.77824C5.30019 2.61545 5.93081 2.42108 7.09415 2.36601C8.35294 2.30689 8.72984 2.29393 11.9156 2.28826C15.1021 2.28179 15.4798 2.29312 16.7386 2.3482C17.9011 2.39841 18.5342 2.58954 18.9543 2.75151C19.5123 2.96613 19.9104 3.22124 20.329 3.63508C20.7475 4.04893 21.0069 4.44253 21.2247 4.99648C21.3887 5.41275 21.5845 6.04041 21.6391 7.19447C21.6987 8.44411 21.7126 8.81827 21.7183 11.9816C21.7248 15.145 21.7126 15.52 21.6579 16.7688C21.6073 17.9237 21.414 18.5513 21.2516 18.97C21.0354 19.5232 20.7777 19.9184 20.3608 20.3339C19.9439 20.7477 19.5474 21.006 18.9902 21.2223C18.5701 21.3851 17.9386 21.5794 16.7761 21.6345C15.5173 21.6936 15.1404 21.7066 11.9531 21.7123C8.76737 21.7187 8.39046 21.7066 7.13086 21.6523M16.861 5.66705C16.8626 6.45182 17.5055 7.08676 18.2952 7.08514C19.0857 7.08352 19.7261 6.44615 19.7244 5.66139C19.7228 4.87662 19.08 4.24087 18.2894 4.24249C17.4989 4.24411 16.8585 4.88229 16.8602 5.66705M5.80681 12.0116C5.81334 15.3718 8.5626 18.0897 11.9466 18.0832C15.3305 18.0767 18.07 15.3483 18.0635 11.9881C18.0569 8.62876 15.3077 5.91002 11.9229 5.9165C8.53894 5.92297 5.80028 8.65225 5.80681 12.0116ZM7.95646 12.0075C7.95238 9.82656 9.73083 8.05537 11.927 8.05132C14.1239 8.04727 15.9089 9.81117 15.913 11.993C15.9171 14.174 14.1394 15.9452 11.9425 15.95C9.74633 15.9541 7.96135 14.1893 7.95727 12.0084L7.95646 12.0075Z"
			fill="white" />
	</mask>
	<g mask="url(#mask0_1291_207)">
		<path d="M24.8166 -0.777344H-0.962891V24.8146H24.8166V-0.777344Z" fill="white" />
		<mask id="mask1_1291_207" style="mask-type:luminance" maskUnits="userSpaceOnUse" x="-1" y="-1" width="26"
			height="26">
			<path d="M24.8166 -0.776367H-0.962891V24.8156H24.8166V-0.776367Z" fill="white" />
		</mask>
		<g mask="url(#mask1_1291_207)">
			<path d="M24.9376 -0.896484H-1.08008V24.9328H24.9376V-0.896484Z" fill="white" />
			<mask id="mask2_1291_207" style="mask-type:luminance" maskUnits="userSpaceOnUse" x="-2" y="-1" width="27"
				height="26">
				<path d="M24.9386 -0.894531H-1.0791V24.9347H24.9386V-0.894531Z" fill="white" />
			</mask>
			<g mask="url(#mask2_1291_207)">
				<path d="M24.9386 -0.894531H-1.0791V24.9347H24.9386V-0.894531Z" fill="white" />
			</g>
		</g>
	</g>
</svg>