<svg width="25" height="24" viewBox="0 0 25 24" fill="none" xmlns="http://www.w3.org/2000/svg">
	<path
		d="M4.87109 0C2.6778 0 0.871094 1.80671 0.871094 4V20C0.871094 22.1933 2.6778 24 4.87109 24H20.8711C23.0644 24 24.8711 22.1933 24.8711 20V4C24.8711 1.80671 23.0644 0 20.8711 0H4.87109ZM12.8711 5.33333H15.5378C15.5378 6.67333 17.4991 8 18.2044 8V10.6667C17.3978 10.6667 16.4284 10.3122 15.5378 9.71354V14.6667C15.5378 16.872 13.7431 18.6667 11.5378 18.6667C9.33243 18.6667 7.53776 16.872 7.53776 14.6667C7.53776 12.4613 9.33243 10.6667 11.5378 10.6667V13.3333C10.8018 13.3333 10.2044 13.932 10.2044 14.6667C10.2044 15.4013 10.8018 16 11.5378 16C12.2738 16 12.8711 15.4013 12.8711 14.6667V5.33333Z"
		fill="white" />
</svg>