<svg width="23" height="24" viewBox="0 0 23 24" fill="none" xmlns="http://www.w3.org/2000/svg">
	<path
		d="M23 12.0726C23 18.0994 18.7945 23.0947 13.2977 24V15.5627H15.9762L16.4859 12.0726H13.2969V9.80811C13.2969 8.85302 13.7418 7.92283 15.1708 7.92283H16.6203V4.95218C16.6203 4.95218 15.3044 4.71652 14.0461 4.71652C11.4198 4.71652 9.70314 6.38772 9.70314 9.41313V12.0726H6.78279V15.5627H9.70314V24C4.20545 23.0939 0 18.0994 0 12.0726C0 5.40525 5.14834 0 11.4996 0C17.8509 0 22.9984 5.40525 22.9984 12.0726H23Z"
		fill="white" />
</svg>