<svg width="25" height="24" viewBox="0 0 25 24" fill="none" xmlns="http://www.w3.org/2000/svg">
	<path
		d="M12.8711 0C6.27109 0 0.871094 5.4 0.871094 12C0.871094 18.6 6.27109 24 12.8711 24C19.4711 24 24.8711 18.6 24.8711 12C24.8711 5.4 19.4711 0 12.8711 0ZM17.7395 17.2872C17.5139 17.2872 17.4011 17.1744 17.1755 17.0616C15.4823 16.0452 13.3379 15.4812 11.0807 15.4812C9.83869 15.4812 8.48509 15.7068 7.35589 15.9324C7.13029 15.9324 6.90469 16.0452 6.79189 16.0452C6.34069 16.0452 6.00229 15.7068 6.00229 15.2556C6.00229 14.8044 6.22789 14.466 6.67909 14.466C8.14669 14.1276 9.61429 13.902 11.1947 13.902C13.7903 13.902 16.1615 14.5788 18.1931 15.708C18.4187 15.9336 18.6443 16.0464 18.6443 16.4976C18.4163 17.0616 18.0779 17.2872 17.7395 17.2872ZM18.9803 14.1276C18.7547 14.1276 18.5291 14.0148 18.3035 13.902C16.3847 12.66 13.6751 11.9832 10.7411 11.9832C9.27349 11.9832 7.91869 12.2088 6.90349 12.4344C6.67789 12.5472 6.56509 12.5472 6.33949 12.5472C5.77549 12.5472 5.43589 12.096 5.43589 11.6436C5.43589 11.0796 5.66149 10.854 6.22549 10.6272C7.58029 10.2888 8.93509 9.9504 10.8539 9.9504C14.0147 9.9504 16.9487 10.74 19.4327 12.2076C19.7711 12.4332 19.9967 12.7716 19.9967 13.1112C19.8839 13.6752 19.5455 14.1276 18.9803 14.1276ZM20.4479 10.5144C20.2223 10.5144 20.1095 10.4016 19.7711 10.2888C17.5139 9.0468 14.2403 8.2572 11.0795 8.2572C9.49909 8.2572 7.80589 8.4828 6.33829 8.8212C6.11269 8.8212 5.99989 8.934 5.66149 8.934C4.98469 9.048 4.53229 8.4828 4.53229 7.806C4.53229 7.1292 4.87069 6.7896 5.32189 6.6768C7.12909 6.2256 9.04789 6 11.0795 6C14.5787 6 18.1907 6.7896 21.0131 8.2572C21.3515 8.4828 21.6899 8.8212 21.6899 9.3864C21.5771 10.0632 21.1247 10.5144 20.4479 10.5144Z"
		fill="white" />
</svg>